STARTFONT 2.1
FONT -DEC-VT220-medium-r-DoubleWide-136col-50-500-75-75-m-850-iso10646-1
SIZE 50 75 75
FONTBOUNDINGBOX 85 50 0 -10
STARTPROPERTIES 22
FONTNAME_REGISTRY ""
FOUNDRY "DEC"
FAMILY_NAME "vt220"
WEIGHT_NAME "medium"
RELATIVE_SETWIDTH 90
SLANT r
SETWIDTH_NAME "DoubleWide"
ADD_STYLE_NAME "136col"
PIXEL_SIZE 50
POINT_SIZE 500
RESOLUTION_X 75
RESOLUTION_Y 75
SPACING "m"
CHARSET_REGISTRY "ISO10646"
CHARSET_ENCODING "1"
CAP_HEIGHT 35
X_HEIGHT 25
WEIGHT 10
QUAD_WIDTH 85
DEFAULT_CHAR 9670
FONT_ASCENT 40
FONT_DESCENT 10
AVERAGE_WIDTH 850
ENDPROPERTIES
CHARS 288
STARTCHAR U+00FD
ENCODING 253
SWIDTH 1000 0
BBX 85 50 0 -10
DWIDTH 85 0
BITMAP
0000000000000000000000
0000000000000000000000
0000000000000000000000
0000000000000000000000
0000000000000000000000
FFFE000000FFFE00000000
FFFE000000FFFE00000000
FFFE000000FFFE00000000
FFFE000000FFFE00000000
FFFE000000FFFE00000000
FFFFFF8000FFFE00000000
FFFFFF8000FFFE00000000
FFFFFF8000FFFE00000000
FFFFFF8000FFFE00000000
FFFFFF8000FFFE00000000
FFFE0FFFE0FFFE00000000
FFFE0FFFE0FFFE00000000
FFFE0FFFE0FFFE00000000
FFFE0FFFE0FFFE00000000
FFFE0FFFE0FFFE00000000
FFFE0003FFFFFE00000000
FFFE0003FFFFFE00000000
FFFE0003FFFFFE00000000
FFFE0003FFFFFE00000000
FFFE0003FFFFFE00000000
FFFE0003FFFFFE0FFFE000
FFFE0003FFFFFE0FFFE000
FFFE0003FFFFFE0FFFE000
FFFE0003FFFFFE0FFFE000
FFFE0003FFFFFE0FFFE000
00000003FFF8000FFFE000
00000003FFF8000FFFE000
00000003FFF8000FFFE000
00000003FFF8000FFFE000
00000003FFF8000FFFE000
00000003FFF8000FFFE000
00000003FFF8000FFFE000
00000003FFF8000FFFE000
00000003FFF8000FFFE000
00000003FFF8000FFFE000
00000003FFF8000FFFE000
00000003FFF8000FFFE000
00000003FFF8000FFFE000
00000003FFF8000FFFE000
00000003FFF8000FFFE000
0000000000FFFFFF800000
0000000000FFFFFF800000
0000000000FFFFFF800000
0000000000FFFFFF800000
0000000000FFFFFF800000
ENDCHAR
STARTCHAR U+25A1
ENCODING 9633
SWIDTH 1000 0
BBX 85 50 0 -10
DWIDTH 85 0
BITMAP
0000000000000000000000
0000000000000000000000
0000000000000000000000
0000000000000000000000
0000000000000000000000
FFFFFFFFFFFFFFFFFFE000
FFFFFFFFFFFFFFFFFFE000
FFFFFFFFFFFFFFFFFFE000
FFFFFFFFFFFFFFFFFFE000
FFFFFFFFFFFFFFFFFFE000
FFFE00000000000FFFE000
FFFE00000000000FFFE000
FFFE00000000000FFFE000
FFFE00000000000FFFE000
FFFE00000000000FFFE000
FFFE00000000000FFFE000
FFFE00000000000FFFE000
FFFE00000000000FFFE000
FFFE00000000000FFFE000
FFFE00000000000FFFE000
FFFE00000000000FFFE000
FFFE00000000000FFFE000
FFFE00000000000FFFE000
FFFE00000000000FFFE000
FFFE00000000000FFFE000
FFFE00000000000FFFE000
FFFE00000000000FFFE000
FFFE00000000000FFFE000
FFFE00000000000FFFE000
FFFE00000000000FFFE000
FFFE00000000000FFFE000
FFFE00000000000FFFE000
FFFE00000000000FFFE000
FFFE00000000000FFFE000
FFFE00000000000FFFE000
FFFFFFFFFFFFFFFFFFE000
FFFFFFFFFFFFFFFFFFE000
FFFFFFFFFFFFFFFFFFE000
FFFFFFFFFFFFFFFFFFE000
FFFFFFFFFFFFFFFFFFE000
0000000000000000000000
0000000000000000000000
0000000000000000000000
0000000000000000000000
0000000000000000000000
0000000000000000000000
0000000000000000000000
0000000000000000000000
0000000000000000000000
0000000000000000000000
ENDCHAR
STARTCHAR U+00FE
ENCODING 254
SWIDTH 1000 0
BBX 85 50 0 -10
DWIDTH 85 0
BITMAP
0000000000000000000000
0000000000000000000000
0000000000000000000000
0000000000000000000000
0000000000000000000000
FFFFFFFFFFF80000000000
FFFFFFFFFFF80000000000
FFFFFFFFFFF80000000000
FFFFFFFFFFF80000000000
FFFFFFFFFFF80000000000
FFFE000000000000000000
FFFE000000000000000000
FFFE000000000000000000
FFFE000000000000000000
FFFE000000000000000000
FFFFFFFFE0000000000000
FFFFFFFFE0000000000000
FFFFFFFFE0000000000000
FFFFFFFFE0000000000000
FFFFFFFFE0000000000000
FFFE000000000000000000
FFFE000000000000000000
FFFE000000000000000000
FFFE000000000000000000
FFFE000000000000000000
FFFE0003FFFFFFFFFFE000
FFFE0003FFFFFFFFFFE000
FFFE0003FFFFFFFFFFE000
FFFE0003FFFFFFFFFFE000
FFFE0003FFFFFFFFFFE000
00000003FFF80000000000
00000003FFF80000000000
00000003FFF80000000000
00000003FFF80000000000
00000003FFF80000000000
00000003FFFFFFFF800000
00000003FFFFFFFF800000
00000003FFFFFFFF800000
00000003FFFFFFFF800000
00000003FFFFFFFF800000
00000003FFF80000000000
00000003FFF80000000000
00000003FFF80000000000
00000003FFF80000000000
00000003FFF80000000000
00000003FFFFFFFFFFE000
00000003FFFFFFFFFFE000
00000003FFFFFFFFFFE000
00000003FFFFFFFFFFE000
00000003FFFFFFFFFFE000
ENDCHAR
STARTCHAR U+00FF
ENCODING 255
SWIDTH 1000 0
BBX 85 50 0 -10
DWIDTH 85 0
BITMAP
0000000000000000000000
0000000000000000000000
0000000000000000000000
0000000000000000000000
0000000000000000000000
003FFF8000003FFF800000
003FFF8000003FFF800000
003FFF8000003FFF800000
003FFF8000003FFF800000
003FFF8000003FFF800000
0000000000000000000000
0000000000000000000000
0000000000000000000000
0000000000000000000000
0000000000000000000000
FFFE000000003FFF800000
FFFE000000003FFF800000
FFFE000000003FFF800000
FFFE000000003FFF800000
FFFE000000003FFF800000
FFFE000000003FFF800000
FFFE000000003FFF800000
FFFE000000003FFF800000
FFFE000000003FFF800000
FFFE000000003FFF800000
FFFE000000FFFFFF800000
FFFE000000FFFFFF800000
FFFE000000FFFFFF800000
FFFE000000FFFFFF800000
FFFE000000FFFFFF800000
003FFFFFFFF83FFF800000
003FFFFFFFF83FFF800000
003FFFFFFFF83FFF800000
003FFFFFFFF83FFF800000
003FFFFFFFF83FFF800000
0000000000003FFF800000
0000000000003FFF800000
0000000000003FFF800000
0000000000003FFF800000
0000000000003FFF800000
FFFE000000003FFF800000
FFFE000000003FFF800000
FFFE000000003FFF800000
FFFE000000003FFF800000
FFFE000000003FFF800000
003FFFFFFFFFFE00000000
003FFFFFFFFFFE00000000
003FFFFFFFFFFE00000000
003FFFFFFFFFFE00000000
003FFFFFFFFFFE00000000
ENDCHAR
STARTCHAR U+00FC
ENCODING 252
SWIDTH 1000 0
BBX 85 50 0 -10
DWIDTH 85 0
BITMAP
0000000000000000000000
0000000000000000000000
0000000000000000000000
0000000000000000000000
0000000000000000000000
003FFF8000003FFF800000
003FFF8000003FFF800000
003FFF8000003FFF800000
003FFF8000003FFF800000
003FFF8000003FFF800000
0000000000000000000000
0000000000000000000000
0000000000000000000000
0000000000000000000000
0000000000000000000000
FFFE000000003FFF800000
FFFE000000003FFF800000
FFFE000000003FFF800000
FFFE000000003FFF800000
FFFE000000003FFF800000
FFFE000000003FFF800000
FFFE000000003FFF800000
FFFE000000003FFF800000
FFFE000000003FFF800000
FFFE000000003FFF800000
FFFE000000003FFF800000
FFFE000000003FFF800000
FFFE000000003FFF800000
FFFE000000003FFF800000
FFFE000000003FFF800000
FFFE000000003FFF800000
FFFE000000003FFF800000
FFFE000000003FFF800000
FFFE000000003FFF800000
FFFE000000003FFF800000
003FFFFFFFFFFE0FFFE000
003FFFFFFFFFFE0FFFE000
003FFFFFFFFFFE0FFFE000
003FFFFFFFFFFE0FFFE000
003FFFFFFFFFFE0FFFE000
0000000000000000000000
0000000000000000000000
0000000000000000000000
0000000000000000000000
0000000000000000000000
0000000000000000000000
0000000000000000000000
0000000000000000000000
0000000000000000000000
0000000000000000000000
ENDCHAR
STARTCHAR U+00FB
ENCODING 251
SWIDTH 1000 0
BBX 85 50 0 -10
DWIDTH 85 0
BITMAP
00000FFFFFFFFE00000000
00000FFFFFFFFE00000000
00000FFFFFFFFE00000000
00000FFFFFFFFE00000000
00000FFFFFFFFE00000000
003FFF8000003FFF800000
003FFF8000003FFF800000
003FFF8000003FFF800000
003FFF8000003FFF800000
003FFF8000003FFF800000
0000000000000000000000
0000000000000000000000
0000000000000000000000
0000000000000000000000
0000000000000000000000
FFFE000000003FFF800000
FFFE000000003FFF800000
FFFE000000003FFF800000
FFFE000000003FFF800000
FFFE000000003FFF800000
FFFE000000003FFF800000
FFFE000000003FFF800000
FFFE000000003FFF800000
FFFE000000003FFF800000
FFFE000000003FFF800000
FFFE000000003FFF800000
FFFE000000003FFF800000
FFFE000000003FFF800000
FFFE000000003FFF800000
FFFE000000003FFF800000
FFFE000000003FFF800000
FFFE000000003FFF800000
FFFE000000003FFF800000
FFFE000000003FFF800000
FFFE000000003FFF800000
003FFFFFFFFFFE0FFFE000
003FFFFFFFFFFE0FFFE000
003FFFFFFFFFFE0FFFE000
003FFFFFFFFFFE0FFFE000
003FFFFFFFFFFE0FFFE000
0000000000000000000000
0000000000000000000000
0000000000000000000000
0000000000000000000000
0000000000000000000000
0000000000000000000000
0000000000000000000000
0000000000000000000000
0000000000000000000000
0000000000000000000000
ENDCHAR
STARTCHAR U+00FA
ENCODING 250
SWIDTH 1000 0
BBX 85 50 0 -10
DWIDTH 85 0
BITMAP
0000000000000000000000
0000000000000000000000
0000000000000000000000
0000000000000000000000
0000000000000000000000
00000003FFFFFE00000000
00000003FFFFFE00000000
00000003FFFFFE00000000
00000003FFFFFE00000000
00000003FFFFFE00000000
003FFFFFE0000000000000
003FFFFFE0000000000000
003FFFFFE0000000000000
003FFFFFE0000000000000
003FFFFFE0000000000000
FFFE000000003FFF800000
FFFE000000003FFF800000
FFFE000000003FFF800000
FFFE000000003FFF800000
FFFE000000003FFF800000
FFFE000000003FFF800000
FFFE000000003FFF800000
FFFE000000003FFF800000
FFFE000000003FFF800000
FFFE000000003FFF800000
FFFE000000003FFF800000
FFFE000000003FFF800000
FFFE000000003FFF800000
FFFE000000003FFF800000
FFFE000000003FFF800000
FFFE000000003FFF800000
FFFE000000003FFF800000
FFFE000000003FFF800000
FFFE000000003FFF800000
FFFE000000003FFF800000
003FFFFFFFFFFE0FFFE000
003FFFFFFFFFFE0FFFE000
003FFFFFFFFFFE0FFFE000
003FFFFFFFFFFE0FFFE000
003FFFFFFFFFFE0FFFE000
0000000000000000000000
0000000000000000000000
0000000000000000000000
0000000000000000000000
0000000000000000000000
0000000000000000000000
0000000000000000000000
0000000000000000000000
0000000000000000000000
0000000000000000000000
ENDCHAR
STARTCHAR U+00F9
ENCODING 249
SWIDTH 1000 0
BBX 85 50 0 -10
DWIDTH 85 0
BITMAP
0000000000000000000000
0000000000000000000000
0000000000000000000000
0000000000000000000000
0000000000000000000000
003FFFFFE0000000000000
003FFFFFE0000000000000
003FFFFFE0000000000000
003FFFFFE0000000000000
003FFFFFE0000000000000
00000003FFFFFE00000000
00000003FFFFFE00000000
00000003FFFFFE00000000
00000003FFFFFE00000000
00000003FFFFFE00000000
FFFE000000003FFF800000
FFFE000000003FFF800000
FFFE000000003FFF800000
FFFE000000003FFF800000
FFFE000000003FFF800000
FFFE000000003FFF800000
FFFE000000003FFF800000
FFFE000000003FFF800000
FFFE000000003FFF800000
FFFE000000003FFF800000
FFFE000000003FFF800000
FFFE000000003FFF800000
FFFE000000003FFF800000
FFFE000000003FFF800000
FFFE000000003FFF800000
FFFE000000003FFF800000
FFFE000000003FFF800000
FFFE000000003FFF800000
FFFE000000003FFF800000
FFFE000000003FFF800000
003FFFFFFFFFFE0FFFE000
003FFFFFFFFFFE0FFFE000
003FFFFFFFFFFE0FFFE000
003FFFFFFFFFFE0FFFE000
003FFFFFFFFFFE0FFFE000
0000000000000000000000
0000000000000000000000
0000000000000000000000
0000000000000000000000
0000000000000000000000
0000000000000000000000
0000000000000000000000
0000000000000000000000
0000000000000000000000
0000000000000000000000
ENDCHAR
STARTCHAR U+00F8
ENCODING 248
SWIDTH 1000 0
BBX 85 50 0 -10
DWIDTH 85 0
BITMAP
0000000000000000000000
0000000000000000000000
0000000000000000000000
0000000000000000000000
0000000000000000000000
0000000000000000000000
0000000000000000000000
0000000000000000000000
0000000000000000000000
0000000000000000000000
000000000000000FFFE000
000000000000000FFFE000
000000000000000FFFE000
000000000000000FFFE000
000000000000000FFFE000
003FFFFFFFFFFFFF800000
003FFFFFFFFFFFFF800000
003FFFFFFFFFFFFF800000
003FFFFFFFFFFFFF800000
003FFFFFFFFFFFFF800000
FFFE000000FFFE0FFFE000
FFFE000000FFFE0FFFE000
FFFE000000FFFE0FFFE000
FFFE000000FFFE0FFFE000
FFFE000000FFFE0FFFE000
FFFE0003FFF8000FFFE000
FFFE0003FFF8000FFFE000
FFFE0003FFF8000FFFE000
FFFE0003FFF8000FFFE000
FFFE0003FFF8000FFFE000
FFFE0FFFE000000FFFE000
FFFE0FFFE000000FFFE000
FFFE0FFFE000000FFFE000
FFFE0FFFE000000FFFE000
FFFE0FFFE000000FFFE000
003FFFFFFFFFFFFF800000
003FFFFFFFFFFFFF800000
003FFFFFFFFFFFFF800000
003FFFFFFFFFFFFF800000
003FFFFFFFFFFFFF800000
FFFE000000000000000000
FFFE000000000000000000
FFFE000000000000000000
FFFE000000000000000000
FFFE000000000000000000
0000000000000000000000
0000000000000000000000
0000000000000000000000
0000000000000000000000
0000000000000000000000
ENDCHAR
STARTCHAR U+0152
ENCODING 338
SWIDTH 1000 0
BBX 85 50 0 -10
DWIDTH 85 0
BITMAP
0000000000000000000000
0000000000000000000000
0000000000000000000000
0000000000000000000000
0000000000000000000000
0000000000000000000000
0000000000000000000000
0000000000000000000000
0000000000000000000000
0000000000000000000000
0000000000000000000000
0000000000000000000000
0000000000000000000000
0000000000000000000000
0000000000000000000000
003FFFFFE0FFFFFF800000
003FFFFFE0FFFFFF800000
003FFFFFE0FFFFFF800000
003FFFFFE0FFFFFF800000
003FFFFFE0FFFFFF800000
FFFE0003FFF8000FFFE000
FFFE0003FFF8000FFFE000
FFFE0003FFF8000FFFE000
FFFE0003FFF8000FFFE000
FFFE0003FFF8000FFFE000
FFFE0003FFFFFFFFFFE000
FFFE0003FFFFFFFFFFE000
FFFE0003FFFFFFFFFFE000
FFFE0003FFFFFFFFFFE000
FFFE0003FFFFFFFFFFE000
FFFE0003FFF80000000000
FFFE0003FFF80000000000
FFFE0003FFF80000000000
FFFE0003FFF80000000000
FFFE0003FFF80000000000
003FFFFFE0FFFFFFFFE000
003FFFFFE0FFFFFFFFE000
003FFFFFE0FFFFFFFFE000
003FFFFFE0FFFFFFFFE000
003FFFFFE0FFFFFFFFE000
0000000000000000000000
0000000000000000000000
0000000000000000000000
0000000000000000000000
0000000000000000000000
0000000000000000000000
0000000000000000000000
0000000000000000000000
0000000000000000000000
0000000000000000000000
ENDCHAR
STARTCHAR U+00F6
ENCODING 246
SWIDTH 1000 0
BBX 85 50 0 -10
DWIDTH 85 0
BITMAP
0000000000000000000000
0000000000000000000000
0000000000000000000000
0000000000000000000000
0000000000000000000000
003FFF8000003FFF800000
003FFF8000003FFF800000
003FFF8000003FFF800000
003FFF8000003FFF800000
003FFF8000003FFF800000
0000000000000000000000
0000000000000000000000
0000000000000000000000
0000000000000000000000
0000000000000000000000
003FFFFFFFFFFFFF800000
003FFFFFFFFFFFFF800000
003FFFFFFFFFFFFF800000
003FFFFFFFFFFFFF800000
003FFFFFFFFFFFFF800000
FFFE00000000000FFFE000
FFFE00000000000FFFE000
FFFE00000000000FFFE000
FFFE00000000000FFFE000
FFFE00000000000FFFE000
FFFE00000000000FFFE000
FFFE00000000000FFFE000
FFFE00000000000FFFE000
FFFE00000000000FFFE000
FFFE00000000000FFFE000
FFFE00000000000FFFE000
FFFE00000000000FFFE000
FFFE00000000000FFFE000
FFFE00000000000FFFE000
FFFE00000000000FFFE000
003FFFFFFFFFFFFF800000
003FFFFFFFFFFFFF800000
003FFFFFFFFFFFFF800000
003FFFFFFFFFFFFF800000
003FFFFFFFFFFFFF800000
0000000000000000000000
0000000000000000000000
0000000000000000000000
0000000000000000000000
0000000000000000000000
0000000000000000000000
0000000000000000000000
0000000000000000000000
0000000000000000000000
0000000000000000000000
ENDCHAR
STARTCHAR U+00F5
ENCODING 245
SWIDTH 1000 0
BBX 85 50 0 -10
DWIDTH 85 0
BITMAP
003FFFFFE0003FFF800000
003FFFFFE0003FFF800000
003FFFFFE0003FFF800000
003FFFFFE0003FFF800000
003FFFFFE0003FFF800000
FFFE0003FFFFFE00000000
FFFE0003FFFFFE00000000
FFFE0003FFFFFE00000000
FFFE0003FFFFFE00000000
FFFE0003FFFFFE00000000
0000000000000000000000
0000000000000000000000
0000000000000000000000
0000000000000000000000
0000000000000000000000
003FFFFFFFFFFFFF800000
003FFFFFFFFFFFFF800000
003FFFFFFFFFFFFF800000
003FFFFFFFFFFFFF800000
003FFFFFFFFFFFFF800000
FFFE00000000000FFFE000
FFFE00000000000FFFE000
FFFE00000000000FFFE000
FFFE00000000000FFFE000
FFFE00000000000FFFE000
FFFE00000000000FFFE000
FFFE00000000000FFFE000
FFFE00000000000FFFE000
FFFE00000000000FFFE000
FFFE00000000000FFFE000
FFFE00000000000FFFE000
FFFE00000000000FFFE000
FFFE00000000000FFFE000
FFFE00000000000FFFE000
FFFE00000000000FFFE000
003FFFFFFFFFFFFF800000
003FFFFFFFFFFFFF800000
003FFFFFFFFFFFFF800000
003FFFFFFFFFFFFF800000
003FFFFFFFFFFFFF800000
0000000000000000000000
0000000000000000000000
0000000000000000000000
0000000000000000000000
0000000000000000000000
0000000000000000000000
0000000000000000000000
0000000000000000000000
0000000000000000000000
0000000000000000000000
ENDCHAR
STARTCHAR U+00F4
ENCODING 244
SWIDTH 1000 0
BBX 85 50 0 -10
DWIDTH 85 0
BITMAP
00000FFFFFFFFE00000000
00000FFFFFFFFE00000000
00000FFFFFFFFE00000000
00000FFFFFFFFE00000000
00000FFFFFFFFE00000000
003FFF8000003FFF800000
003FFF8000003FFF800000
003FFF8000003FFF800000
003FFF8000003FFF800000
003FFF8000003FFF800000
0000000000000000000000
0000000000000000000000
0000000000000000000000
0000000000000000000000
0000000000000000000000
003FFFFFFFFFFFFF800000
003FFFFFFFFFFFFF800000
003FFFFFFFFFFFFF800000
003FFFFFFFFFFFFF800000
003FFFFFFFFFFFFF800000
FFFE00000000000FFFE000
FFFE00000000000FFFE000
FFFE00000000000FFFE000
FFFE00000000000FFFE000
FFFE00000000000FFFE000
FFFE00000000000FFFE000
FFFE00000000000FFFE000
FFFE00000000000FFFE000
FFFE00000000000FFFE000
FFFE00000000000FFFE000
FFFE00000000000FFFE000
FFFE00000000000FFFE000
FFFE00000000000FFFE000
FFFE00000000000FFFE000
FFFE00000000000FFFE000
003FFFFFFFFFFFFF800000
003FFFFFFFFFFFFF800000
003FFFFFFFFFFFFF800000
003FFFFFFFFFFFFF800000
003FFFFFFFFFFFFF800000
0000000000000000000000
0000000000000000000000
0000000000000000000000
0000000000000000000000
0000000000000000000000
0000000000000000000000
0000000000000000000000
0000000000000000000000
0000000000000000000000
0000000000000000000000
ENDCHAR
STARTCHAR U+00F3
ENCODING 243
SWIDTH 1000 0
BBX 85 50 0 -10
DWIDTH 85 0
BITMAP
0000000000000000000000
0000000000000000000000
0000000000000000000000
0000000000000000000000
0000000000000000000000
00000003FFFFFE00000000
00000003FFFFFE00000000
00000003FFFFFE00000000
00000003FFFFFE00000000
00000003FFFFFE00000000
003FFFFFE0000000000000
003FFFFFE0000000000000
003FFFFFE0000000000000
003FFFFFE0000000000000
003FFFFFE0000000000000
003FFFFFFFFFFFFF800000
003FFFFFFFFFFFFF800000
003FFFFFFFFFFFFF800000
003FFFFFFFFFFFFF800000
003FFFFFFFFFFFFF800000
FFFE00000000000FFFE000
FFFE00000000000FFFE000
FFFE00000000000FFFE000
FFFE00000000000FFFE000
FFFE00000000000FFFE000
FFFE00000000000FFFE000
FFFE00000000000FFFE000
FFFE00000000000FFFE000
FFFE00000000000FFFE000
FFFE00000000000FFFE000
FFFE00000000000FFFE000
FFFE00000000000FFFE000
FFFE00000000000FFFE000
FFFE00000000000FFFE000
FFFE00000000000FFFE000
003FFFFFFFFFFFFF800000
003FFFFFFFFFFFFF800000
003FFFFFFFFFFFFF800000
003FFFFFFFFFFFFF800000
003FFFFFFFFFFFFF800000
0000000000000000000000
0000000000000000000000
0000000000000000000000
0000000000000000000000
0000000000000000000000
0000000000000000000000
0000000000000000000000
0000000000000000000000
0000000000000000000000
0000000000000000000000
ENDCHAR
STARTCHAR U+00F2
ENCODING 242
SWIDTH 1000 0
BBX 85 50 0 -10
DWIDTH 85 0
BITMAP
0000000000000000000000
0000000000000000000000
0000000000000000000000
0000000000000000000000
0000000000000000000000
00000FFFFFF80000000000
00000FFFFFF80000000000
00000FFFFFF80000000000
00000FFFFFF80000000000
00000FFFFFF80000000000
0000000000FFFFFF800000
0000000000FFFFFF800000
0000000000FFFFFF800000
0000000000FFFFFF800000
0000000000FFFFFF800000
003FFFFFFFFFFFFF800000
003FFFFFFFFFFFFF800000
003FFFFFFFFFFFFF800000
003FFFFFFFFFFFFF800000
003FFFFFFFFFFFFF800000
FFFE00000000000FFFE000
FFFE00000000000FFFE000
FFFE00000000000FFFE000
FFFE00000000000FFFE000
FFFE00000000000FFFE000
FFFE00000000000FFFE000
FFFE00000000000FFFE000
FFFE00000000000FFFE000
FFFE00000000000FFFE000
FFFE00000000000FFFE000
FFFE00000000000FFFE000
FFFE00000000000FFFE000
FFFE00000000000FFFE000
FFFE00000000000FFFE000
FFFE00000000000FFFE000
003FFFFFFFFFFFFF800000
003FFFFFFFFFFFFF800000
003FFFFFFFFFFFFF800000
003FFFFFFFFFFFFF800000
003FFFFFFFFFFFFF800000
0000000000000000000000
0000000000000000000000
0000000000000000000000
0000000000000000000000
0000000000000000000000
0000000000000000000000
0000000000000000000000
0000000000000000000000
0000000000000000000000
0000000000000000000000
ENDCHAR
STARTCHAR U+00F1
ENCODING 241
SWIDTH 1000 0
BBX 85 50 0 -10
DWIDTH 85 0
BITMAP
003FFFFFE0003FFF800000
003FFFFFE0003FFF800000
003FFFFFE0003FFF800000
003FFFFFE0003FFF800000
003FFFFFE0003FFF800000
FFFE0003FFFFFE00000000
FFFE0003FFFFFE00000000
FFFE0003FFFFFE00000000
FFFE0003FFFFFE00000000
FFFE0003FFFFFE00000000
0000000000000000000000
0000000000000000000000
0000000000000000000000
0000000000000000000000
0000000000000000000000
FFFE0FFFFFFFFFFF800000
FFFE0FFFFFFFFFFF800000
FFFE0FFFFFFFFFFF800000
FFFE0FFFFFFFFFFF800000
FFFE0FFFFFFFFFFF800000
FFFFFF800000000FFFE000
FFFFFF800000000FFFE000
FFFFFF800000000FFFE000
FFFFFF800000000FFFE000
FFFFFF800000000FFFE000
FFFE00000000000FFFE000
FFFE00000000000FFFE000
FFFE00000000000FFFE000
FFFE00000000000FFFE000
FFFE00000000000FFFE000
FFFE00000000000FFFE000
FFFE00000000000FFFE000
FFFE00000000000FFFE000
FFFE00000000000FFFE000
FFFE00000000000FFFE000
FFFE00000000000FFFE000
FFFE00000000000FFFE000
FFFE00000000000FFFE000
FFFE00000000000FFFE000
FFFE00000000000FFFE000
0000000000000000000000
0000000000000000000000
0000000000000000000000
0000000000000000000000
0000000000000000000000
0000000000000000000000
0000000000000000000000
0000000000000000000000
0000000000000000000000
0000000000000000000000
ENDCHAR
STARTCHAR U+00F0
ENCODING 240
SWIDTH 1000 0
BBX 85 50 0 -10
DWIDTH 85 0
BITMAP
0000000000000000000000
0000000000000000000000
0000000000000000000000
0000000000000000000000
0000000000000000000000
FFFFFFFFFFF80000000000
FFFFFFFFFFF80000000000
FFFFFFFFFFF80000000000
FFFFFFFFFFF80000000000
FFFFFFFFFFF80000000000
FFFE000000000000000000
FFFE000000000000000000
FFFE000000000000000000
FFFE000000000000000000
FFFE000000000000000000
FFFFFFFFE0000000000000
FFFFFFFFE0000000000000
FFFFFFFFE0000000000000
FFFFFFFFE0000000000000
FFFFFFFFE0000000000000
FFFE000000000000000000
FFFE000000000000000000
FFFE000000000000000000
FFFE000000000000000000
FFFE000000000000000000
FFFE000000FFFFFF800000
FFFE000000FFFFFF800000
FFFE000000FFFFFF800000
FFFE000000FFFFFF800000
FFFE000000FFFFFF800000
00000003FFF8000FFFE000
00000003FFF8000FFFE000
00000003FFF8000FFFE000
00000003FFF8000FFFE000
00000003FFF8000FFFE000
00000003FFF8000FFFE000
00000003FFF8000FFFE000
00000003FFF8000FFFE000
00000003FFF8000FFFE000
00000003FFF8000FFFE000
00000003FFF8000FFFE000
00000003FFF8000FFFE000
00000003FFF8000FFFE000
00000003FFF8000FFFE000
00000003FFF8000FFFE000
0000000000FFFFFF800000
0000000000FFFFFF800000
0000000000FFFFFF800000
0000000000FFFFFF800000
0000000000FFFFFF800000
ENDCHAR
STARTCHAR U+00EF
ENCODING 239
SWIDTH 1000 0
BBX 85 50 0 -10
DWIDTH 85 0
BITMAP
0000000000000000000000
0000000000000000000000
0000000000000000000000
0000000000000000000000
0000000000000000000000
003FFF8000003FFF800000
003FFF8000003FFF800000
003FFF8000003FFF800000
003FFF8000003FFF800000
003FFF8000003FFF800000
0000000000000000000000
0000000000000000000000
0000000000000000000000
0000000000000000000000
0000000000000000000000
00000FFFFFF80000000000
00000FFFFFF80000000000
00000FFFFFF80000000000
00000FFFFFF80000000000
00000FFFFFF80000000000
00000003FFF80000000000
00000003FFF80000000000
00000003FFF80000000000
00000003FFF80000000000
00000003FFF80000000000
00000003FFF80000000000
00000003FFF80000000000
00000003FFF80000000000
00000003FFF80000000000
00000003FFF80000000000
00000003FFF80000000000
00000003FFF80000000000
00000003FFF80000000000
00000003FFF80000000000
00000003FFF80000000000
003FFFFFFFFFFFFF800000
003FFFFFFFFFFFFF800000
003FFFFFFFFFFFFF800000
003FFFFFFFFFFFFF800000
003FFFFFFFFFFFFF800000
0000000000000000000000
0000000000000000000000
0000000000000000000000
0000000000000000000000
0000000000000000000000
0000000000000000000000
0000000000000000000000
0000000000000000000000
0000000000000000000000
0000000000000000000000
ENDCHAR
STARTCHAR U+00EE
ENCODING 238
SWIDTH 1000 0
BBX 85 50 0 -10
DWIDTH 85 0
BITMAP
00000FFFFFFFFE00000000
00000FFFFFFFFE00000000
00000FFFFFFFFE00000000
00000FFFFFFFFE00000000
00000FFFFFFFFE00000000
003FFF8000003FFF800000
003FFF8000003FFF800000
003FFF8000003FFF800000
003FFF8000003FFF800000
003FFF8000003FFF800000
0000000000000000000000
0000000000000000000000
0000000000000000000000
0000000000000000000000
0000000000000000000000
00000FFFFFF80000000000
00000FFFFFF80000000000
00000FFFFFF80000000000
00000FFFFFF80000000000
00000FFFFFF80000000000
00000003FFF80000000000
00000003FFF80000000000
00000003FFF80000000000
00000003FFF80000000000
00000003FFF80000000000
00000003FFF80000000000
00000003FFF80000000000
00000003FFF80000000000
00000003FFF80000000000
00000003FFF80000000000
00000003FFF80000000000
00000003FFF80000000000
00000003FFF80000000000
00000003FFF80000000000
00000003FFF80000000000
003FFFFFFFFFFFFF800000
003FFFFFFFFFFFFF800000
003FFFFFFFFFFFFF800000
003FFFFFFFFFFFFF800000
003FFFFFFFFFFFFF800000
0000000000000000000000
0000000000000000000000
0000000000000000000000
0000000000000000000000
0000000000000000000000
0000000000000000000000
0000000000000000000000
0000000000000000000000
0000000000000000000000
0000000000000000000000
ENDCHAR
STARTCHAR U+00ED
ENCODING 237
SWIDTH 1000 0
BBX 85 50 0 -10
DWIDTH 85 0
BITMAP
0000000000000000000000
0000000000000000000000
0000000000000000000000
0000000000000000000000
0000000000000000000000
00000003FFFFFE00000000
00000003FFFFFE00000000
00000003FFFFFE00000000
00000003FFFFFE00000000
00000003FFFFFE00000000
003FFFFFE0000000000000
003FFFFFE0000000000000
003FFFFFE0000000000000
003FFFFFE0000000000000
003FFFFFE0000000000000
00000FFFFFF80000000000
00000FFFFFF80000000000
00000FFFFFF80000000000
00000FFFFFF80000000000
00000FFFFFF80000000000
00000003FFF80000000000
00000003FFF80000000000
00000003FFF80000000000
00000003FFF80000000000
00000003FFF80000000000
00000003FFF80000000000
00000003FFF80000000000
00000003FFF80000000000
00000003FFF80000000000
00000003FFF80000000000
00000003FFF80000000000
00000003FFF80000000000
00000003FFF80000000000
00000003FFF80000000000
00000003FFF80000000000
003FFFFFFFFFFFFF800000
003FFFFFFFFFFFFF800000
003FFFFFFFFFFFFF800000
003FFFFFFFFFFFFF800000
003FFFFFFFFFFFFF800000
0000000000000000000000
0000000000000000000000
0000000000000000000000
0000000000000000000000
0000000000000000000000
0000000000000000000000
0000000000000000000000
0000000000000000000000
0000000000000000000000
0000000000000000000000
ENDCHAR
STARTCHAR U+00EC
ENCODING 236
SWIDTH 1000 0
BBX 85 50 0 -10
DWIDTH 85 0
BITMAP
0000000000000000000000
0000000000000000000000
0000000000000000000000
0000000000000000000000
0000000000000000000000
003FFFFFE0000000000000
003FFFFFE0000000000000
003FFFFFE0000000000000
003FFFFFE0000000000000
003FFFFFE0000000000000
00000003FFFFFE00000000
00000003FFFFFE00000000
00000003FFFFFE00000000
00000003FFFFFE00000000
00000003FFFFFE00000000
00000FFFFFF80000000000
00000FFFFFF80000000000
00000FFFFFF80000000000
00000FFFFFF80000000000
00000FFFFFF80000000000
00000003FFF80000000000
00000003FFF80000000000
00000003FFF80000000000
00000003FFF80000000000
00000003FFF80000000000
00000003FFF80000000000
00000003FFF80000000000
00000003FFF80000000000
00000003FFF80000000000
00000003FFF80000000000
00000003FFF80000000000
00000003FFF80000000000
00000003FFF80000000000
00000003FFF80000000000
00000003FFF80000000000
003FFFFFFFFFFFFF800000
003FFFFFFFFFFFFF800000
003FFFFFFFFFFFFF800000
003FFFFFFFFFFFFF800000
003FFFFFFFFFFFFF800000
0000000000000000000000
0000000000000000000000
0000000000000000000000
0000000000000000000000
0000000000000000000000
0000000000000000000000
0000000000000000000000
0000000000000000000000
0000000000000000000000
0000000000000000000000
ENDCHAR
STARTCHAR U+00EB
ENCODING 235
SWIDTH 1000 0
BBX 85 50 0 -10
DWIDTH 85 0
BITMAP
0000000000000000000000
0000000000000000000000
0000000000000000000000
0000000000000000000000
0000000000000000000000
003FFF8000003FFF800000
003FFF8000003FFF800000
003FFF8000003FFF800000
003FFF8000003FFF800000
003FFF8000003FFF800000
0000000000000000000000
0000000000000000000000
0000000000000000000000
0000000000000000000000
0000000000000000000000
003FFFFFFFFFFFFF800000
003FFFFFFFFFFFFF800000
003FFFFFFFFFFFFF800000
003FFFFFFFFFFFFF800000
003FFFFFFFFFFFFF800000
FFFE00000000000FFFE000
FFFE00000000000FFFE000
FFFE00000000000FFFE000
FFFE00000000000FFFE000
FFFE00000000000FFFE000
FFFFFFFFFFFFFFFFFFE000
FFFFFFFFFFFFFFFFFFE000
FFFFFFFFFFFFFFFFFFE000
FFFFFFFFFFFFFFFFFFE000
FFFFFFFFFFFFFFFFFFE000
FFFE000000000000000000
FFFE000000000000000000
FFFE000000000000000000
FFFE000000000000000000
FFFE000000000000000000
003FFFFFFFFFFFFF800000
003FFFFFFFFFFFFF800000
003FFFFFFFFFFFFF800000
003FFFFFFFFFFFFF800000
003FFFFFFFFFFFFF800000
0000000000000000000000
0000000000000000000000
0000000000000000000000
0000000000000000000000
0000000000000000000000
0000000000000000000000
0000000000000000000000
0000000000000000000000
0000000000000000000000
0000000000000000000000
ENDCHAR
STARTCHAR U+00EA
ENCODING 234
SWIDTH 1000 0
BBX 85 50 0 -10
DWIDTH 85 0
BITMAP
00000FFFFFFFFE00000000
00000FFFFFFFFE00000000
00000FFFFFFFFE00000000
00000FFFFFFFFE00000000
00000FFFFFFFFE00000000
003FFF8000003FFF800000
003FFF8000003FFF800000
003FFF8000003FFF800000
003FFF8000003FFF800000
003FFF8000003FFF800000
0000000000000000000000
0000000000000000000000
0000000000000000000000
0000000000000000000000
0000000000000000000000
003FFFFFFFFFFFFF800000
003FFFFFFFFFFFFF800000
003FFFFFFFFFFFFF800000
003FFFFFFFFFFFFF800000
003FFFFFFFFFFFFF800000
FFFE00000000000FFFE000
FFFE00000000000FFFE000
FFFE00000000000FFFE000
FFFE00000000000FFFE000
FFFE00000000000FFFE000
FFFFFFFFFFFFFFFFFFE000
FFFFFFFFFFFFFFFFFFE000
FFFFFFFFFFFFFFFFFFE000
FFFFFFFFFFFFFFFFFFE000
FFFFFFFFFFFFFFFFFFE000
FFFE000000000000000000
FFFE000000000000000000
FFFE000000000000000000
FFFE000000000000000000
FFFE000000000000000000
003FFFFFFFFFFFFF800000
003FFFFFFFFFFFFF800000
003FFFFFFFFFFFFF800000
003FFFFFFFFFFFFF800000
003FFFFFFFFFFFFF800000
0000000000000000000000
0000000000000000000000
0000000000000000000000
0000000000000000000000
0000000000000000000000
0000000000000000000000
0000000000000000000000
0000000000000000000000
0000000000000000000000
0000000000000000000000
ENDCHAR
STARTCHAR U+00E9
ENCODING 233
SWIDTH 1000 0
BBX 85 50 0 -10
DWIDTH 85 0
BITMAP
0000000000000000000000
0000000000000000000000
0000000000000000000000
0000000000000000000000
0000000000000000000000
00000003FFFFFE00000000
00000003FFFFFE00000000
00000003FFFFFE00000000
00000003FFFFFE00000000
00000003FFFFFE00000000
003FFFFFE0000000000000
003FFFFFE0000000000000
003FFFFFE0000000000000
003FFFFFE0000000000000
003FFFFFE0000000000000
003FFFFFFFFFFFFF800000
003FFFFFFFFFFFFF800000
003FFFFFFFFFFFFF800000
003FFFFFFFFFFFFF800000
003FFFFFFFFFFFFF800000
FFFE00000000000FFFE000
FFFE00000000000FFFE000
FFFE00000000000FFFE000
FFFE00000000000FFFE000
FFFE00000000000FFFE000
FFFFFFFFFFFFFFFFFFE000
FFFFFFFFFFFFFFFFFFE000
FFFFFFFFFFFFFFFFFFE000
FFFFFFFFFFFFFFFFFFE000
FFFFFFFFFFFFFFFFFFE000
FFFE000000000000000000
FFFE000000000000000000
FFFE000000000000000000
FFFE000000000000000000
FFFE000000000000000000
003FFFFFFFFFFFFF800000
003FFFFFFFFFFFFF800000
003FFFFFFFFFFFFF800000
003FFFFFFFFFFFFF800000
003FFFFFFFFFFFFF800000
0000000000000000000000
0000000000000000000000
0000000000000000000000
0000000000000000000000
0000000000000000000000
0000000000000000000000
0000000000000000000000
0000000000000000000000
0000000000000000000000
0000000000000000000000
ENDCHAR
STARTCHAR U+00E8
ENCODING 232
SWIDTH 1000 0
BBX 85 50 0 -10
DWIDTH 85 0
BITMAP
0000000000000000000000
0000000000000000000000
0000000000000000000000
0000000000000000000000
0000000000000000000000
00000FFFFFF80000000000
00000FFFFFF80000000000
00000FFFFFF80000000000
00000FFFFFF80000000000
00000FFFFFF80000000000
0000000000FFFFFF800000
0000000000FFFFFF800000
0000000000FFFFFF800000
0000000000FFFFFF800000
0000000000FFFFFF800000
003FFFFFFFFFFFFF800000
003FFFFFFFFFFFFF800000
003FFFFFFFFFFFFF800000
003FFFFFFFFFFFFF800000
003FFFFFFFFFFFFF800000
FFFE00000000000FFFE000
FFFE00000000000FFFE000
FFFE00000000000FFFE000
FFFE00000000000FFFE000
FFFE00000000000FFFE000
FFFFFFFFFFFFFFFFFFE000
FFFFFFFFFFFFFFFFFFE000
FFFFFFFFFFFFFFFFFFE000
FFFFFFFFFFFFFFFFFFE000
FFFFFFFFFFFFFFFFFFE000
FFFE000000000000000000
FFFE000000000000000000
FFFE000000000000000000
FFFE000000000000000000
FFFE000000000000000000
003FFFFFFFFFFFFF800000
003FFFFFFFFFFFFF800000
003FFFFFFFFFFFFF800000
003FFFFFFFFFFFFF800000
003FFFFFFFFFFFFF800000
0000000000000000000000
0000000000000000000000
0000000000000000000000
0000000000000000000000
0000000000000000000000
0000000000000000000000
0000000000000000000000
0000000000000000000000
0000000000000000000000
0000000000000000000000
ENDCHAR
STARTCHAR U+00E7
ENCODING 231
SWIDTH 1000 0
BBX 85 50 0 -10
DWIDTH 85 0
BITMAP
0000000000000000000000
0000000000000000000000
0000000000000000000000
0000000000000000000000
0000000000000000000000
0000000000000000000000
0000000000000000000000
0000000000000000000000
0000000000000000000000
0000000000000000000000
0000000000000000000000
0000000000000000000000
0000000000000000000000
0000000000000000000000
0000000000000000000000
003FFFFFFFFFFFFF800000
003FFFFFFFFFFFFF800000
003FFFFFFFFFFFFF800000
003FFFFFFFFFFFFF800000
003FFFFFFFFFFFFF800000
FFFE00000000000FFFE000
FFFE00000000000FFFE000
FFFE00000000000FFFE000
FFFE00000000000FFFE000
FFFE00000000000FFFE000
FFFE000000000000000000
FFFE000000000000000000
FFFE000000000000000000
FFFE000000000000000000
FFFE000000000000000000
FFFE00000000000FFFE000
FFFE00000000000FFFE000
FFFE00000000000FFFE000
FFFE00000000000FFFE000
FFFE00000000000FFFE000
003FFFFFFFFFFFFF800000
003FFFFFFFFFFFFF800000
003FFFFFFFFFFFFF800000
003FFFFFFFFFFFFF800000
003FFFFFFFFFFFFF800000
0000000000FFFE00000000
0000000000FFFE00000000
0000000000FFFE00000000
0000000000FFFE00000000
0000000000FFFE00000000
00000FFFFFFFFE00000000
00000FFFFFFFFE00000000
00000FFFFFFFFE00000000
00000FFFFFFFFE00000000
00000FFFFFFFFE00000000
ENDCHAR
STARTCHAR U+00E6
ENCODING 230
SWIDTH 1000 0
BBX 85 50 0 -10
DWIDTH 85 0
BITMAP
0000000000000000000000
0000000000000000000000
0000000000000000000000
0000000000000000000000
0000000000000000000000
0000000000000000000000
0000000000000000000000
0000000000000000000000
0000000000000000000000
0000000000000000000000
0000000000000000000000
0000000000000000000000
0000000000000000000000
0000000000000000000000
0000000000000000000000
003FFFFFE0FFFFFF800000
003FFFFFE0FFFFFF800000
003FFFFFE0FFFFFF800000
003FFFFFE0FFFFFF800000
003FFFFFE0FFFFFF800000
00000003FFF8000FFFE000
00000003FFF8000FFFE000
00000003FFF8000FFFE000
00000003FFF8000FFFE000
00000003FFF8000FFFE000
003FFFFFFFFFFFFFFFE000
003FFFFFFFFFFFFFFFE000
003FFFFFFFFFFFFFFFE000
003FFFFFFFFFFFFFFFE000
003FFFFFFFFFFFFFFFE000
FFFE0003FFF80000000000
FFFE0003FFF80000000000
FFFE0003FFF80000000000
FFFE0003FFF80000000000
FFFE0003FFF80000000000
003FFFFFFFFFFFFFFFE000
003FFFFFFFFFFFFFFFE000
003FFFFFFFFFFFFFFFE000
003FFFFFFFFFFFFFFFE000
003FFFFFFFFFFFFFFFE000
0000000000000000000000
0000000000000000000000
0000000000000000000000
0000000000000000000000
0000000000000000000000
0000000000000000000000
0000000000000000000000
0000000000000000000000
0000000000000000000000
0000000000000000000000
ENDCHAR
STARTCHAR U+00E5
ENCODING 229
SWIDTH 1000 0
BBX 85 50 0 -10
DWIDTH 85 0
BITMAP
00000FFFFFFFFE00000000
00000FFFFFFFFE00000000
00000FFFFFFFFE00000000
00000FFFFFFFFE00000000
00000FFFFFFFFE00000000
003FFF8000003FFF800000
003FFF8000003FFF800000
003FFF8000003FFF800000
003FFF8000003FFF800000
003FFF8000003FFF800000
00000FFFFFFFFE00000000
00000FFFFFFFFE00000000
00000FFFFFFFFE00000000
00000FFFFFFFFE00000000
00000FFFFFFFFE00000000
003FFFFFFFFFFFFF800000
003FFFFFFFFFFFFF800000
003FFFFFFFFFFFFF800000
003FFFFFFFFFFFFF800000
003FFFFFFFFFFFFF800000
000000000000000FFFE000
000000000000000FFFE000
000000000000000FFFE000
000000000000000FFFE000
000000000000000FFFE000
003FFFFFFFFFFFFFFFE000
003FFFFFFFFFFFFFFFE000
003FFFFFFFFFFFFFFFE000
003FFFFFFFFFFFFFFFE000
003FFFFFFFFFFFFFFFE000
FFFE000000003FFFFFE000
FFFE000000003FFFFFE000
FFFE000000003FFFFFE000
FFFE000000003FFFFFE000
FFFE000000003FFFFFE000
003FFFFFFFFFFE0FFFE000
003FFFFFFFFFFE0FFFE000
003FFFFFFFFFFE0FFFE000
003FFFFFFFFFFE0FFFE000
003FFFFFFFFFFE0FFFE000
0000000000000000000000
0000000000000000000000
0000000000000000000000
0000000000000000000000
0000000000000000000000
0000000000000000000000
0000000000000000000000
0000000000000000000000
0000000000000000000000
0000000000000000000000
ENDCHAR
STARTCHAR U+00E4
ENCODING 228
SWIDTH 1000 0
BBX 85 50 0 -10
DWIDTH 85 0
BITMAP
0000000000000000000000
0000000000000000000000
0000000000000000000000
0000000000000000000000
0000000000000000000000
003FFF8000003FFF800000
003FFF8000003FFF800000
003FFF8000003FFF800000
003FFF8000003FFF800000
003FFF8000003FFF800000
0000000000000000000000
0000000000000000000000
0000000000000000000000
0000000000000000000000
0000000000000000000000
003FFFFFFFFFFFFF800000
003FFFFFFFFFFFFF800000
003FFFFFFFFFFFFF800000
003FFFFFFFFFFFFF800000
003FFFFFFFFFFFFF800000
000000000000000FFFE000
000000000000000FFFE000
000000000000000FFFE000
000000000000000FFFE000
000000000000000FFFE000
003FFFFFFFFFFFFFFFE000
003FFFFFFFFFFFFFFFE000
003FFFFFFFFFFFFFFFE000
003FFFFFFFFFFFFFFFE000
003FFFFFFFFFFFFFFFE000
FFFE000000003FFFFFE000
FFFE000000003FFFFFE000
FFFE000000003FFFFFE000
FFFE000000003FFFFFE000
FFFE000000003FFFFFE000
003FFFFFFFFFFE0FFFE000
003FFFFFFFFFFE0FFFE000
003FFFFFFFFFFE0FFFE000
003FFFFFFFFFFE0FFFE000
003FFFFFFFFFFE0FFFE000
0000000000000000000000
0000000000000000000000
0000000000000000000000
0000000000000000000000
0000000000000000000000
0000000000000000000000
0000000000000000000000
0000000000000000000000
0000000000000000000000
0000000000000000000000
ENDCHAR
STARTCHAR U+00E3
ENCODING 227
SWIDTH 1000 0
BBX 85 50 0 -10
DWIDTH 85 0
BITMAP
00000FFFFFF8000FFFE000
00000FFFFFF8000FFFE000
00000FFFFFF8000FFFE000
00000FFFFFF8000FFFE000
00000FFFFFF8000FFFE000
003FFF8000FFFFFF800000
003FFF8000FFFFFF800000
003FFF8000FFFFFF800000
003FFF8000FFFFFF800000
003FFF8000FFFFFF800000
0000000000000000000000
0000000000000000000000
0000000000000000000000
0000000000000000000000
0000000000000000000000
003FFFFFFFFFFFFF800000
003FFFFFFFFFFFFF800000
003FFFFFFFFFFFFF800000
003FFFFFFFFFFFFF800000
003FFFFFFFFFFFFF800000
000000000000000FFFE000
000000000000000FFFE000
000000000000000FFFE000
000000000000000FFFE000
000000000000000FFFE000
003FFFFFFFFFFFFFFFE000
003FFFFFFFFFFFFFFFE000
003FFFFFFFFFFFFFFFE000
003FFFFFFFFFFFFFFFE000
003FFFFFFFFFFFFFFFE000
FFFE000000003FFFFFE000
FFFE000000003FFFFFE000
FFFE000000003FFFFFE000
FFFE000000003FFFFFE000
FFFE000000003FFFFFE000
003FFFFFFFFFFE0FFFE000
003FFFFFFFFFFE0FFFE000
003FFFFFFFFFFE0FFFE000
003FFFFFFFFFFE0FFFE000
003FFFFFFFFFFE0FFFE000
0000000000000000000000
0000000000000000000000
0000000000000000000000
0000000000000000000000
0000000000000000000000
0000000000000000000000
0000000000000000000000
0000000000000000000000
0000000000000000000000
0000000000000000000000
ENDCHAR
STARTCHAR U+00E2
ENCODING 226
SWIDTH 1000 0
BBX 85 50 0 -10
DWIDTH 85 0
BITMAP
00000FFFFFFFFE00000000
00000FFFFFFFFE00000000
00000FFFFFFFFE00000000
00000FFFFFFFFE00000000
00000FFFFFFFFE00000000
003FFF8000003FFF800000
003FFF8000003FFF800000
003FFF8000003FFF800000
003FFF8000003FFF800000
003FFF8000003FFF800000
0000000000000000000000
0000000000000000000000
0000000000000000000000
0000000000000000000000
0000000000000000000000
003FFFFFFFFFFFFF800000
003FFFFFFFFFFFFF800000
003FFFFFFFFFFFFF800000
003FFFFFFFFFFFFF800000
003FFFFFFFFFFFFF800000
000000000000000FFFE000
000000000000000FFFE000
000000000000000FFFE000
000000000000000FFFE000
000000000000000FFFE000
003FFFFFFFFFFFFFFFE000
003FFFFFFFFFFFFFFFE000
003FFFFFFFFFFFFFFFE000
003FFFFFFFFFFFFFFFE000
003FFFFFFFFFFFFFFFE000
FFFE000000003FFFFFE000
FFFE000000003FFFFFE000
FFFE000000003FFFFFE000
FFFE000000003FFFFFE000
FFFE000000003FFFFFE000
003FFFFFFFFFFE0FFFE000
003FFFFFFFFFFE0FFFE000
003FFFFFFFFFFE0FFFE000
003FFFFFFFFFFE0FFFE000
003FFFFFFFFFFE0FFFE000
0000000000000000000000
0000000000000000000000
0000000000000000000000
0000000000000000000000
0000000000000000000000
0000000000000000000000
0000000000000000000000
0000000000000000000000
0000000000000000000000
0000000000000000000000
ENDCHAR
STARTCHAR U+00E1
ENCODING 225
SWIDTH 1000 0
BBX 85 50 0 -10
DWIDTH 85 0
BITMAP
0000000000000000000000
0000000000000000000000
0000000000000000000000
0000000000000000000000
0000000000000000000000
00000003FFFFFE00000000
00000003FFFFFE00000000
00000003FFFFFE00000000
00000003FFFFFE00000000
00000003FFFFFE00000000
003FFFFFE0000000000000
003FFFFFE0000000000000
003FFFFFE0000000000000
003FFFFFE0000000000000
003FFFFFE0000000000000
003FFFFFFFFFFFFF800000
003FFFFFFFFFFFFF800000
003FFFFFFFFFFFFF800000
003FFFFFFFFFFFFF800000
003FFFFFFFFFFFFF800000
000000000000000FFFE000
000000000000000FFFE000
000000000000000FFFE000
000000000000000FFFE000
000000000000000FFFE000
003FFFFFFFFFFFFFFFE000
003FFFFFFFFFFFFFFFE000
003FFFFFFFFFFFFFFFE000
003FFFFFFFFFFFFFFFE000
003FFFFFFFFFFFFFFFE000
FFFE000000003FFFFFE000
FFFE000000003FFFFFE000
FFFE000000003FFFFFE000
FFFE000000003FFFFFE000
FFFE000000003FFFFFE000
003FFFFFFFFFFE0FFFE000
003FFFFFFFFFFE0FFFE000
003FFFFFFFFFFE0FFFE000
003FFFFFFFFFFE0FFFE000
003FFFFFFFFFFE0FFFE000
0000000000000000000000
0000000000000000000000
0000000000000000000000
0000000000000000000000
0000000000000000000000
0000000000000000000000
0000000000000000000000
0000000000000000000000
0000000000000000000000
0000000000000000000000
ENDCHAR
STARTCHAR U+00E0
ENCODING 224
SWIDTH 1000 0
BBX 85 50 0 -10
DWIDTH 85 0
BITMAP
0000000000000000000000
0000000000000000000000
0000000000000000000000
0000000000000000000000
0000000000000000000000
00000FFFFFF80000000000
00000FFFFFF80000000000
00000FFFFFF80000000000
00000FFFFFF80000000000
00000FFFFFF80000000000
0000000000FFFFFF800000
0000000000FFFFFF800000
0000000000FFFFFF800000
0000000000FFFFFF800000
0000000000FFFFFF800000
003FFFFFFFFFFFFF800000
003FFFFFFFFFFFFF800000
003FFFFFFFFFFFFF800000
003FFFFFFFFFFFFF800000
003FFFFFFFFFFFFF800000
000000000000000FFFE000
000000000000000FFFE000
000000000000000FFFE000
000000000000000FFFE000
000000000000000FFFE000
003FFFFFFFFFFFFFFFE000
003FFFFFFFFFFFFFFFE000
003FFFFFFFFFFFFFFFE000
003FFFFFFFFFFFFFFFE000
003FFFFFFFFFFFFFFFE000
FFFE000000003FFFFFE000
FFFE000000003FFFFFE000
FFFE000000003FFFFFE000
FFFE000000003FFFFFE000
FFFE000000003FFFFFE000
003FFFFFFFFFFE0FFFE000
003FFFFFFFFFFE0FFFE000
003FFFFFFFFFFE0FFFE000
003FFFFFFFFFFE0FFFE000
003FFFFFFFFFFE0FFFE000
0000000000000000000000
0000000000000000000000
0000000000000000000000
0000000000000000000000
0000000000000000000000
0000000000000000000000
0000000000000000000000
0000000000000000000000
0000000000000000000000
0000000000000000000000
ENDCHAR
STARTCHAR U+00DF
ENCODING 223
SWIDTH 1000 0
BBX 85 50 0 -10
DWIDTH 85 0
BITMAP
0000000000000000000000
0000000000000000000000
0000000000000000000000
0000000000000000000000
0000000000000000000000
00000FFFFFFFFE00000000
00000FFFFFFFFE00000000
00000FFFFFFFFE00000000
00000FFFFFFFFE00000000
00000FFFFFFFFE00000000
003FFF8000003FFF800000
003FFF8000003FFF800000
003FFF8000003FFF800000
003FFF8000003FFF800000
003FFF8000003FFF800000
FFFE000000003FFF800000
FFFE000000003FFF800000
FFFE000000003FFF800000
FFFE000000003FFF800000
FFFE000000003FFF800000
FFFE0FFFFFFFFE00000000
FFFE0FFFFFFFFE00000000
FFFE0FFFFFFFFE00000000
FFFE0FFFFFFFFE00000000
FFFE0FFFFFFFFE00000000
FFFE000000003FFF800000
FFFE000000003FFF800000
FFFE000000003FFF800000
FFFE000000003FFF800000
FFFE000000003FFF800000
FFFE0FFFE000000FFFE000
FFFE0FFFE000000FFFE000
FFFE0FFFE000000FFFE000
FFFE0FFFE000000FFFE000
FFFE0FFFE000000FFFE000
FFFE0003FFFFFFFF800000
FFFE0003FFFFFFFF800000
FFFE0003FFFFFFFF800000
FFFE0003FFFFFFFF800000
FFFE0003FFFFFFFF800000
FFFE000000000000000000
FFFE000000000000000000
FFFE000000000000000000
FFFE000000000000000000
FFFE000000000000000000
0000000000000000000000
0000000000000000000000
0000000000000000000000
0000000000000000000000
0000000000000000000000
ENDCHAR
STARTCHAR U+00DE
ENCODING 222
SWIDTH 1000 0
BBX 85 50 0 -10
DWIDTH 85 0
BITMAP
0000000000000000000000
0000000000000000000000
0000000000000000000000
0000000000000000000000
0000000000000000000000
FFFFFFFFE0000000000000
FFFFFFFFE0000000000000
FFFFFFFFE0000000000000
FFFFFFFFE0000000000000
FFFFFFFFE0000000000000
FFFE0003FFF80000000000
FFFE0003FFF80000000000
FFFE0003FFF80000000000
FFFE0003FFF80000000000
FFFE0003FFF80000000000
FFFE0003FFF80000000000
FFFE0003FFF80000000000
FFFE0003FFF80000000000
FFFE0003FFF80000000000
FFFE0003FFF80000000000
FFFE0003FFF80000000000
FFFE0003FFF80000000000
FFFE0003FFF80000000000
FFFE0003FFF80000000000
FFFE0003FFF80000000000
FFFFFFFFFFFFFFFFFFE000
FFFFFFFFFFFFFFFFFFE000
FFFFFFFFFFFFFFFFFFE000
FFFFFFFFFFFFFFFFFFE000
FFFFFFFFFFFFFFFFFFE000
00000003FFF80000000000
00000003FFF80000000000
00000003FFF80000000000
00000003FFF80000000000
00000003FFF80000000000
00000003FFFFFFFF800000
00000003FFFFFFFF800000
00000003FFFFFFFF800000
00000003FFFFFFFF800000
00000003FFFFFFFF800000
00000003FFF80000000000
00000003FFF80000000000
00000003FFF80000000000
00000003FFF80000000000
00000003FFF80000000000
00000003FFFFFFFFFFE000
00000003FFFFFFFFFFE000
00000003FFFFFFFFFFE000
00000003FFFFFFFFFFE000
00000003FFFFFFFFFFE000
ENDCHAR
STARTCHAR U+0178
ENCODING 376
SWIDTH 1000 0
BBX 85 50 0 -10
DWIDTH 85 0
BITMAP
003FFF8000003FFF800000
003FFF8000003FFF800000
003FFF8000003FFF800000
003FFF8000003FFF800000
003FFF8000003FFF800000
0000000000000000000000
0000000000000000000000
0000000000000000000000
0000000000000000000000
0000000000000000000000
FFFE00000000000FFFE000
FFFE00000000000FFFE000
FFFE00000000000FFFE000
FFFE00000000000FFFE000
FFFE00000000000FFFE000
003FFF8000003FFF800000
003FFF8000003FFF800000
003FFF8000003FFF800000
003FFF8000003FFF800000
003FFF8000003FFF800000
00000FFFE0FFFE00000000
00000FFFE0FFFE00000000
00000FFFE0FFFE00000000
00000FFFE0FFFE00000000
00000FFFE0FFFE00000000
00000003FFF80000000000
00000003FFF80000000000
00000003FFF80000000000
00000003FFF80000000000
00000003FFF80000000000
00000003FFF80000000000
00000003FFF80000000000
00000003FFF80000000000
00000003FFF80000000000
00000003FFF80000000000
00000003FFF80000000000
00000003FFF80000000000
00000003FFF80000000000
00000003FFF80000000000
00000003FFF80000000000
0000000000000000000000
0000000000000000000000
0000000000000000000000
0000000000000000000000
0000000000000000000000
0000000000000000000000
0000000000000000000000
0000000000000000000000
0000000000000000000000
0000000000000000000000
ENDCHAR
STARTCHAR U+00DC
ENCODING 220
SWIDTH 1000 0
BBX 85 50 0 -10
DWIDTH 85 0
BITMAP
003FFF8000003FFF800000
003FFF8000003FFF800000
003FFF8000003FFF800000
003FFF8000003FFF800000
003FFF8000003FFF800000
0000000000000000000000
0000000000000000000000
0000000000000000000000
0000000000000000000000
0000000000000000000000
FFFE00000000000FFFE000
FFFE00000000000FFFE000
FFFE00000000000FFFE000
FFFE00000000000FFFE000
FFFE00000000000FFFE000
FFFE00000000000FFFE000
FFFE00000000000FFFE000
FFFE00000000000FFFE000
FFFE00000000000FFFE000
FFFE00000000000FFFE000
FFFE00000000000FFFE000
FFFE00000000000FFFE000
FFFE00000000000FFFE000
FFFE00000000000FFFE000
FFFE00000000000FFFE000
FFFE00000000000FFFE000
FFFE00000000000FFFE000
FFFE00000000000FFFE000
FFFE00000000000FFFE000
FFFE00000000000FFFE000
FFFE00000000000FFFE000
FFFE00000000000FFFE000
FFFE00000000000FFFE000
FFFE00000000000FFFE000
FFFE00000000000FFFE000
003FFFFFFFFFFFFF800000
003FFFFFFFFFFFFF800000
003FFFFFFFFFFFFF800000
003FFFFFFFFFFFFF800000
003FFFFFFFFFFFFF800000
0000000000000000000000
0000000000000000000000
0000000000000000000000
0000000000000000000000
0000000000000000000000
0000000000000000000000
0000000000000000000000
0000000000000000000000
0000000000000000000000
0000000000000000000000
ENDCHAR
STARTCHAR U+00DB
ENCODING 219
SWIDTH 1000 0
BBX 85 50 0 -10
DWIDTH 85 0
BITMAP
00000003FFF80000000000
00000003FFF80000000000
00000003FFF80000000000
00000003FFF80000000000
00000003FFF80000000000
00000FFFE0FFFE00000000
00000FFFE0FFFE00000000
00000FFFE0FFFE00000000
00000FFFE0FFFE00000000
00000FFFE0FFFE00000000
FFFE00000000000FFFE000
FFFE00000000000FFFE000
FFFE00000000000FFFE000
FFFE00000000000FFFE000
FFFE00000000000FFFE000
FFFE00000000000FFFE000
FFFE00000000000FFFE000
FFFE00000000000FFFE000
FFFE00000000000FFFE000
FFFE00000000000FFFE000
FFFE00000000000FFFE000
FFFE00000000000FFFE000
FFFE00000000000FFFE000
FFFE00000000000FFFE000
FFFE00000000000FFFE000
FFFE00000000000FFFE000
FFFE00000000000FFFE000
FFFE00000000000FFFE000
FFFE00000000000FFFE000
FFFE00000000000FFFE000
FFFE00000000000FFFE000
FFFE00000000000FFFE000
FFFE00000000000FFFE000
FFFE00000000000FFFE000
FFFE00000000000FFFE000
003FFFFFFFFFFFFF800000
003FFFFFFFFFFFFF800000
003FFFFFFFFFFFFF800000
003FFFFFFFFFFFFF800000
003FFFFFFFFFFFFF800000
0000000000000000000000
0000000000000000000000
0000000000000000000000
0000000000000000000000
0000000000000000000000
0000000000000000000000
0000000000000000000000
0000000000000000000000
0000000000000000000000
0000000000000000000000
ENDCHAR
STARTCHAR U+00DA
ENCODING 218
SWIDTH 1000 0
BBX 85 50 0 -10
DWIDTH 85 0
BITMAP
0000000000FFFFFF800000
0000000000FFFFFF800000
0000000000FFFFFF800000
0000000000FFFFFF800000
0000000000FFFFFF800000
00000FFFFFF80000000000
00000FFFFFF80000000000
00000FFFFFF80000000000
00000FFFFFF80000000000
00000FFFFFF80000000000
FFFE00000000000FFFE000
FFFE00000000000FFFE000
FFFE00000000000FFFE000
FFFE00000000000FFFE000
FFFE00000000000FFFE000
FFFE00000000000FFFE000
FFFE00000000000FFFE000
FFFE00000000000FFFE000
FFFE00000000000FFFE000
FFFE00000000000FFFE000
FFFE00000000000FFFE000
FFFE00000000000FFFE000
FFFE00000000000FFFE000
FFFE00000000000FFFE000
FFFE00000000000FFFE000
FFFE00000000000FFFE000
FFFE00000000000FFFE000
FFFE00000000000FFFE000
FFFE00000000000FFFE000
FFFE00000000000FFFE000
FFFE00000000000FFFE000
FFFE00000000000FFFE000
FFFE00000000000FFFE000
FFFE00000000000FFFE000
FFFE00000000000FFFE000
003FFFFFFFFFFFFF800000
003FFFFFFFFFFFFF800000
003FFFFFFFFFFFFF800000
003FFFFFFFFFFFFF800000
003FFFFFFFFFFFFF800000
0000000000000000000000
0000000000000000000000
0000000000000000000000
0000000000000000000000
0000000000000000000000
0000000000000000000000
0000000000000000000000
0000000000000000000000
0000000000000000000000
0000000000000000000000
ENDCHAR
STARTCHAR U+00D9
ENCODING 217
SWIDTH 1000 0
BBX 85 50 0 -10
DWIDTH 85 0
BITMAP
003FFFFFE0000000000000
003FFFFFE0000000000000
003FFFFFE0000000000000
003FFFFFE0000000000000
003FFFFFE0000000000000
00000003FFFFFE00000000
00000003FFFFFE00000000
00000003FFFFFE00000000
00000003FFFFFE00000000
00000003FFFFFE00000000
FFFE00000000000FFFE000
FFFE00000000000FFFE000
FFFE00000000000FFFE000
FFFE00000000000FFFE000
FFFE00000000000FFFE000
FFFE00000000000FFFE000
FFFE00000000000FFFE000
FFFE00000000000FFFE000
FFFE00000000000FFFE000
FFFE00000000000FFFE000
FFFE00000000000FFFE000
FFFE00000000000FFFE000
FFFE00000000000FFFE000
FFFE00000000000FFFE000
FFFE00000000000FFFE000
FFFE00000000000FFFE000
FFFE00000000000FFFE000
FFFE00000000000FFFE000
FFFE00000000000FFFE000
FFFE00000000000FFFE000
FFFE00000000000FFFE000
FFFE00000000000FFFE000
FFFE00000000000FFFE000
FFFE00000000000FFFE000
FFFE00000000000FFFE000
003FFFFFFFFFFFFF800000
003FFFFFFFFFFFFF800000
003FFFFFFFFFFFFF800000
003FFFFFFFFFFFFF800000
003FFFFFFFFFFFFF800000
0000000000000000000000
0000000000000000000000
0000000000000000000000
0000000000000000000000
0000000000000000000000
0000000000000000000000
0000000000000000000000
0000000000000000000000
0000000000000000000000
0000000000000000000000
ENDCHAR
STARTCHAR U+00D8
ENCODING 216
SWIDTH 1000 0
BBX 85 50 0 -10
DWIDTH 85 0
BITMAP
000000000000000FFFE000
000000000000000FFFE000
000000000000000FFFE000
000000000000000FFFE000
000000000000000FFFE000
003FFFFFFFFFFFFF800000
003FFFFFFFFFFFFF800000
003FFFFFFFFFFFFF800000
003FFFFFFFFFFFFF800000
003FFFFFFFFFFFFF800000
FFFE000000003FFFFFE000
FFFE000000003FFFFFE000
FFFE000000003FFFFFE000
FFFE000000003FFFFFE000
FFFE000000003FFFFFE000
FFFE000000FFFE0FFFE000
FFFE000000FFFE0FFFE000
FFFE000000FFFE0FFFE000
FFFE000000FFFE0FFFE000
FFFE000000FFFE0FFFE000
FFFE0003FFF8000FFFE000
FFFE0003FFF8000FFFE000
FFFE0003FFF8000FFFE000
FFFE0003FFF8000FFFE000
FFFE0003FFF8000FFFE000
FFFE0FFFE000000FFFE000
FFFE0FFFE000000FFFE000
FFFE0FFFE000000FFFE000
FFFE0FFFE000000FFFE000
FFFE0FFFE000000FFFE000
FFFFFF800000000FFFE000
FFFFFF800000000FFFE000
FFFFFF800000000FFFE000
FFFFFF800000000FFFE000
FFFFFF800000000FFFE000
003FFFFFFFFFFFFF800000
003FFFFFFFFFFFFF800000
003FFFFFFFFFFFFF800000
003FFFFFFFFFFFFF800000
003FFFFFFFFFFFFF800000
FFFE000000000000000000
FFFE000000000000000000
FFFE000000000000000000
FFFE000000000000000000
FFFE000000000000000000
0000000000000000000000
0000000000000000000000
0000000000000000000000
0000000000000000000000
0000000000000000000000
ENDCHAR
STARTCHAR U+0152
ENCODING 338
SWIDTH 1000 0
BBX 85 50 0 -10
DWIDTH 85 0
BITMAP
0000000000000000000000
0000000000000000000000
0000000000000000000000
0000000000000000000000
0000000000000000000000
003FFFFFE0FFFFFFFFE000
003FFFFFE0FFFFFFFFE000
003FFFFFE0FFFFFFFFE000
003FFFFFE0FFFFFFFFE000
003FFFFFE0FFFFFFFFE000
FFFE0003FFF80000000000
FFFE0003FFF80000000000
FFFE0003FFF80000000000
FFFE0003FFF80000000000
FFFE0003FFF80000000000
FFFE0003FFF80000000000
FFFE0003FFF80000000000
FFFE0003FFF80000000000
FFFE0003FFF80000000000
FFFE0003FFF80000000000
FFFE0003FFFFFFFF800000
FFFE0003FFFFFFFF800000
FFFE0003FFFFFFFF800000
FFFE0003FFFFFFFF800000
FFFE0003FFFFFFFF800000
FFFE0003FFF80000000000
FFFE0003FFF80000000000
FFFE0003FFF80000000000
FFFE0003FFF80000000000
FFFE0003FFF80000000000
FFFE0003FFF80000000000
FFFE0003FFF80000000000
FFFE0003FFF80000000000
FFFE0003FFF80000000000
FFFE0003FFF80000000000
003FFFFFE0FFFFFFFFE000
003FFFFFE0FFFFFFFFE000
003FFFFFE0FFFFFFFFE000
003FFFFFE0FFFFFFFFE000
003FFFFFE0FFFFFFFFE000
0000000000000000000000
0000000000000000000000
0000000000000000000000
0000000000000000000000
0000000000000000000000
0000000000000000000000
0000000000000000000000
0000000000000000000000
0000000000000000000000
0000000000000000000000
ENDCHAR
STARTCHAR U+00D6
ENCODING 214
SWIDTH 1000 0
BBX 85 50 0 -10
DWIDTH 85 0
BITMAP
003FFF8000003FFF800000
003FFF8000003FFF800000
003FFF8000003FFF800000
003FFF8000003FFF800000
003FFF8000003FFF800000
0000000000000000000000
0000000000000000000000
0000000000000000000000
0000000000000000000000
0000000000000000000000
003FFFFFFFFFFFFF800000
003FFFFFFFFFFFFF800000
003FFFFFFFFFFFFF800000
003FFFFFFFFFFFFF800000
003FFFFFFFFFFFFF800000
FFFE00000000000FFFE000
FFFE00000000000FFFE000
FFFE00000000000FFFE000
FFFE00000000000FFFE000
FFFE00000000000FFFE000
FFFE00000000000FFFE000
FFFE00000000000FFFE000
FFFE00000000000FFFE000
FFFE00000000000FFFE000
FFFE00000000000FFFE000
FFFE00000000000FFFE000
FFFE00000000000FFFE000
FFFE00000000000FFFE000
FFFE00000000000FFFE000
FFFE00000000000FFFE000
FFFE00000000000FFFE000
FFFE00000000000FFFE000
FFFE00000000000FFFE000
FFFE00000000000FFFE000
FFFE00000000000FFFE000
003FFFFFFFFFFFFF800000
003FFFFFFFFFFFFF800000
003FFFFFFFFFFFFF800000
003FFFFFFFFFFFFF800000
003FFFFFFFFFFFFF800000
0000000000000000000000
0000000000000000000000
0000000000000000000000
0000000000000000000000
0000000000000000000000
0000000000000000000000
0000000000000000000000
0000000000000000000000
0000000000000000000000
0000000000000000000000
ENDCHAR
STARTCHAR U+00D5
ENCODING 213
SWIDTH 1000 0
BBX 85 50 0 -10
DWIDTH 85 0
BITMAP
003FFFFFE0003FFF800000
003FFFFFE0003FFF800000
003FFFFFE0003FFF800000
003FFFFFE0003FFF800000
003FFFFFE0003FFF800000
FFFE0003FFFFFE00000000
FFFE0003FFFFFE00000000
FFFE0003FFFFFE00000000
FFFE0003FFFFFE00000000
FFFE0003FFFFFE00000000
003FFFFFFFFFFFFF800000
003FFFFFFFFFFFFF800000
003FFFFFFFFFFFFF800000
003FFFFFFFFFFFFF800000
003FFFFFFFFFFFFF800000
FFFE00000000000FFFE000
FFFE00000000000FFFE000
FFFE00000000000FFFE000
FFFE00000000000FFFE000
FFFE00000000000FFFE000
FFFE00000000000FFFE000
FFFE00000000000FFFE000
FFFE00000000000FFFE000
FFFE00000000000FFFE000
FFFE00000000000FFFE000
FFFE00000000000FFFE000
FFFE00000000000FFFE000
FFFE00000000000FFFE000
FFFE00000000000FFFE000
FFFE00000000000FFFE000
FFFE00000000000FFFE000
FFFE00000000000FFFE000
FFFE00000000000FFFE000
FFFE00000000000FFFE000
FFFE00000000000FFFE000
003FFFFFFFFFFFFF800000
003FFFFFFFFFFFFF800000
003FFFFFFFFFFFFF800000
003FFFFFFFFFFFFF800000
003FFFFFFFFFFFFF800000
0000000000000000000000
0000000000000000000000
0000000000000000000000
0000000000000000000000
0000000000000000000000
0000000000000000000000
0000000000000000000000
0000000000000000000000
0000000000000000000000
0000000000000000000000
ENDCHAR
STARTCHAR U+00D4
ENCODING 212
SWIDTH 1000 0
BBX 85 50 0 -10
DWIDTH 85 0
BITMAP
00000FFFFFFFFE00000000
00000FFFFFFFFE00000000
00000FFFFFFFFE00000000
00000FFFFFFFFE00000000
00000FFFFFFFFE00000000
003FFF8000003FFF800000
003FFF8000003FFF800000
003FFF8000003FFF800000
003FFF8000003FFF800000
003FFF8000003FFF800000
003FFFFFFFFFFFFF800000
003FFFFFFFFFFFFF800000
003FFFFFFFFFFFFF800000
003FFFFFFFFFFFFF800000
003FFFFFFFFFFFFF800000
FFFE00000000000FFFE000
FFFE00000000000FFFE000
FFFE00000000000FFFE000
FFFE00000000000FFFE000
FFFE00000000000FFFE000
FFFE00000000000FFFE000
FFFE00000000000FFFE000
FFFE00000000000FFFE000
FFFE00000000000FFFE000
FFFE00000000000FFFE000
FFFE00000000000FFFE000
FFFE00000000000FFFE000
FFFE00000000000FFFE000
FFFE00000000000FFFE000
FFFE00000000000FFFE000
FFFE00000000000FFFE000
FFFE00000000000FFFE000
FFFE00000000000FFFE000
FFFE00000000000FFFE000
FFFE00000000000FFFE000
003FFFFFFFFFFFFF800000
003FFFFFFFFFFFFF800000
003FFFFFFFFFFFFF800000
003FFFFFFFFFFFFF800000
003FFFFFFFFFFFFF800000
0000000000000000000000
0000000000000000000000
0000000000000000000000
0000000000000000000000
0000000000000000000000
0000000000000000000000
0000000000000000000000
0000000000000000000000
0000000000000000000000
0000000000000000000000
ENDCHAR
STARTCHAR U+00D3
ENCODING 211
SWIDTH 1000 0
BBX 85 50 0 -10
DWIDTH 85 0
BITMAP
00000003FFFFFE00000000
00000003FFFFFE00000000
00000003FFFFFE00000000
00000003FFFFFE00000000
00000003FFFFFE00000000
003FFFFFE0000000000000
003FFFFFE0000000000000
003FFFFFE0000000000000
003FFFFFE0000000000000
003FFFFFE0000000000000
003FFFFFFFFFFFFF800000
003FFFFFFFFFFFFF800000
003FFFFFFFFFFFFF800000
003FFFFFFFFFFFFF800000
003FFFFFFFFFFFFF800000
FFFE00000000000FFFE000
FFFE00000000000FFFE000
FFFE00000000000FFFE000
FFFE00000000000FFFE000
FFFE00000000000FFFE000
FFFE00000000000FFFE000
FFFE00000000000FFFE000
FFFE00000000000FFFE000
FFFE00000000000FFFE000
FFFE00000000000FFFE000
FFFE00000000000FFFE000
FFFE00000000000FFFE000
FFFE00000000000FFFE000
FFFE00000000000FFFE000
FFFE00000000000FFFE000
FFFE00000000000FFFE000
FFFE00000000000FFFE000
FFFE00000000000FFFE000
FFFE00000000000FFFE000
FFFE00000000000FFFE000
003FFFFFFFFFFFFF800000
003FFFFFFFFFFFFF800000
003FFFFFFFFFFFFF800000
003FFFFFFFFFFFFF800000
003FFFFFFFFFFFFF800000
0000000000000000000000
0000000000000000000000
0000000000000000000000
0000000000000000000000
0000000000000000000000
0000000000000000000000
0000000000000000000000
0000000000000000000000
0000000000000000000000
0000000000000000000000
ENDCHAR
STARTCHAR U+00D2
ENCODING 210
SWIDTH 1000 0
BBX 85 50 0 -10
DWIDTH 85 0
BITMAP
00000FFFFFF80000000000
00000FFFFFF80000000000
00000FFFFFF80000000000
00000FFFFFF80000000000
00000FFFFFF80000000000
0000000000FFFFFF800000
0000000000FFFFFF800000
0000000000FFFFFF800000
0000000000FFFFFF800000
0000000000FFFFFF800000
003FFFFFFFFFFFFF800000
003FFFFFFFFFFFFF800000
003FFFFFFFFFFFFF800000
003FFFFFFFFFFFFF800000
003FFFFFFFFFFFFF800000
FFFE00000000000FFFE000
FFFE00000000000FFFE000
FFFE00000000000FFFE000
FFFE00000000000FFFE000
FFFE00000000000FFFE000
FFFE00000000000FFFE000
FFFE00000000000FFFE000
FFFE00000000000FFFE000
FFFE00000000000FFFE000
FFFE00000000000FFFE000
FFFE00000000000FFFE000
FFFE00000000000FFFE000
FFFE00000000000FFFE000
FFFE00000000000FFFE000
FFFE00000000000FFFE000
FFFE00000000000FFFE000
FFFE00000000000FFFE000
FFFE00000000000FFFE000
FFFE00000000000FFFE000
FFFE00000000000FFFE000
003FFFFFFFFFFFFF800000
003FFFFFFFFFFFFF800000
003FFFFFFFFFFFFF800000
003FFFFFFFFFFFFF800000
003FFFFFFFFFFFFF800000
0000000000000000000000
0000000000000000000000
0000000000000000000000
0000000000000000000000
0000000000000000000000
0000000000000000000000
0000000000000000000000
0000000000000000000000
0000000000000000000000
0000000000000000000000
ENDCHAR
STARTCHAR U+00D1
ENCODING 209
SWIDTH 1000 0
BBX 85 50 0 -10
DWIDTH 85 0
BITMAP
00000FFFFFF8000FFFE000
00000FFFFFF8000FFFE000
00000FFFFFF8000FFFE000
00000FFFFFF8000FFFE000
00000FFFFFF8000FFFE000
003FFF8000FFFFFF800000
003FFF8000FFFFFF800000
003FFF8000FFFFFF800000
003FFF8000FFFFFF800000
003FFF8000FFFFFF800000
FFFFFF800000000FFFE000
FFFFFF800000000FFFE000
FFFFFF800000000FFFE000
FFFFFF800000000FFFE000
FFFFFF800000000FFFE000
FFFE0FFFE000000FFFE000
FFFE0FFFE000000FFFE000
FFFE0FFFE000000FFFE000
FFFE0FFFE000000FFFE000
FFFE0FFFE000000FFFE000
FFFE0003FFF8000FFFE000
FFFE0003FFF8000FFFE000
FFFE0003FFF8000FFFE000
FFFE0003FFF8000FFFE000
FFFE0003FFF8000FFFE000
FFFE000000FFFE0FFFE000
FFFE000000FFFE0FFFE000
FFFE000000FFFE0FFFE000
FFFE000000FFFE0FFFE000
FFFE000000FFFE0FFFE000
FFFE000000003FFFFFE000
FFFE000000003FFFFFE000
FFFE000000003FFFFFE000
FFFE000000003FFFFFE000
FFFE000000003FFFFFE000
FFFE00000000000FFFE000
FFFE00000000000FFFE000
FFFE00000000000FFFE000
FFFE00000000000FFFE000
FFFE00000000000FFFE000
0000000000000000000000
0000000000000000000000
0000000000000000000000
0000000000000000000000
0000000000000000000000
0000000000000000000000
0000000000000000000000
0000000000000000000000
0000000000000000000000
0000000000000000000000
ENDCHAR
STARTCHAR U+00D0
ENCODING 208
SWIDTH 1000 0
BBX 85 50 0 -10
DWIDTH 85 0
BITMAP
0000000000000000000000
0000000000000000000000
0000000000000000000000
0000000000000000000000
0000000000000000000000
FFFFFFFFE0000000000000
FFFFFFFFE0000000000000
FFFFFFFFE0000000000000
FFFFFFFFE0000000000000
FFFFFFFFE0000000000000
FFFE0003FFF80000000000
FFFE0003FFF80000000000
FFFE0003FFF80000000000
FFFE0003FFF80000000000
FFFE0003FFF80000000000
FFFE0003FFF80000000000
FFFE0003FFF80000000000
FFFE0003FFF80000000000
FFFE0003FFF80000000000
FFFE0003FFF80000000000
FFFE0003FFF80000000000
FFFE0003FFF80000000000
FFFE0003FFF80000000000
FFFE0003FFF80000000000
FFFE0003FFF80000000000
FFFFFFFFE0FFFFFF800000
FFFFFFFFE0FFFFFF800000
FFFFFFFFE0FFFFFF800000
FFFFFFFFE0FFFFFF800000
FFFFFFFFE0FFFFFF800000
00000003FFF8000FFFE000
00000003FFF8000FFFE000
00000003FFF8000FFFE000
00000003FFF8000FFFE000
00000003FFF8000FFFE000
00000003FFF8000FFFE000
00000003FFF8000FFFE000
00000003FFF8000FFFE000
00000003FFF8000FFFE000
00000003FFF8000FFFE000
00000003FFF8000FFFE000
00000003FFF8000FFFE000
00000003FFF8000FFFE000
00000003FFF8000FFFE000
00000003FFF8000FFFE000
0000000000FFFFFF800000
0000000000FFFFFF800000
0000000000FFFFFF800000
0000000000FFFFFF800000
0000000000FFFFFF800000
ENDCHAR
STARTCHAR U+00CF
ENCODING 207
SWIDTH 1000 0
BBX 85 50 0 -10
DWIDTH 85 0
BITMAP
003FFF8000003FFF800000
003FFF8000003FFF800000
003FFF8000003FFF800000
003FFF8000003FFF800000
003FFF8000003FFF800000
0000000000000000000000
0000000000000000000000
0000000000000000000000
0000000000000000000000
0000000000000000000000
003FFFFFFFFFFFFF800000
003FFFFFFFFFFFFF800000
003FFFFFFFFFFFFF800000
003FFFFFFFFFFFFF800000
003FFFFFFFFFFFFF800000
00000003FFF80000000000
00000003FFF80000000000
00000003FFF80000000000
00000003FFF80000000000
00000003FFF80000000000
00000003FFF80000000000
00000003FFF80000000000
00000003FFF80000000000
00000003FFF80000000000
00000003FFF80000000000
00000003FFF80000000000
00000003FFF80000000000
00000003FFF80000000000
00000003FFF80000000000
00000003FFF80000000000
00000003FFF80000000000
00000003FFF80000000000
00000003FFF80000000000
00000003FFF80000000000
00000003FFF80000000000
003FFFFFFFFFFFFF800000
003FFFFFFFFFFFFF800000
003FFFFFFFFFFFFF800000
003FFFFFFFFFFFFF800000
003FFFFFFFFFFFFF800000
0000000000000000000000
0000000000000000000000
0000000000000000000000
0000000000000000000000
0000000000000000000000
0000000000000000000000
0000000000000000000000
0000000000000000000000
0000000000000000000000
0000000000000000000000
ENDCHAR
STARTCHAR U+00CE
ENCODING 206
SWIDTH 1000 0
BBX 85 50 0 -10
DWIDTH 85 0
BITMAP
00000FFFFFFFFE00000000
00000FFFFFFFFE00000000
00000FFFFFFFFE00000000
00000FFFFFFFFE00000000
00000FFFFFFFFE00000000
003FFF8000003FFF800000
003FFF8000003FFF800000
003FFF8000003FFF800000
003FFF8000003FFF800000
003FFF8000003FFF800000
003FFFFFFFFFFFFF800000
003FFFFFFFFFFFFF800000
003FFFFFFFFFFFFF800000
003FFFFFFFFFFFFF800000
003FFFFFFFFFFFFF800000
00000003FFF80000000000
00000003FFF80000000000
00000003FFF80000000000
00000003FFF80000000000
00000003FFF80000000000
00000003FFF80000000000
00000003FFF80000000000
00000003FFF80000000000
00000003FFF80000000000
00000003FFF80000000000
00000003FFF80000000000
00000003FFF80000000000
00000003FFF80000000000
00000003FFF80000000000
00000003FFF80000000000
00000003FFF80000000000
00000003FFF80000000000
00000003FFF80000000000
00000003FFF80000000000
00000003FFF80000000000
003FFFFFFFFFFFFF800000
003FFFFFFFFFFFFF800000
003FFFFFFFFFFFFF800000
003FFFFFFFFFFFFF800000
003FFFFFFFFFFFFF800000
0000000000000000000000
0000000000000000000000
0000000000000000000000
0000000000000000000000
0000000000000000000000
0000000000000000000000
0000000000000000000000
0000000000000000000000
0000000000000000000000
0000000000000000000000
ENDCHAR
STARTCHAR U+00CD
ENCODING 205
SWIDTH 1000 0
BBX 85 50 0 -10
DWIDTH 85 0
BITMAP
00000003FFFFFE00000000
00000003FFFFFE00000000
00000003FFFFFE00000000
00000003FFFFFE00000000
00000003FFFFFE00000000
003FFFFFE0000000000000
003FFFFFE0000000000000
003FFFFFE0000000000000
003FFFFFE0000000000000
003FFFFFE0000000000000
003FFFFFFFFFFFFF800000
003FFFFFFFFFFFFF800000
003FFFFFFFFFFFFF800000
003FFFFFFFFFFFFF800000
003FFFFFFFFFFFFF800000
00000003FFF80000000000
00000003FFF80000000000
00000003FFF80000000000
00000003FFF80000000000
00000003FFF80000000000
00000003FFF80000000000
00000003FFF80000000000
00000003FFF80000000000
00000003FFF80000000000
00000003FFF80000000000
00000003FFF80000000000
00000003FFF80000000000
00000003FFF80000000000
00000003FFF80000000000
00000003FFF80000000000
00000003FFF80000000000
00000003FFF80000000000
00000003FFF80000000000
00000003FFF80000000000
00000003FFF80000000000
003FFFFFFFFFFFFF800000
003FFFFFFFFFFFFF800000
003FFFFFFFFFFFFF800000
003FFFFFFFFFFFFF800000
003FFFFFFFFFFFFF800000
0000000000000000000000
0000000000000000000000
0000000000000000000000
0000000000000000000000
0000000000000000000000
0000000000000000000000
0000000000000000000000
0000000000000000000000
0000000000000000000000
0000000000000000000000
ENDCHAR
STARTCHAR U+00CC
ENCODING 204
SWIDTH 1000 0
BBX 85 50 0 -10
DWIDTH 85 0
BITMAP
00000FFFFFF80000000000
00000FFFFFF80000000000
00000FFFFFF80000000000
00000FFFFFF80000000000
00000FFFFFF80000000000
0000000000FFFFFF800000
0000000000FFFFFF800000
0000000000FFFFFF800000
0000000000FFFFFF800000
0000000000FFFFFF800000
003FFFFFFFFFFFFF800000
003FFFFFFFFFFFFF800000
003FFFFFFFFFFFFF800000
003FFFFFFFFFFFFF800000
003FFFFFFFFFFFFF800000
00000003FFF80000000000
00000003FFF80000000000
00000003FFF80000000000
00000003FFF80000000000
00000003FFF80000000000
00000003FFF80000000000
00000003FFF80000000000
00000003FFF80000000000
00000003FFF80000000000
00000003FFF80000000000
00000003FFF80000000000
00000003FFF80000000000
00000003FFF80000000000
00000003FFF80000000000
00000003FFF80000000000
00000003FFF80000000000
00000003FFF80000000000
00000003FFF80000000000
00000003FFF80000000000
00000003FFF80000000000
003FFFFFFFFFFFFF800000
003FFFFFFFFFFFFF800000
003FFFFFFFFFFFFF800000
003FFFFFFFFFFFFF800000
003FFFFFFFFFFFFF800000
0000000000000000000000
0000000000000000000000
0000000000000000000000
0000000000000000000000
0000000000000000000000
0000000000000000000000
0000000000000000000000
0000000000000000000000
0000000000000000000000
0000000000000000000000
ENDCHAR
STARTCHAR U+00CB
ENCODING 203
SWIDTH 1000 0
BBX 85 50 0 -10
DWIDTH 85 0
BITMAP
003FFF8000003FFF800000
003FFF8000003FFF800000
003FFF8000003FFF800000
003FFF8000003FFF800000
003FFF8000003FFF800000
0000000000000000000000
0000000000000000000000
0000000000000000000000
0000000000000000000000
0000000000000000000000
FFFFFFFFFFFFFFFFFFE000
FFFFFFFFFFFFFFFFFFE000
FFFFFFFFFFFFFFFFFFE000
FFFFFFFFFFFFFFFFFFE000
FFFFFFFFFFFFFFFFFFE000
FFFE000000000000000000
FFFE000000000000000000
FFFE000000000000000000
FFFE000000000000000000
FFFE000000000000000000
FFFFFFFFFFFFFE00000000
FFFFFFFFFFFFFE00000000
FFFFFFFFFFFFFE00000000
FFFFFFFFFFFFFE00000000
FFFFFFFFFFFFFE00000000
FFFE000000000000000000
FFFE000000000000000000
FFFE000000000000000000
FFFE000000000000000000
FFFE000000000000000000
FFFE000000000000000000
FFFE000000000000000000
FFFE000000000000000000
FFFE000000000000000000
FFFE000000000000000000
FFFFFFFFFFFFFFFFFFE000
FFFFFFFFFFFFFFFFFFE000
FFFFFFFFFFFFFFFFFFE000
FFFFFFFFFFFFFFFFFFE000
FFFFFFFFFFFFFFFFFFE000
0000000000000000000000
0000000000000000000000
0000000000000000000000
0000000000000000000000
0000000000000000000000
0000000000000000000000
0000000000000000000000
0000000000000000000000
0000000000000000000000
0000000000000000000000
ENDCHAR
STARTCHAR U+00CA
ENCODING 202
SWIDTH 1000 0
BBX 85 50 0 -10
DWIDTH 85 0
BITMAP
00000FFFFFFFFE00000000
00000FFFFFFFFE00000000
00000FFFFFFFFE00000000
00000FFFFFFFFE00000000
00000FFFFFFFFE00000000
003FFF8000003FFF800000
003FFF8000003FFF800000
003FFF8000003FFF800000
003FFF8000003FFF800000
003FFF8000003FFF800000
FFFFFFFFFFFFFFFFFFE000
FFFFFFFFFFFFFFFFFFE000
FFFFFFFFFFFFFFFFFFE000
FFFFFFFFFFFFFFFFFFE000
FFFFFFFFFFFFFFFFFFE000
FFFE000000000000000000
FFFE000000000000000000
FFFE000000000000000000
FFFE000000000000000000
FFFE000000000000000000
FFFFFFFFFFF80000000000
FFFFFFFFFFF80000000000
FFFFFFFFFFF80000000000
FFFFFFFFFFF80000000000
FFFFFFFFFFF80000000000
FFFE000000000000000000
FFFE000000000000000000
FFFE000000000000000000
FFFE000000000000000000
FFFE000000000000000000
FFFE000000000000000000
FFFE000000000000000000
FFFE000000000000000000
FFFE000000000000000000
FFFE000000000000000000
FFFFFFFFFFFFFFFFFFE000
FFFFFFFFFFFFFFFFFFE000
FFFFFFFFFFFFFFFFFFE000
FFFFFFFFFFFFFFFFFFE000
FFFFFFFFFFFFFFFFFFE000
0000000000000000000000
0000000000000000000000
0000000000000000000000
0000000000000000000000
0000000000000000000000
0000000000000000000000
0000000000000000000000
0000000000000000000000
0000000000000000000000
0000000000000000000000
ENDCHAR
STARTCHAR U+00C9
ENCODING 201
SWIDTH 1000 0
BBX 85 50 0 -10
DWIDTH 85 0
BITMAP
0000000000FFFFFF800000
0000000000FFFFFF800000
0000000000FFFFFF800000
0000000000FFFFFF800000
0000000000FFFFFF800000
00000FFFFFF80000000000
00000FFFFFF80000000000
00000FFFFFF80000000000
00000FFFFFF80000000000
00000FFFFFF80000000000
FFFFFFFFFFFFFFFFFFE000
FFFFFFFFFFFFFFFFFFE000
FFFFFFFFFFFFFFFFFFE000
FFFFFFFFFFFFFFFFFFE000
FFFFFFFFFFFFFFFFFFE000
FFFE000000000000000000
FFFE000000000000000000
FFFE000000000000000000
FFFE000000000000000000
FFFE000000000000000000
FFFFFFFFFFFFFE00000000
FFFFFFFFFFFFFE00000000
FFFFFFFFFFFFFE00000000
FFFFFFFFFFFFFE00000000
FFFFFFFFFFFFFE00000000
FFFE000000000000000000
FFFE000000000000000000
FFFE000000000000000000
FFFE000000000000000000
FFFE000000000000000000
FFFE000000000000000000
FFFE000000000000000000
FFFE000000000000000000
FFFE000000000000000000
FFFE000000000000000000
FFFFFFFFFFFFFFFFFFE000
FFFFFFFFFFFFFFFFFFE000
FFFFFFFFFFFFFFFFFFE000
FFFFFFFFFFFFFFFFFFE000
FFFFFFFFFFFFFFFFFFE000
0000000000000000000000
0000000000000000000000
0000000000000000000000
0000000000000000000000
0000000000000000000000
0000000000000000000000
0000000000000000000000
0000000000000000000000
0000000000000000000000
0000000000000000000000
ENDCHAR
STARTCHAR U+00C8
ENCODING 200
SWIDTH 1000 0
BBX 85 50 0 -10
DWIDTH 85 0
BITMAP
003FFFFFE0000000000000
003FFFFFE0000000000000
003FFFFFE0000000000000
003FFFFFE0000000000000
003FFFFFE0000000000000
00000003FFFFFE00000000
00000003FFFFFE00000000
00000003FFFFFE00000000
00000003FFFFFE00000000
00000003FFFFFE00000000
FFFFFFFFFFFFFFFFFFE000
FFFFFFFFFFFFFFFFFFE000
FFFFFFFFFFFFFFFFFFE000
FFFFFFFFFFFFFFFFFFE000
FFFFFFFFFFFFFFFFFFE000
FFFE000000000000000000
FFFE000000000000000000
FFFE000000000000000000
FFFE000000000000000000
FFFE000000000000000000
FFFFFFFFFFFFFE00000000
FFFFFFFFFFFFFE00000000
FFFFFFFFFFFFFE00000000
FFFFFFFFFFFFFE00000000
FFFFFFFFFFFFFE00000000
FFFE000000000000000000
FFFE000000000000000000
FFFE000000000000000000
FFFE000000000000000000
FFFE000000000000000000
FFFE000000000000000000
FFFE000000000000000000
FFFE000000000000000000
FFFE000000000000000000
FFFE000000000000000000
FFFFFFFFFFFFFFFFFFE000
FFFFFFFFFFFFFFFFFFE000
FFFFFFFFFFFFFFFFFFE000
FFFFFFFFFFFFFFFFFFE000
FFFFFFFFFFFFFFFFFFE000
0000000000000000000000
0000000000000000000000
0000000000000000000000
0000000000000000000000
0000000000000000000000
0000000000000000000000
0000000000000000000000
0000000000000000000000
0000000000000000000000
0000000000000000000000
ENDCHAR
STARTCHAR U+00C7
ENCODING 199
SWIDTH 1000 0
BBX 85 50 0 -10
DWIDTH 85 0
BITMAP
0000000000000000000000
0000000000000000000000
0000000000000000000000
0000000000000000000000
0000000000000000000000
00000FFFFFFFFFFF800000
00000FFFFFFFFFFF800000
00000FFFFFFFFFFF800000
00000FFFFFFFFFFF800000
00000FFFFFFFFFFF800000
003FFF800000000FFFE000
003FFF800000000FFFE000
003FFF800000000FFFE000
003FFF800000000FFFE000
003FFF800000000FFFE000
FFFE000000000000000000
FFFE000000000000000000
FFFE000000000000000000
FFFE000000000000000000
FFFE000000000000000000
FFFE000000000000000000
FFFE000000000000000000
FFFE000000000000000000
FFFE000000000000000000
FFFE000000000000000000
FFFE000000000000000000
FFFE000000000000000000
FFFE000000000000000000
FFFE000000000000000000
FFFE000000000000000000
003FFF800000000FFFE000
003FFF800000000FFFE000
003FFF800000000FFFE000
003FFF800000000FFFE000
003FFF800000000FFFE000
00000FFFFFFFFFFF800000
00000FFFFFFFFFFF800000
00000FFFFFFFFFFF800000
00000FFFFFFFFFFF800000
00000FFFFFFFFFFF800000
0000000000FFFE00000000
0000000000FFFE00000000
0000000000FFFE00000000
0000000000FFFE00000000
0000000000FFFE00000000
00000FFFFFFFFE00000000
00000FFFFFFFFE00000000
00000FFFFFFFFE00000000
00000FFFFFFFFE00000000
00000FFFFFFFFE00000000
ENDCHAR
STARTCHAR U+00C6
ENCODING 198
SWIDTH 1000 0
BBX 85 50 0 -10
DWIDTH 85 0
BITMAP
0000000000000000000000
0000000000000000000000
0000000000000000000000
0000000000000000000000
0000000000000000000000
00000FFFFFFFFFFFFFE000
00000FFFFFFFFFFFFFE000
00000FFFFFFFFFFFFFE000
00000FFFFFFFFFFFFFE000
00000FFFFFFFFFFFFFE000
003FFF83FFF80000000000
003FFF83FFF80000000000
003FFF83FFF80000000000
003FFF83FFF80000000000
003FFF83FFF80000000000
FFFE0003FFF80000000000
FFFE0003FFF80000000000
FFFE0003FFF80000000000
FFFE0003FFF80000000000
FFFE0003FFF80000000000
FFFE0003FFFFFFFF800000
FFFE0003FFFFFFFF800000
FFFE0003FFFFFFFF800000
FFFE0003FFFFFFFF800000
FFFE0003FFFFFFFF800000
FFFFFFFFFFF80000000000
FFFFFFFFFFF80000000000
FFFFFFFFFFF80000000000
FFFFFFFFFFF80000000000
FFFFFFFFFFF80000000000
FFFE0003FFF80000000000
FFFE0003FFF80000000000
FFFE0003FFF80000000000
FFFE0003FFF80000000000
FFFE0003FFF80000000000
FFFE0003FFFFFFFFFFE000
FFFE0003FFFFFFFFFFE000
FFFE0003FFFFFFFFFFE000
FFFE0003FFFFFFFFFFE000
FFFE0003FFFFFFFFFFE000
0000000000000000000000
0000000000000000000000
0000000000000000000000
0000000000000000000000
0000000000000000000000
0000000000000000000000
0000000000000000000000
0000000000000000000000
0000000000000000000000
0000000000000000000000
ENDCHAR
STARTCHAR U+00C5
ENCODING 197
SWIDTH 1000 0
BBX 85 50 0 -10
DWIDTH 85 0
BITMAP
00000FFFFFFFFE00000000
00000FFFFFFFFE00000000
00000FFFFFFFFE00000000
00000FFFFFFFFE00000000
00000FFFFFFFFE00000000
003FFF8000003FFF800000
003FFF8000003FFF800000
003FFF8000003FFF800000
003FFF8000003FFF800000
003FFF8000003FFF800000
00000FFFFFFFFE00000000
00000FFFFFFFFE00000000
00000FFFFFFFFE00000000
00000FFFFFFFFE00000000
00000FFFFFFFFE00000000
00000FFFFFFFFE00000000
00000FFFFFFFFE00000000
00000FFFFFFFFE00000000
00000FFFFFFFFE00000000
00000FFFFFFFFE00000000
003FFF8000003FFF800000
003FFF8000003FFF800000
003FFF8000003FFF800000
003FFF8000003FFF800000
003FFF8000003FFF800000
FFFFFFFFFFFFFFFFFFE000
FFFFFFFFFFFFFFFFFFE000
FFFFFFFFFFFFFFFFFFE000
FFFFFFFFFFFFFFFFFFE000
FFFFFFFFFFFFFFFFFFE000
FFFE00000000000FFFE000
FFFE00000000000FFFE000
FFFE00000000000FFFE000
FFFE00000000000FFFE000
FFFE00000000000FFFE000
FFFE00000000000FFFE000
FFFE00000000000FFFE000
FFFE00000000000FFFE000
FFFE00000000000FFFE000
FFFE00000000000FFFE000
0000000000000000000000
0000000000000000000000
0000000000000000000000
0000000000000000000000
0000000000000000000000
0000000000000000000000
0000000000000000000000
0000000000000000000000
0000000000000000000000
0000000000000000000000
ENDCHAR
STARTCHAR U+00C4
ENCODING 196
SWIDTH 1000 0
BBX 85 50 0 -10
DWIDTH 85 0
BITMAP
003FFF8000003FFF800000
003FFF8000003FFF800000
003FFF8000003FFF800000
003FFF8000003FFF800000
003FFF8000003FFF800000
0000000000000000000000
0000000000000000000000
0000000000000000000000
0000000000000000000000
0000000000000000000000
00000003FFF80000000000
00000003FFF80000000000
00000003FFF80000000000
00000003FFF80000000000
00000003FFF80000000000
00000FFFE0FFFE00000000
00000FFFE0FFFE00000000
00000FFFE0FFFE00000000
00000FFFE0FFFE00000000
00000FFFE0FFFE00000000
003FFF8000003FFF800000
003FFF8000003FFF800000
003FFF8000003FFF800000
003FFF8000003FFF800000
003FFF8000003FFF800000
FFFFFFFFFFFFFFFFFFE000
FFFFFFFFFFFFFFFFFFE000
FFFFFFFFFFFFFFFFFFE000
FFFFFFFFFFFFFFFFFFE000
FFFFFFFFFFFFFFFFFFE000
FFFE00000000000FFFE000
FFFE00000000000FFFE000
FFFE00000000000FFFE000
FFFE00000000000FFFE000
FFFE00000000000FFFE000
FFFE00000000000FFFE000
FFFE00000000000FFFE000
FFFE00000000000FFFE000
FFFE00000000000FFFE000
FFFE00000000000FFFE000
0000000000000000000000
0000000000000000000000
0000000000000000000000
0000000000000000000000
0000000000000000000000
0000000000000000000000
0000000000000000000000
0000000000000000000000
0000000000000000000000
0000000000000000000000
ENDCHAR
STARTCHAR U+00C3
ENCODING 195
SWIDTH 1000 0
BBX 85 50 0 -10
DWIDTH 85 0
BITMAP
00000FFFFFF8000FFFE000
00000FFFFFF8000FFFE000
00000FFFFFF8000FFFE000
00000FFFFFF8000FFFE000
00000FFFFFF8000FFFE000
003FFF8000FFFFFF800000
003FFF8000FFFFFF800000
003FFF8000FFFFFF800000
003FFF8000FFFFFF800000
003FFF8000FFFFFF800000
00000003FFF80000000000
00000003FFF80000000000
00000003FFF80000000000
00000003FFF80000000000
00000003FFF80000000000
00000FFFE0FFFE00000000
00000FFFE0FFFE00000000
00000FFFE0FFFE00000000
00000FFFE0FFFE00000000
00000FFFE0FFFE00000000
003FFF8000003FFF800000
003FFF8000003FFF800000
003FFF8000003FFF800000
003FFF8000003FFF800000
003FFF8000003FFF800000
FFFFFFFFFFFFFFFFFFE000
FFFFFFFFFFFFFFFFFFE000
FFFFFFFFFFFFFFFFFFE000
FFFFFFFFFFFFFFFFFFE000
FFFFFFFFFFFFFFFFFFE000
FFFE00000000000FFFE000
FFFE00000000000FFFE000
FFFE00000000000FFFE000
FFFE00000000000FFFE000
FFFE00000000000FFFE000
FFFE00000000000FFFE000
FFFE00000000000FFFE000
FFFE00000000000FFFE000
FFFE00000000000FFFE000
FFFE00000000000FFFE000
0000000000000000000000
0000000000000000000000
0000000000000000000000
0000000000000000000000
0000000000000000000000
0000000000000000000000
0000000000000000000000
0000000000000000000000
0000000000000000000000
0000000000000000000000
ENDCHAR
STARTCHAR U+00C2
ENCODING 194
SWIDTH 1000 0
BBX 85 50 0 -10
DWIDTH 85 0
BITMAP
00000FFFFFFFFE00000000
00000FFFFFFFFE00000000
00000FFFFFFFFE00000000
00000FFFFFFFFE00000000
00000FFFFFFFFE00000000
003FFF8000003FFF800000
003FFF8000003FFF800000
003FFF8000003FFF800000
003FFF8000003FFF800000
003FFF8000003FFF800000
00000003FFF80000000000
00000003FFF80000000000
00000003FFF80000000000
00000003FFF80000000000
00000003FFF80000000000
00000FFFE0FFFE00000000
00000FFFE0FFFE00000000
00000FFFE0FFFE00000000
00000FFFE0FFFE00000000
00000FFFE0FFFE00000000
003FFF8000003FFF800000
003FFF8000003FFF800000
003FFF8000003FFF800000
003FFF8000003FFF800000
003FFF8000003FFF800000
FFFFFFFFFFFFFFFFFFE000
FFFFFFFFFFFFFFFFFFE000
FFFFFFFFFFFFFFFFFFE000
FFFFFFFFFFFFFFFFFFE000
FFFFFFFFFFFFFFFFFFE000
FFFE00000000000FFFE000
FFFE00000000000FFFE000
FFFE00000000000FFFE000
FFFE00000000000FFFE000
FFFE00000000000FFFE000
FFFE00000000000FFFE000
FFFE00000000000FFFE000
FFFE00000000000FFFE000
FFFE00000000000FFFE000
FFFE00000000000FFFE000
0000000000000000000000
0000000000000000000000
0000000000000000000000
0000000000000000000000
0000000000000000000000
0000000000000000000000
0000000000000000000000
0000000000000000000000
0000000000000000000000
0000000000000000000000
ENDCHAR
STARTCHAR U+00C1
ENCODING 193
SWIDTH 1000 0
BBX 85 50 0 -10
DWIDTH 85 0
BITMAP
00000003FFFFFE00000000
00000003FFFFFE00000000
00000003FFFFFE00000000
00000003FFFFFE00000000
00000003FFFFFE00000000
003FFFFFE0000000000000
003FFFFFE0000000000000
003FFFFFE0000000000000
003FFFFFE0000000000000
003FFFFFE0000000000000
00000003FFF80000000000
00000003FFF80000000000
00000003FFF80000000000
00000003FFF80000000000
00000003FFF80000000000
00000FFFE0FFFE00000000
00000FFFE0FFFE00000000
00000FFFE0FFFE00000000
00000FFFE0FFFE00000000
00000FFFE0FFFE00000000
003FFF8000003FFF800000
003FFF8000003FFF800000
003FFF8000003FFF800000
003FFF8000003FFF800000
003FFF8000003FFF800000
FFFFFFFFFFFFFFFFFFE000
FFFFFFFFFFFFFFFFFFE000
FFFFFFFFFFFFFFFFFFE000
FFFFFFFFFFFFFFFFFFE000
FFFFFFFFFFFFFFFFFFE000
FFFE00000000000FFFE000
FFFE00000000000FFFE000
FFFE00000000000FFFE000
FFFE00000000000FFFE000
FFFE00000000000FFFE000
FFFE00000000000FFFE000
FFFE00000000000FFFE000
FFFE00000000000FFFE000
FFFE00000000000FFFE000
FFFE00000000000FFFE000
0000000000000000000000
0000000000000000000000
0000000000000000000000
0000000000000000000000
0000000000000000000000
0000000000000000000000
0000000000000000000000
0000000000000000000000
0000000000000000000000
0000000000000000000000
ENDCHAR
STARTCHAR U+00C0
ENCODING 192
SWIDTH 1000 0
BBX 85 50 0 -10
DWIDTH 85 0
BITMAP
00000FFFFFF80000000000
00000FFFFFF80000000000
00000FFFFFF80000000000
00000FFFFFF80000000000
00000FFFFFF80000000000
0000000000FFFFFF800000
0000000000FFFFFF800000
0000000000FFFFFF800000
0000000000FFFFFF800000
0000000000FFFFFF800000
00000003FFF80000000000
00000003FFF80000000000
00000003FFF80000000000
00000003FFF80000000000
00000003FFF80000000000
00000FFFE0FFFE00000000
00000FFFE0FFFE00000000
00000FFFE0FFFE00000000
00000FFFE0FFFE00000000
00000FFFE0FFFE00000000
003FFF8000003FFF800000
003FFF8000003FFF800000
003FFF8000003FFF800000
003FFF8000003FFF800000
003FFF8000003FFF800000
FFFFFFFFFFFFFFFFFFE000
FFFFFFFFFFFFFFFFFFE000
FFFFFFFFFFFFFFFFFFE000
FFFFFFFFFFFFFFFFFFE000
FFFFFFFFFFFFFFFFFFE000
FFFE00000000000FFFE000
FFFE00000000000FFFE000
FFFE00000000000FFFE000
FFFE00000000000FFFE000
FFFE00000000000FFFE000
FFFE00000000000FFFE000
FFFE00000000000FFFE000
FFFE00000000000FFFE000
FFFE00000000000FFFE000
FFFE00000000000FFFE000
0000000000000000000000
0000000000000000000000
0000000000000000000000
0000000000000000000000
0000000000000000000000
0000000000000000000000
0000000000000000000000
0000000000000000000000
0000000000000000000000
0000000000000000000000
ENDCHAR
STARTCHAR U+00BF
ENCODING 191
SWIDTH 1000 0
BBX 85 50 0 -10
DWIDTH 85 0
BITMAP
0000000000000000000000
0000000000000000000000
0000000000000000000000
0000000000000000000000
0000000000000000000000
00000003FFF80000000000
00000003FFF80000000000
00000003FFF80000000000
00000003FFF80000000000
00000003FFF80000000000
0000000000000000000000
0000000000000000000000
0000000000000000000000
0000000000000000000000
0000000000000000000000
00000003FFF80000000000
00000003FFF80000000000
00000003FFF80000000000
00000003FFF80000000000
00000003FFF80000000000
00000003FFF80000000000
00000003FFF80000000000
00000003FFF80000000000
00000003FFF80000000000
00000003FFF80000000000
003FFFFFE0000000000000
003FFFFFE0000000000000
003FFFFFE0000000000000
003FFFFFE0000000000000
003FFFFFE0000000000000
FFFE00000000000FFFE000
FFFE00000000000FFFE000
FFFE00000000000FFFE000
FFFE00000000000FFFE000
FFFE00000000000FFFE000
003FFFFFFFFFFFFF800000
003FFFFFFFFFFFFF800000
003FFFFFFFFFFFFF800000
003FFFFFFFFFFFFF800000
003FFFFFFFFFFFFF800000
0000000000000000000000
0000000000000000000000
0000000000000000000000
0000000000000000000000
0000000000000000000000
0000000000000000000000
0000000000000000000000
0000000000000000000000
0000000000000000000000
0000000000000000000000
ENDCHAR
STARTCHAR U+00BE
ENCODING 190
SWIDTH 1000 0
BBX 85 50 0 -10
DWIDTH 85 0
BITMAP
0000000000000000000000
0000000000000000000000
0000000000000000000000
0000000000000000000000
0000000000000000000000
FFFFFFFFE0000000000000
FFFFFFFFE0000000000000
FFFFFFFFE0000000000000
FFFFFFFFE0000000000000
FFFFFFFFE0000000000000
FFFE0003FFF80000000000
FFFE0003FFF80000000000
FFFE0003FFF80000000000
FFFE0003FFF80000000000
FFFE0003FFF80000000000
FFFFFFFFE0000000000000
FFFFFFFFE0000000000000
FFFFFFFFE0000000000000
FFFFFFFFE0000000000000
FFFFFFFFE0000000000000
FFFE0003FFF80000000000
FFFE0003FFF80000000000
FFFE0003FFF80000000000
FFFE0003FFF80000000000
FFFE0003FFF80000000000
FFFFFFFFFFFFFFFFFFE000
FFFFFFFFFFFFFFFFFFE000
FFFFFFFFFFFFFFFFFFE000
FFFFFFFFFFFFFFFFFFE000
FFFFFFFFFFFFFFFFFFE000
00000003FFF80000000000
00000003FFF80000000000
00000003FFF80000000000
00000003FFF80000000000
00000003FFF80000000000
00000003FFFFFFFF800000
00000003FFFFFFFF800000
00000003FFFFFFFF800000
00000003FFFFFFFF800000
00000003FFFFFFFF800000
00000003FFF80000000000
00000003FFF80000000000
00000003FFF80000000000
00000003FFF80000000000
00000003FFF80000000000
00000003FFFFFFFFFFE000
00000003FFFFFFFFFFE000
00000003FFFFFFFFFFE000
00000003FFFFFFFFFFE000
00000003FFFFFFFFFFE000
ENDCHAR
STARTCHAR U+00BD
ENCODING 189
SWIDTH 1000 0
BBX 85 50 0 -10
DWIDTH 85 0
BITMAP
0000000000000000000000
0000000000000000000000
0000000000000000000000
0000000000000000000000
0000000000000000000000
003FFF8000000000000000
003FFF8000000000000000
003FFF8000000000000000
003FFF8000000000000000
003FFF8000000000000000
FFFFFF8000003FFF800000
FFFFFF8000003FFF800000
FFFFFF8000003FFF800000
FFFFFF8000003FFF800000
FFFFFF8000003FFF800000
003FFF8000FFFE00000000
003FFF8000FFFE00000000
003FFF8000FFFE00000000
003FFF8000FFFE00000000
003FFF8000FFFE00000000
003FFF83FFF80000000000
003FFF83FFF80000000000
003FFF83FFF80000000000
003FFF83FFF80000000000
003FFF83FFF80000000000
00000FFFE0FFFFFF800000
00000FFFE0FFFFFF800000
00000FFFE0FFFFFF800000
00000FFFE0FFFFFF800000
00000FFFE0FFFFFF800000
003FFF83FFF8000FFFE000
003FFF83FFF8000FFFE000
003FFF83FFF8000FFFE000
003FFF83FFF8000FFFE000
003FFF83FFF8000FFFE000
FFFE000000003FFF800000
FFFE000000003FFF800000
FFFE000000003FFF800000
FFFE000000003FFF800000
FFFE000000003FFF800000
0000000000FFFE00000000
0000000000FFFE00000000
0000000000FFFE00000000
0000000000FFFE00000000
0000000000FFFE00000000
00000003FFFFFFFFFFE000
00000003FFFFFFFFFFE000
00000003FFFFFFFFFFE000
00000003FFFFFFFFFFE000
00000003FFFFFFFFFFE000
ENDCHAR
STARTCHAR U+00BC
ENCODING 188
SWIDTH 1000 0
BBX 85 50 0 -10
DWIDTH 85 0
BITMAP
0000000000000000000000
0000000000000000000000
0000000000000000000000
0000000000000000000000
0000000000000000000000
003FFF8000000000000000
003FFF8000000000000000
003FFF8000000000000000
003FFF8000000000000000
003FFF8000000000000000
FFFFFF8000003FFF800000
FFFFFF8000003FFF800000
FFFFFF8000003FFF800000
FFFFFF8000003FFF800000
FFFFFF8000003FFF800000
003FFF8000FFFE00000000
003FFF8000FFFE00000000
003FFF8000FFFE00000000
003FFF8000FFFE00000000
003FFF8000FFFE00000000
003FFF83FFF80000000000
003FFF83FFF80000000000
003FFF83FFF80000000000
003FFF83FFF80000000000
003FFF83FFF80000000000
00000FFFE0003FFF800000
00000FFFE0003FFF800000
00000FFFE0003FFF800000
00000FFFE0003FFF800000
00000FFFE0003FFF800000
003FFF8000FFFFFF800000
003FFF8000FFFFFF800000
003FFF8000FFFFFF800000
003FFF8000FFFFFF800000
003FFF8000FFFFFF800000
FFFE0003FFF83FFF800000
FFFE0003FFF83FFF800000
FFFE0003FFF83FFF800000
FFFE0003FFF83FFF800000
FFFE0003FFF83FFF800000
00000FFFFFFFFFFFFFE000
00000FFFFFFFFFFFFFE000
00000FFFFFFFFFFFFFE000
00000FFFFFFFFFFFFFE000
00000FFFFFFFFFFFFFE000
0000000000003FFF800000
0000000000003FFF800000
0000000000003FFF800000
0000000000003FFF800000
0000000000003FFF800000
ENDCHAR
STARTCHAR U+00BB
ENCODING 187
SWIDTH 1000 0
BBX 85 50 0 -10
DWIDTH 85 0
BITMAP
0000000000000000000000
0000000000000000000000
0000000000000000000000
0000000000000000000000
0000000000000000000000
FFFE0003FFF80000000000
FFFE0003FFF80000000000
FFFE0003FFF80000000000
FFFE0003FFF80000000000
FFFE0003FFF80000000000
003FFF8000FFFE00000000
003FFF8000FFFE00000000
003FFF8000FFFE00000000
003FFF8000FFFE00000000
003FFF8000FFFE00000000
00000FFFE0003FFF800000
00000FFFE0003FFF800000
00000FFFE0003FFF800000
00000FFFE0003FFF800000
00000FFFE0003FFF800000
00000003FFF8000FFFE000
00000003FFF8000FFFE000
00000003FFF8000FFFE000
00000003FFF8000FFFE000
00000003FFF8000FFFE000
00000FFFE0003FFF800000
00000FFFE0003FFF800000
00000FFFE0003FFF800000
00000FFFE0003FFF800000
00000FFFE0003FFF800000
003FFF8000FFFE00000000
003FFF8000FFFE00000000
003FFF8000FFFE00000000
003FFF8000FFFE00000000
003FFF8000FFFE00000000
FFFE0003FFF80000000000
FFFE0003FFF80000000000
FFFE0003FFF80000000000
FFFE0003FFF80000000000
FFFE0003FFF80000000000
0000000000000000000000
0000000000000000000000
0000000000000000000000
0000000000000000000000
0000000000000000000000
0000000000000000000000
0000000000000000000000
0000000000000000000000
0000000000000000000000
0000000000000000000000
ENDCHAR
STARTCHAR U+00BA
ENCODING 186
SWIDTH 1000 0
BBX 85 50 0 -10
DWIDTH 85 0
BITMAP
0000000000000000000000
0000000000000000000000
0000000000000000000000
0000000000000000000000
0000000000000000000000
003FFFFFFFFFFFFF800000
003FFFFFFFFFFFFF800000
003FFFFFFFFFFFFF800000
003FFFFFFFFFFFFF800000
003FFFFFFFFFFFFF800000
FFFE00000000000FFFE000
FFFE00000000000FFFE000
FFFE00000000000FFFE000
FFFE00000000000FFFE000
FFFE00000000000FFFE000
FFFE00000000000FFFE000
FFFE00000000000FFFE000
FFFE00000000000FFFE000
FFFE00000000000FFFE000
FFFE00000000000FFFE000
FFFE00000000000FFFE000
FFFE00000000000FFFE000
FFFE00000000000FFFE000
FFFE00000000000FFFE000
FFFE00000000000FFFE000
003FFFFFFFFFFFFF800000
003FFFFFFFFFFFFF800000
003FFFFFFFFFFFFF800000
003FFFFFFFFFFFFF800000
003FFFFFFFFFFFFF800000
0000000000000000000000
0000000000000000000000
0000000000000000000000
0000000000000000000000
0000000000000000000000
FFFFFFFFFFFFFFFFFFE000
FFFFFFFFFFFFFFFFFFE000
FFFFFFFFFFFFFFFFFFE000
FFFFFFFFFFFFFFFFFFE000
FFFFFFFFFFFFFFFFFFE000
0000000000000000000000
0000000000000000000000
0000000000000000000000
0000000000000000000000
0000000000000000000000
0000000000000000000000
0000000000000000000000
0000000000000000000000
0000000000000000000000
0000000000000000000000
ENDCHAR
STARTCHAR U+00B9
ENCODING 185
SWIDTH 1000 0
BBX 85 50 0 -10
DWIDTH 85 0
BITMAP
00000003FFF80000000000
00000003FFF80000000000
00000003FFF80000000000
00000003FFF80000000000
00000003FFF80000000000
00000FFFFFF80000000000
00000FFFFFF80000000000
00000FFFFFF80000000000
00000FFFFFF80000000000
00000FFFFFF80000000000
00000003FFF80000000000
00000003FFF80000000000
00000003FFF80000000000
00000003FFF80000000000
00000003FFF80000000000
00000003FFF80000000000
00000003FFF80000000000
00000003FFF80000000000
00000003FFF80000000000
00000003FFF80000000000
00000FFFFFFFFE00000000
00000FFFFFFFFE00000000
00000FFFFFFFFE00000000
00000FFFFFFFFE00000000
00000FFFFFFFFE00000000
0000000000000000000000
0000000000000000000000
0000000000000000000000
0000000000000000000000
0000000000000000000000
0000000000000000000000
0000000000000000000000
0000000000000000000000
0000000000000000000000
0000000000000000000000
0000000000000000000000
0000000000000000000000
0000000000000000000000
0000000000000000000000
0000000000000000000000
0000000000000000000000
0000000000000000000000
0000000000000000000000
0000000000000000000000
0000000000000000000000
0000000000000000000000
0000000000000000000000
0000000000000000000000
0000000000000000000000
0000000000000000000000
ENDCHAR
STARTCHAR U+00B8
ENCODING 184
SWIDTH 1000 0
BBX 85 50 0 -10
DWIDTH 85 0
BITMAP
0000000000000000000000
0000000000000000000000
0000000000000000000000
0000000000000000000000
0000000000000000000000
FFFFFFFFE0000000000000
FFFFFFFFE0000000000000
FFFFFFFFE0000000000000
FFFFFFFFE0000000000000
FFFFFFFFE0000000000000
FFFE0003FFF80000000000
FFFE0003FFF80000000000
FFFE0003FFF80000000000
FFFE0003FFF80000000000
FFFE0003FFF80000000000
FFFFFFFFE0000000000000
FFFFFFFFE0000000000000
FFFFFFFFE0000000000000
FFFFFFFFE0000000000000
FFFFFFFFE0000000000000
FFFE0003FFF80000000000
FFFE0003FFF80000000000
FFFE0003FFF80000000000
FFFE0003FFF80000000000
FFFE0003FFF80000000000
FFFFFFFFE0FFFFFF800000
FFFFFFFFE0FFFFFF800000
FFFFFFFFE0FFFFFF800000
FFFFFFFFE0FFFFFF800000
FFFFFFFFE0FFFFFF800000
00000003FFF8000FFFE000
00000003FFF8000FFFE000
00000003FFF8000FFFE000
00000003FFF8000FFFE000
00000003FFF8000FFFE000
0000000000FFFFFF800000
0000000000FFFFFF800000
0000000000FFFFFF800000
0000000000FFFFFF800000
0000000000FFFFFF800000
00000003FFF8000FFFE000
00000003FFF8000FFFE000
00000003FFF8000FFFE000
00000003FFF8000FFFE000
00000003FFF8000FFFE000
0000000000FFFFFF800000
0000000000FFFFFF800000
0000000000FFFFFF800000
0000000000FFFFFF800000
0000000000FFFFFF800000
ENDCHAR
STARTCHAR U+00B7
ENCODING 183
SWIDTH 1000 0
BBX 85 50 0 -10
DWIDTH 85 0
BITMAP
0000000000000000000000
0000000000000000000000
0000000000000000000000
0000000000000000000000
0000000000000000000000
0000000000000000000000
0000000000000000000000
0000000000000000000000
0000000000000000000000
0000000000000000000000
0000000000000000000000
0000000000000000000000
0000000000000000000000
0000000000000000000000
0000000000000000000000
00000FFFFFF80000000000
00000FFFFFF80000000000
00000FFFFFF80000000000
00000FFFFFF80000000000
00000FFFFFF80000000000
00000FFFFFF80000000000
00000FFFFFF80000000000
00000FFFFFF80000000000
00000FFFFFF80000000000
00000FFFFFF80000000000
0000000000000000000000
0000000000000000000000
0000000000000000000000
0000000000000000000000
0000000000000000000000
0000000000000000000000
0000000000000000000000
0000000000000000000000
0000000000000000000000
0000000000000000000000
0000000000000000000000
0000000000000000000000
0000000000000000000000
0000000000000000000000
0000000000000000000000
0000000000000000000000
0000000000000000000000
0000000000000000000000
0000000000000000000000
0000000000000000000000
0000000000000000000000
0000000000000000000000
0000000000000000000000
0000000000000000000000
0000000000000000000000
ENDCHAR
STARTCHAR U+00B6
ENCODING 182
SWIDTH 1000 0
BBX 85 50 0 -10
DWIDTH 85 0
BITMAP
0000000000000000000000
0000000000000000000000
0000000000000000000000
0000000000000000000000
0000000000000000000000
003FFFFFFFFFFFFFFFE000
003FFFFFFFFFFFFFFFE000
003FFFFFFFFFFFFFFFE000
003FFFFFFFFFFFFFFFE000
003FFFFFFFFFFFFFFFE000
FFFFFF8000FFFE0FFFE000
FFFFFF8000FFFE0FFFE000
FFFFFF8000FFFE0FFFE000
FFFFFF8000FFFE0FFFE000
FFFFFF8000FFFE0FFFE000
FFFFFF8000FFFE0FFFE000
FFFFFF8000FFFE0FFFE000
FFFFFF8000FFFE0FFFE000
FFFFFF8000FFFE0FFFE000
FFFFFF8000FFFE0FFFE000
003FFFFFFFFFFFFFFFE000
003FFFFFFFFFFFFFFFE000
003FFFFFFFFFFFFFFFE000
003FFFFFFFFFFFFFFFE000
003FFFFFFFFFFFFFFFE000
0000000000FFFE0FFFE000
0000000000FFFE0FFFE000
0000000000FFFE0FFFE000
0000000000FFFE0FFFE000
0000000000FFFE0FFFE000
0000000000FFFE0FFFE000
0000000000FFFE0FFFE000
0000000000FFFE0FFFE000
0000000000FFFE0FFFE000
0000000000FFFE0FFFE000
0000000000FFFE0FFFE000
0000000000FFFE0FFFE000
0000000000FFFE0FFFE000
0000000000FFFE0FFFE000
0000000000FFFE0FFFE000
0000000000000000000000
0000000000000000000000
0000000000000000000000
0000000000000000000000
0000000000000000000000
0000000000000000000000
0000000000000000000000
0000000000000000000000
0000000000000000000000
0000000000000000000000
ENDCHAR
STARTCHAR U+00B5
ENCODING 181
SWIDTH 1000 0
BBX 85 50 0 -10
DWIDTH 85 0
BITMAP
0000000000000000000000
0000000000000000000000
0000000000000000000000
0000000000000000000000
0000000000000000000000
0000000000000000000000
0000000000000000000000
0000000000000000000000
0000000000000000000000
0000000000000000000000
0000000000000000000000
0000000000000000000000
0000000000000000000000
0000000000000000000000
0000000000000000000000
003FFF800000000FFFE000
003FFF800000000FFFE000
003FFF800000000FFFE000
003FFF800000000FFFE000
003FFF800000000FFFE000
003FFF800000000FFFE000
003FFF800000000FFFE000
003FFF800000000FFFE000
003FFF800000000FFFE000
003FFF800000000FFFE000
003FFF800000000FFFE000
003FFF800000000FFFE000
003FFF800000000FFFE000
003FFF800000000FFFE000
003FFF800000000FFFE000
003FFFFFE0003FFFFFE000
003FFFFFE0003FFFFFE000
003FFFFFE0003FFFFFE000
003FFFFFE0003FFFFFE000
003FFFFFE0003FFFFFE000
003FFF83FFFFFE0FFFE000
003FFF83FFFFFE0FFFE000
003FFF83FFFFFE0FFFE000
003FFF83FFFFFE0FFFE000
003FFF83FFFFFE0FFFE000
003FFF8000000000000000
003FFF8000000000000000
003FFF8000000000000000
003FFF8000000000000000
003FFF8000000000000000
FFFE000000000000000000
FFFE000000000000000000
FFFE000000000000000000
FFFE000000000000000000
FFFE000000000000000000
ENDCHAR
STARTCHAR U+00B4
ENCODING 180
SWIDTH 1000 0
BBX 85 50 0 -10
DWIDTH 85 0
BITMAP
0000000000000000000000
0000000000000000000000
0000000000000000000000
0000000000000000000000
0000000000000000000000
FFFFFFFFE0000000000000
FFFFFFFFE0000000000000
FFFFFFFFE0000000000000
FFFFFFFFE0000000000000
FFFFFFFFE0000000000000
FFFE0003FFF80000000000
FFFE0003FFF80000000000
FFFE0003FFF80000000000
FFFE0003FFF80000000000
FFFE0003FFF80000000000
FFFFFFFFE0000000000000
FFFFFFFFE0000000000000
FFFFFFFFE0000000000000
FFFFFFFFE0000000000000
FFFFFFFFE0000000000000
FFFE0003FFF80000000000
FFFE0003FFF80000000000
FFFE0003FFF80000000000
FFFE0003FFF80000000000
FFFE0003FFF80000000000
FFFFFFFFE0003FFF800000
FFFFFFFFE0003FFF800000
FFFFFFFFE0003FFF800000
FFFFFFFFE0003FFF800000
FFFFFFFFE0003FFF800000
0000000000FFFFFF800000
0000000000FFFFFF800000
0000000000FFFFFF800000
0000000000FFFFFF800000
0000000000FFFFFF800000
00000003FFF83FFF800000
00000003FFF83FFF800000
00000003FFF83FFF800000
00000003FFF83FFF800000
00000003FFF83FFF800000
00000FFFFFFFFFFFFFE000
00000FFFFFFFFFFFFFE000
00000FFFFFFFFFFFFFE000
00000FFFFFFFFFFFFFE000
00000FFFFFFFFFFFFFE000
0000000000003FFF800000
0000000000003FFF800000
0000000000003FFF800000
0000000000003FFF800000
0000000000003FFF800000
ENDCHAR
STARTCHAR U+00B3
ENCODING 179
SWIDTH 1000 0
BBX 85 50 0 -10
DWIDTH 85 0
BITMAP
003FFFFFFFFFFFFF800000
003FFFFFFFFFFFFF800000
003FFFFFFFFFFFFF800000
003FFFFFFFFFFFFF800000
003FFFFFFFFFFFFF800000
0000000000003FFF800000
0000000000003FFF800000
0000000000003FFF800000
0000000000003FFF800000
0000000000003FFF800000
00000003FFFFFE00000000
00000003FFFFFE00000000
00000003FFFFFE00000000
00000003FFFFFE00000000
00000003FFFFFE00000000
0000000000003FFF800000
0000000000003FFF800000
0000000000003FFF800000
0000000000003FFF800000
0000000000003FFF800000
003FFFFFFFFFFE00000000
003FFFFFFFFFFE00000000
003FFFFFFFFFFE00000000
003FFFFFFFFFFE00000000
003FFFFFFFFFFE00000000
0000000000000000000000
0000000000000000000000
0000000000000000000000
0000000000000000000000
0000000000000000000000
0000000000000000000000
0000000000000000000000
0000000000000000000000
0000000000000000000000
0000000000000000000000
0000000000000000000000
0000000000000000000000
0000000000000000000000
0000000000000000000000
0000000000000000000000
0000000000000000000000
0000000000000000000000
0000000000000000000000
0000000000000000000000
0000000000000000000000
0000000000000000000000
0000000000000000000000
0000000000000000000000
0000000000000000000000
0000000000000000000000
ENDCHAR
STARTCHAR U+00B2
ENCODING 178
SWIDTH 1000 0
BBX 85 50 0 -10
DWIDTH 85 0
BITMAP
00000FFFFFFFFE00000000
00000FFFFFFFFE00000000
00000FFFFFFFFE00000000
00000FFFFFFFFE00000000
00000FFFFFFFFE00000000
003FFF8000003FFF800000
003FFF8000003FFF800000
003FFF8000003FFF800000
003FFF8000003FFF800000
003FFF8000003FFF800000
00000003FFFFFE00000000
00000003FFFFFE00000000
00000003FFFFFE00000000
00000003FFFFFE00000000
00000003FFFFFE00000000
00000FFFE0000000000000
00000FFFE0000000000000
00000FFFE0000000000000
00000FFFE0000000000000
00000FFFE0000000000000
003FFFFFFFFFFFFF800000
003FFFFFFFFFFFFF800000
003FFFFFFFFFFFFF800000
003FFFFFFFFFFFFF800000
003FFFFFFFFFFFFF800000
0000000000000000000000
0000000000000000000000
0000000000000000000000
0000000000000000000000
0000000000000000000000
0000000000000000000000
0000000000000000000000
0000000000000000000000
0000000000000000000000
0000000000000000000000
0000000000000000000000
0000000000000000000000
0000000000000000000000
0000000000000000000000
0000000000000000000000
0000000000000000000000
0000000000000000000000
0000000000000000000000
0000000000000000000000
0000000000000000000000
0000000000000000000000
0000000000000000000000
0000000000000000000000
0000000000000000000000
0000000000000000000000
ENDCHAR
STARTCHAR U+00B1
ENCODING 177
SWIDTH 1000 0
BBX 85 50 0 -10
DWIDTH 85 0
BITMAP
0000000000000000000000
0000000000000000000000
0000000000000000000000
0000000000000000000000
0000000000000000000000
0000000000000000000000
0000000000000000000000
0000000000000000000000
0000000000000000000000
0000000000000000000000
00000003FFF80000000000
00000003FFF80000000000
00000003FFF80000000000
00000003FFF80000000000
00000003FFF80000000000
00000003FFF80000000000
00000003FFF80000000000
00000003FFF80000000000
00000003FFF80000000000
00000003FFF80000000000
FFFFFFFFFFFFFFFFFFE000
FFFFFFFFFFFFFFFFFFE000
FFFFFFFFFFFFFFFFFFE000
FFFFFFFFFFFFFFFFFFE000
FFFFFFFFFFFFFFFFFFE000
00000003FFF80000000000
00000003FFF80000000000
00000003FFF80000000000
00000003FFF80000000000
00000003FFF80000000000
00000003FFF80000000000
00000003FFF80000000000
00000003FFF80000000000
00000003FFF80000000000
00000003FFF80000000000
FFFFFFFFFFFFFFFFFFE000
FFFFFFFFFFFFFFFFFFE000
FFFFFFFFFFFFFFFFFFE000
FFFFFFFFFFFFFFFFFFE000
FFFFFFFFFFFFFFFFFFE000
0000000000000000000000
0000000000000000000000
0000000000000000000000
0000000000000000000000
0000000000000000000000
0000000000000000000000
0000000000000000000000
0000000000000000000000
0000000000000000000000
0000000000000000000000
ENDCHAR
STARTCHAR U+00B0
ENCODING 176
SWIDTH 1000 0
BBX 85 50 0 -10
DWIDTH 85 0
BITMAP
0000000000000000000000
0000000000000000000000
0000000000000000000000
0000000000000000000000
0000000000000000000000
00000FFFFFFFFE00000000
00000FFFFFFFFE00000000
00000FFFFFFFFE00000000
00000FFFFFFFFE00000000
00000FFFFFFFFE00000000
003FFF8000003FFF800000
003FFF8000003FFF800000
003FFF8000003FFF800000
003FFF8000003FFF800000
003FFF8000003FFF800000
00000FFFFFFFFE00000000
00000FFFFFFFFE00000000
00000FFFFFFFFE00000000
00000FFFFFFFFE00000000
00000FFFFFFFFE00000000
0000000000000000000000
0000000000000000000000
0000000000000000000000
0000000000000000000000
0000000000000000000000
0000000000000000000000
0000000000000000000000
0000000000000000000000
0000000000000000000000
0000000000000000000000
0000000000000000000000
0000000000000000000000
0000000000000000000000
0000000000000000000000
0000000000000000000000
0000000000000000000000
0000000000000000000000
0000000000000000000000
0000000000000000000000
0000000000000000000000
0000000000000000000000
0000000000000000000000
0000000000000000000000
0000000000000000000000
0000000000000000000000
0000000000000000000000
0000000000000000000000
0000000000000000000000
0000000000000000000000
0000000000000000000000
ENDCHAR
STARTCHAR U+00AF
ENCODING 175
SWIDTH 1000 0
BBX 85 50 0 -10
DWIDTH 85 0
BITMAP
0000000000000000000000
0000000000000000000000
0000000000000000000000
0000000000000000000000
0000000000000000000000
003FFFFFE0000000000000
003FFFFFE0000000000000
003FFFFFE0000000000000
003FFFFFE0000000000000
003FFFFFE0000000000000
FFFE0003FFF80000000000
FFFE0003FFF80000000000
FFFE0003FFF80000000000
FFFE0003FFF80000000000
FFFE0003FFF80000000000
FFFFFFFFFFF80000000000
FFFFFFFFFFF80000000000
FFFFFFFFFFF80000000000
FFFFFFFFFFF80000000000
FFFFFFFFFFF80000000000
FFFE0003FFF80000000000
FFFE0003FFF80000000000
FFFE0003FFF80000000000
FFFE0003FFF80000000000
FFFE0003FFF80000000000
FFFE0003FFFFFFFFFFE000
FFFE0003FFFFFFFFFFE000
FFFE0003FFFFFFFFFFE000
FFFE0003FFFFFFFFFFE000
FFFE0003FFFFFFFFFFE000
00000003FFF80000000000
00000003FFF80000000000
00000003FFF80000000000
00000003FFF80000000000
00000003FFF80000000000
00000003FFFFFFFF800000
00000003FFFFFFFF800000
00000003FFFFFFFF800000
00000003FFFFFFFF800000
00000003FFFFFFFF800000
00000003FFF80000000000
00000003FFF80000000000
00000003FFF80000000000
00000003FFF80000000000
00000003FFF80000000000
00000003FFF80000000000
00000003FFF80000000000
00000003FFF80000000000
00000003FFF80000000000
00000003FFF80000000000
ENDCHAR
STARTCHAR U+00AE
ENCODING 174
SWIDTH 1000 0
BBX 85 50 0 -10
DWIDTH 85 0
BITMAP
0000000000000000000000
0000000000000000000000
0000000000000000000000
0000000000000000000000
0000000000000000000000
003FFFFFE0000000000000
003FFFFFE0000000000000
003FFFFFE0000000000000
003FFFFFE0000000000000
003FFFFFE0000000000000
FFFE0003FFF80000000000
FFFE0003FFF80000000000
FFFE0003FFF80000000000
FFFE0003FFF80000000000
FFFE0003FFF80000000000
FFFFFFFFFFF80000000000
FFFFFFFFFFF80000000000
FFFFFFFFFFF80000000000
FFFFFFFFFFF80000000000
FFFFFFFFFFF80000000000
FFFE0003FFF80000000000
FFFE0003FFF80000000000
FFFE0003FFF80000000000
FFFE0003FFF80000000000
FFFE0003FFF80000000000
FFFE0003FFFFFFFFFFE000
FFFE0003FFFFFFFFFFE000
FFFE0003FFFFFFFFFFE000
FFFE0003FFFFFFFFFFE000
FFFE0003FFFFFFFFFFE000
00000003FFF80000000000
00000003FFF80000000000
00000003FFF80000000000
00000003FFF80000000000
00000003FFF80000000000
00000003FFFFFFFF800000
00000003FFFFFFFF800000
00000003FFFFFFFF800000
00000003FFFFFFFF800000
00000003FFFFFFFF800000
00000003FFF80000000000
00000003FFF80000000000
00000003FFF80000000000
00000003FFF80000000000
00000003FFF80000000000
00000003FFFFFFFFFFE000
00000003FFFFFFFFFFE000
00000003FFFFFFFFFFE000
00000003FFFFFFFFFFE000
00000003FFFFFFFFFFE000
ENDCHAR
STARTCHAR U+00AC
ENCODING 172
SWIDTH 1000 0
BBX 85 50 0 -10
DWIDTH 85 0
BITMAP
0000000000000000000000
0000000000000000000000
0000000000000000000000
0000000000000000000000
0000000000000000000000
003FFFFFE0000000000000
003FFFFFE0000000000000
003FFFFFE0000000000000
003FFFFFE0000000000000
003FFFFFE0000000000000
FFFE0003FFF80000000000
FFFE0003FFF80000000000
FFFE0003FFF80000000000
FFFE0003FFF80000000000
FFFE0003FFF80000000000
FFFFFFFFFFF80000000000
FFFFFFFFFFF80000000000
FFFFFFFFFFF80000000000
FFFFFFFFFFF80000000000
FFFFFFFFFFF80000000000
FFFE0003FFF80000000000
FFFE0003FFF80000000000
FFFE0003FFF80000000000
FFFE0003FFF80000000000
FFFE0003FFF80000000000
FFFE0003FFFFFFFFFFE000
FFFE0003FFFFFFFFFFE000
FFFE0003FFFFFFFFFFE000
FFFE0003FFFFFFFFFFE000
FFFE0003FFFFFFFFFFE000
00000003FFF80000000000
00000003FFF80000000000
00000003FFF80000000000
00000003FFF80000000000
00000003FFF80000000000
00000003FFF80000000000
00000003FFF80000000000
00000003FFF80000000000
00000003FFF80000000000
00000003FFF80000000000
00000003FFF80000000000
00000003FFF80000000000
00000003FFF80000000000
00000003FFF80000000000
00000003FFF80000000000
0000000000FFFFFFFFE000
0000000000FFFFFFFFE000
0000000000FFFFFFFFE000
0000000000FFFFFFFFE000
0000000000FFFFFFFFE000
ENDCHAR
STARTCHAR U+00AB
ENCODING 171
SWIDTH 1000 0
BBX 85 50 0 -10
DWIDTH 85 0
BITMAP
0000000000000000000000
0000000000000000000000
0000000000000000000000
0000000000000000000000
0000000000000000000000
00000003FFF8000FFFE000
00000003FFF8000FFFE000
00000003FFF8000FFFE000
00000003FFF8000FFFE000
00000003FFF8000FFFE000
00000FFFE0003FFF800000
00000FFFE0003FFF800000
00000FFFE0003FFF800000
00000FFFE0003FFF800000
00000FFFE0003FFF800000
003FFF8000FFFE00000000
003FFF8000FFFE00000000
003FFF8000FFFE00000000
003FFF8000FFFE00000000
003FFF8000FFFE00000000
FFFE0003FFF80000000000
FFFE0003FFF80000000000
FFFE0003FFF80000000000
FFFE0003FFF80000000000
FFFE0003FFF80000000000
003FFF8000FFFE00000000
003FFF8000FFFE00000000
003FFF8000FFFE00000000
003FFF8000FFFE00000000
003FFF8000FFFE00000000
00000FFFE0003FFF800000
00000FFFE0003FFF800000
00000FFFE0003FFF800000
00000FFFE0003FFF800000
00000FFFE0003FFF800000
00000003FFF8000FFFE000
00000003FFF8000FFFE000
00000003FFF8000FFFE000
00000003FFF8000FFFE000
00000003FFF8000FFFE000
0000000000000000000000
0000000000000000000000
0000000000000000000000
0000000000000000000000
0000000000000000000000
0000000000000000000000
0000000000000000000000
0000000000000000000000
0000000000000000000000
0000000000000000000000
ENDCHAR
STARTCHAR U+00AA
ENCODING 170
SWIDTH 1000 0
BBX 85 50 0 -10
DWIDTH 85 0
BITMAP
0000000000000000000000
0000000000000000000000
0000000000000000000000
0000000000000000000000
0000000000000000000000
003FFFFFFFFFFFFF800000
003FFFFFFFFFFFFF800000
003FFFFFFFFFFFFF800000
003FFFFFFFFFFFFF800000
003FFFFFFFFFFFFF800000
000000000000000FFFE000
000000000000000FFFE000
000000000000000FFFE000
000000000000000FFFE000
000000000000000FFFE000
003FFFFFFFFFFFFFFFE000
003FFFFFFFFFFFFFFFE000
003FFFFFFFFFFFFFFFE000
003FFFFFFFFFFFFFFFE000
003FFFFFFFFFFFFFFFE000
FFFE000000003FFFFFE000
FFFE000000003FFFFFE000
FFFE000000003FFFFFE000
FFFE000000003FFFFFE000
FFFE000000003FFFFFE000
003FFFFFFFFFFE0FFFE000
003FFFFFFFFFFE0FFFE000
003FFFFFFFFFFE0FFFE000
003FFFFFFFFFFE0FFFE000
003FFFFFFFFFFE0FFFE000
0000000000000000000000
0000000000000000000000
0000000000000000000000
0000000000000000000000
0000000000000000000000
FFFFFFFFFFFFFFFFFFE000
FFFFFFFFFFFFFFFFFFE000
FFFFFFFFFFFFFFFFFFE000
FFFFFFFFFFFFFFFFFFE000
FFFFFFFFFFFFFFFFFFE000
0000000000000000000000
0000000000000000000000
0000000000000000000000
0000000000000000000000
0000000000000000000000
0000000000000000000000
0000000000000000000000
0000000000000000000000
0000000000000000000000
0000000000000000000000
ENDCHAR
STARTCHAR U+00A9
ENCODING 169
SWIDTH 1000 0
BBX 85 50 0 -10
DWIDTH 85 0
BITMAP
0000000000000000000000
0000000000000000000000
0000000000000000000000
0000000000000000000000
0000000000000000000000
00000FFFFFFFFE00000000
00000FFFFFFFFE00000000
00000FFFFFFFFE00000000
00000FFFFFFFFE00000000
00000FFFFFFFFE00000000
003FFF8000003FFF800000
003FFF8000003FFF800000
003FFF8000003FFF800000
003FFF8000003FFF800000
003FFF8000003FFF800000
FFFE0003FFFFFE0FFFE000
FFFE0003FFFFFE0FFFE000
FFFE0003FFFFFE0FFFE000
FFFE0003FFFFFE0FFFE000
FFFE0003FFFFFE0FFFE000
FFFE0FFFE000000FFFE000
FFFE0FFFE000000FFFE000
FFFE0FFFE000000FFFE000
FFFE0FFFE000000FFFE000
FFFE0FFFE000000FFFE000
FFFE0FFFE000000FFFE000
FFFE0FFFE000000FFFE000
FFFE0FFFE000000FFFE000
FFFE0FFFE000000FFFE000
FFFE0FFFE000000FFFE000
FFFE0003FFFFFE0FFFE000
FFFE0003FFFFFE0FFFE000
FFFE0003FFFFFE0FFFE000
FFFE0003FFFFFE0FFFE000
FFFE0003FFFFFE0FFFE000
003FFF8000003FFF800000
003FFF8000003FFF800000
003FFF8000003FFF800000
003FFF8000003FFF800000
003FFF8000003FFF800000
00000FFFFFFFFE00000000
00000FFFFFFFFE00000000
00000FFFFFFFFE00000000
00000FFFFFFFFE00000000
00000FFFFFFFFE00000000
0000000000000000000000
0000000000000000000000
0000000000000000000000
0000000000000000000000
0000000000000000000000
ENDCHAR
STARTCHAR U+00A4
ENCODING 164
SWIDTH 1000 0
BBX 85 50 0 -10
DWIDTH 85 0
BITMAP
0000000000000000000000
0000000000000000000000
0000000000000000000000
0000000000000000000000
0000000000000000000000
0000000000000000000000
0000000000000000000000
0000000000000000000000
0000000000000000000000
0000000000000000000000
FFFE00000000000FFFE000
FFFE00000000000FFFE000
FFFE00000000000FFFE000
FFFE00000000000FFFE000
FFFE00000000000FFFE000
003FFFFFFFFFFFFF800000
003FFFFFFFFFFFFF800000
003FFFFFFFFFFFFF800000
003FFFFFFFFFFFFF800000
003FFFFFFFFFFFFF800000
003FFF8000003FFF800000
003FFF8000003FFF800000
003FFF8000003FFF800000
003FFF8000003FFF800000
003FFF8000003FFF800000
003FFFFFFFFFFFFF800000
003FFFFFFFFFFFFF800000
003FFFFFFFFFFFFF800000
003FFFFFFFFFFFFF800000
003FFFFFFFFFFFFF800000
FFFE00000000000FFFE000
FFFE00000000000FFFE000
FFFE00000000000FFFE000
FFFE00000000000FFFE000
FFFE00000000000FFFE000
0000000000000000000000
0000000000000000000000
0000000000000000000000
0000000000000000000000
0000000000000000000000
0000000000000000000000
0000000000000000000000
0000000000000000000000
0000000000000000000000
0000000000000000000000
0000000000000000000000
0000000000000000000000
0000000000000000000000
0000000000000000000000
0000000000000000000000
ENDCHAR
STARTCHAR U+00A7
ENCODING 167
SWIDTH 1000 0
BBX 85 50 0 -10
DWIDTH 85 0
BITMAP
0000000000000000000000
0000000000000000000000
0000000000000000000000
0000000000000000000000
0000000000000000000000
00000FFFFFFFFFFF800000
00000FFFFFFFFFFF800000
00000FFFFFFFFFFF800000
00000FFFFFFFFFFF800000
00000FFFFFFFFFFF800000
003FFF8000000000000000
003FFF8000000000000000
003FFF8000000000000000
003FFF8000000000000000
003FFF8000000000000000
00000FFFFFFFFE00000000
00000FFFFFFFFE00000000
00000FFFFFFFFE00000000
00000FFFFFFFFE00000000
00000FFFFFFFFE00000000
003FFF8000003FFF800000
003FFF8000003FFF800000
003FFF8000003FFF800000
003FFF8000003FFF800000
003FFF8000003FFF800000
00000FFFFFFFFE00000000
00000FFFFFFFFE00000000
00000FFFFFFFFE00000000
00000FFFFFFFFE00000000
00000FFFFFFFFE00000000
0000000000003FFF800000
0000000000003FFF800000
0000000000003FFF800000
0000000000003FFF800000
0000000000003FFF800000
003FFFFFFFFFFE00000000
003FFFFFFFFFFE00000000
003FFFFFFFFFFE00000000
003FFFFFFFFFFE00000000
003FFFFFFFFFFE00000000
0000000000000000000000
0000000000000000000000
0000000000000000000000
0000000000000000000000
0000000000000000000000
0000000000000000000000
0000000000000000000000
0000000000000000000000
0000000000000000000000
0000000000000000000000
ENDCHAR
STARTCHAR U+00A6
ENCODING 166
SWIDTH 1000 0
BBX 85 50 0 -10
DWIDTH 85 0
BITMAP
0000000000000000000000
0000000000000000000000
0000000000000000000000
0000000000000000000000
0000000000000000000000
003FFFFFE0000000000000
003FFFFFE0000000000000
003FFFFFE0000000000000
003FFFFFE0000000000000
003FFFFFE0000000000000
FFFE0003FFF80000000000
FFFE0003FFF80000000000
FFFE0003FFF80000000000
FFFE0003FFF80000000000
FFFE0003FFF80000000000
FFFFFFFFFFF80000000000
FFFFFFFFFFF80000000000
FFFFFFFFFFF80000000000
FFFFFFFFFFF80000000000
FFFFFFFFFFF80000000000
FFFE0003FFF80000000000
FFFE0003FFF80000000000
FFFE0003FFF80000000000
FFFE0003FFF80000000000
FFFE0003FFF80000000000
FFFE0003FFF83FFFFFE000
FFFE0003FFF83FFFFFE000
FFFE0003FFF83FFFFFE000
FFFE0003FFF83FFFFFE000
FFFE0003FFF83FFFFFE000
0000000000FFFE00000000
0000000000FFFE00000000
0000000000FFFE00000000
0000000000FFFE00000000
0000000000FFFE00000000
00000003FFFFFFFF800000
00000003FFFFFFFF800000
00000003FFFFFFFF800000
00000003FFFFFFFF800000
00000003FFFFFFFF800000
00000003FFF8000FFFE000
00000003FFF8000FFFE000
00000003FFF8000FFFE000
00000003FFF8000FFFE000
00000003FFF8000FFFE000
0000000000FFFFFF800000
0000000000FFFFFF800000
0000000000FFFFFF800000
0000000000FFFFFF800000
0000000000FFFFFF800000
ENDCHAR
STARTCHAR U+00A5
ENCODING 165
SWIDTH 1000 0
BBX 85 50 0 -10
DWIDTH 85 0
BITMAP
0000000000000000000000
0000000000000000000000
0000000000000000000000
0000000000000000000000
0000000000000000000000
FFFE00000000000FFFE000
FFFE00000000000FFFE000
FFFE00000000000FFFE000
FFFE00000000000FFFE000
FFFE00000000000FFFE000
003FFF8000003FFF800000
003FFF8000003FFF800000
003FFF8000003FFF800000
003FFF8000003FFF800000
003FFF8000003FFF800000
00000FFFE0FFFE00000000
00000FFFE0FFFE00000000
00000FFFE0FFFE00000000
00000FFFE0FFFE00000000
00000FFFE0FFFE00000000
00000003FFF80000000000
00000003FFF80000000000
00000003FFF80000000000
00000003FFF80000000000
00000003FFF80000000000
FFFFFFFFFFFFFFFFFFE000
FFFFFFFFFFFFFFFFFFE000
FFFFFFFFFFFFFFFFFFE000
FFFFFFFFFFFFFFFFFFE000
FFFFFFFFFFFFFFFFFFE000
00000003FFF80000000000
00000003FFF80000000000
00000003FFF80000000000
00000003FFF80000000000
00000003FFF80000000000
00000003FFF80000000000
00000003FFF80000000000
00000003FFF80000000000
00000003FFF80000000000
00000003FFF80000000000
0000000000000000000000
0000000000000000000000
0000000000000000000000
0000000000000000000000
0000000000000000000000
0000000000000000000000
0000000000000000000000
0000000000000000000000
0000000000000000000000
0000000000000000000000
ENDCHAR
STARTCHAR U+00A8
ENCODING 168
SWIDTH 1000 0
BBX 85 50 0 -10
DWIDTH 85 0
BITMAP
0000000000000000000000
0000000000000000000000
0000000000000000000000
0000000000000000000000
0000000000000000000000
003FFFFFE0000000000000
003FFFFFE0000000000000
003FFFFFE0000000000000
003FFFFFE0000000000000
003FFFFFE0000000000000
FFFE0003FFF80000000000
FFFE0003FFF80000000000
FFFE0003FFF80000000000
FFFE0003FFF80000000000
FFFE0003FFF80000000000
FFFFFFFFFFF80000000000
FFFFFFFFFFF80000000000
FFFFFFFFFFF80000000000
FFFFFFFFFFF80000000000
FFFFFFFFFFF80000000000
FFFE0003FFF80000000000
FFFE0003FFF80000000000
FFFE0003FFF80000000000
FFFE0003FFF80000000000
FFFE0003FFF80000000000
FFFE0003FFF83FFF800000
FFFE0003FFF83FFF800000
FFFE0003FFF83FFF800000
FFFE0003FFF83FFF800000
FFFE0003FFF83FFF800000
0000000000FFFFFF800000
0000000000FFFFFF800000
0000000000FFFFFF800000
0000000000FFFFFF800000
0000000000FFFFFF800000
00000003FFF83FFF800000
00000003FFF83FFF800000
00000003FFF83FFF800000
00000003FFF83FFF800000
00000003FFF83FFF800000
00000FFFFFFFFFFFFFE000
00000FFFFFFFFFFFFFE000
00000FFFFFFFFFFFFFE000
00000FFFFFFFFFFFFFE000
00000FFFFFFFFFFFFFE000
0000000000003FFF800000
0000000000003FFF800000
0000000000003FFF800000
0000000000003FFF800000
0000000000003FFF800000
ENDCHAR
STARTCHAR U+00A3
ENCODING 163
SWIDTH 1000 0
BBX 85 50 0 -10
DWIDTH 85 0
BITMAP
0000000000000000000000
0000000000000000000000
0000000000000000000000
0000000000000000000000
0000000000000000000000
00000003FFFFFFFF800000
00000003FFFFFFFF800000
00000003FFFFFFFF800000
00000003FFFFFFFF800000
00000003FFFFFFFF800000
00000FFFE000000FFFE000
00000FFFE000000FFFE000
00000FFFE000000FFFE000
00000FFFE000000FFFE000
00000FFFE000000FFFE000
00000FFFE0000000000000
00000FFFE0000000000000
00000FFFE0000000000000
00000FFFE0000000000000
00000FFFE0000000000000
FFFFFFFFFFFFFE00000000
FFFFFFFFFFFFFE00000000
FFFFFFFFFFFFFE00000000
FFFFFFFFFFFFFE00000000
FFFFFFFFFFFFFE00000000
00000FFFE0000000000000
00000FFFE0000000000000
00000FFFE0000000000000
00000FFFE0000000000000
00000FFFE0000000000000
003FFFFFFFFFFE00000000
003FFFFFFFFFFE00000000
003FFFFFFFFFFE00000000
003FFFFFFFFFFE00000000
003FFFFFFFFFFE00000000
FFFE0FFFE0003FFFFFE000
FFFE0FFFE0003FFFFFE000
FFFE0FFFE0003FFFFFE000
FFFE0FFFE0003FFFFFE000
FFFE0FFFE0003FFFFFE000
003FFF8000000000000000
003FFF8000000000000000
003FFF8000000000000000
003FFF8000000000000000
003FFF8000000000000000
0000000000000000000000
0000000000000000000000
0000000000000000000000
0000000000000000000000
0000000000000000000000
ENDCHAR
STARTCHAR U+00A2
ENCODING 162
SWIDTH 1000 0
BBX 85 50 0 -10
DWIDTH 85 0
BITMAP
0000000000000000000000
0000000000000000000000
0000000000000000000000
0000000000000000000000
0000000000000000000000
0000000000000000000000
0000000000000000000000
0000000000000000000000
0000000000000000000000
0000000000000000000000
00000003FFF80000000000
00000003FFF80000000000
00000003FFF80000000000
00000003FFF80000000000
00000003FFF80000000000
003FFFFFFFFFFFFF800000
003FFFFFFFFFFFFF800000
003FFFFFFFFFFFFF800000
003FFFFFFFFFFFFF800000
003FFFFFFFFFFFFF800000
FFFE0003FFF8000FFFE000
FFFE0003FFF8000FFFE000
FFFE0003FFF8000FFFE000
FFFE0003FFF8000FFFE000
FFFE0003FFF8000FFFE000
FFFE0003FFF80000000000
FFFE0003FFF80000000000
FFFE0003FFF80000000000
FFFE0003FFF80000000000
FFFE0003FFF80000000000
FFFE0003FFF8000FFFE000
FFFE0003FFF8000FFFE000
FFFE0003FFF8000FFFE000
FFFE0003FFF8000FFFE000
FFFE0003FFF8000FFFE000
003FFFFFFFFFFFFF800000
003FFFFFFFFFFFFF800000
003FFFFFFFFFFFFF800000
003FFFFFFFFFFFFF800000
003FFFFFFFFFFFFF800000
00000003FFF80000000000
00000003FFF80000000000
00000003FFF80000000000
00000003FFF80000000000
00000003FFF80000000000
0000000000000000000000
0000000000000000000000
0000000000000000000000
0000000000000000000000
0000000000000000000000
ENDCHAR
STARTCHAR U+00A1
ENCODING 161
SWIDTH 1000 0
BBX 85 50 0 -10
DWIDTH 85 0
BITMAP
0000000000000000000000
0000000000000000000000
0000000000000000000000
0000000000000000000000
0000000000000000000000
00000003FFF80000000000
00000003FFF80000000000
00000003FFF80000000000
00000003FFF80000000000
00000003FFF80000000000
0000000000000000000000
0000000000000000000000
0000000000000000000000
0000000000000000000000
0000000000000000000000
00000003FFF80000000000
00000003FFF80000000000
00000003FFF80000000000
00000003FFF80000000000
00000003FFF80000000000
00000003FFF80000000000
00000003FFF80000000000
00000003FFF80000000000
00000003FFF80000000000
00000003FFF80000000000
00000003FFF80000000000
00000003FFF80000000000
00000003FFF80000000000
00000003FFF80000000000
00000003FFF80000000000
00000003FFF80000000000
00000003FFF80000000000
00000003FFF80000000000
00000003FFF80000000000
00000003FFF80000000000
00000003FFF80000000000
00000003FFF80000000000
00000003FFF80000000000
00000003FFF80000000000
00000003FFF80000000000
0000000000000000000000
0000000000000000000000
0000000000000000000000
0000000000000000000000
0000000000000000000000
0000000000000000000000
0000000000000000000000
0000000000000000000000
0000000000000000000000
0000000000000000000000
ENDCHAR
STARTCHAR U+007F
ENCODING 127
SWIDTH 1000 0
BBX 85 50 0 -10
DWIDTH 85 0
BITMAP
0000000000000000000000
0000000000000000000000
0000000000000000000000
0000000000000000000000
0000000000000000000000
FFFFFFFFE0000000000000
FFFFFFFFE0000000000000
FFFFFFFFE0000000000000
FFFFFFFFE0000000000000
FFFFFFFFE0000000000000
FFFE0003FFF80000000000
FFFE0003FFF80000000000
FFFE0003FFF80000000000
FFFE0003FFF80000000000
FFFE0003FFF80000000000
FFFE0003FFF80000000000
FFFE0003FFF80000000000
FFFE0003FFF80000000000
FFFE0003FFF80000000000
FFFE0003FFF80000000000
FFFE0003FFF80000000000
FFFE0003FFF80000000000
FFFE0003FFF80000000000
FFFE0003FFF80000000000
FFFE0003FFF80000000000
FFFFFFFFFFFFFE00000000
FFFFFFFFFFFFFE00000000
FFFFFFFFFFFFFE00000000
FFFFFFFFFFFFFE00000000
FFFFFFFFFFFFFE00000000
00000FFFE0000000000000
00000FFFE0000000000000
00000FFFE0000000000000
00000FFFE0000000000000
00000FFFE0000000000000
00000FFFE0000000000000
00000FFFE0000000000000
00000FFFE0000000000000
00000FFFE0000000000000
00000FFFE0000000000000
00000FFFE0000000000000
00000FFFE0000000000000
00000FFFE0000000000000
00000FFFE0000000000000
00000FFFE0000000000000
00000FFFE0000000000000
00000FFFE0000000000000
00000FFFE0000000000000
00000FFFE0000000000000
00000FFFE0000000000000
ENDCHAR
STARTCHAR U+007E
ENCODING 126
SWIDTH 1000 0
BBX 85 50 0 -10
DWIDTH 85 0
BITMAP
0000000000000000000000
0000000000000000000000
0000000000000000000000
0000000000000000000000
0000000000000000000000
003FFFFFE000000FFFE000
003FFFFFE000000FFFE000
003FFFFFE000000FFFE000
003FFFFFE000000FFFE000
003FFFFFE000000FFFE000
FFFE0003FFF8000FFFE000
FFFE0003FFF8000FFFE000
FFFE0003FFF8000FFFE000
FFFE0003FFF8000FFFE000
FFFE0003FFF8000FFFE000
FFFE000000FFFFFF800000
FFFE000000FFFFFF800000
FFFE000000FFFFFF800000
FFFE000000FFFFFF800000
FFFE000000FFFFFF800000
0000000000000000000000
0000000000000000000000
0000000000000000000000
0000000000000000000000
0000000000000000000000
0000000000000000000000
0000000000000000000000
0000000000000000000000
0000000000000000000000
0000000000000000000000
0000000000000000000000
0000000000000000000000
0000000000000000000000
0000000000000000000000
0000000000000000000000
0000000000000000000000
0000000000000000000000
0000000000000000000000
0000000000000000000000
0000000000000000000000
0000000000000000000000
0000000000000000000000
0000000000000000000000
0000000000000000000000
0000000000000000000000
0000000000000000000000
0000000000000000000000
0000000000000000000000
0000000000000000000000
0000000000000000000000
ENDCHAR
STARTCHAR U+007D
ENCODING 125
SWIDTH 1000 0
BBX 85 50 0 -10
DWIDTH 85 0
BITMAP
0000000000000000000000
0000000000000000000000
0000000000000000000000
0000000000000000000000
0000000000000000000000
FFFFFFFFE0000000000000
FFFFFFFFE0000000000000
FFFFFFFFE0000000000000
FFFFFFFFE0000000000000
FFFFFFFFE0000000000000
00000003FFF80000000000
00000003FFF80000000000
00000003FFF80000000000
00000003FFF80000000000
00000003FFF80000000000
00000FFFE0000000000000
00000FFFE0000000000000
00000FFFE0000000000000
00000FFFE0000000000000
00000FFFE0000000000000
00000003FFFFFE00000000
00000003FFFFFE00000000
00000003FFFFFE00000000
00000003FFFFFE00000000
00000003FFFFFE00000000
00000FFFE0000000000000
00000FFFE0000000000000
00000FFFE0000000000000
00000FFFE0000000000000
00000FFFE0000000000000
00000003FFF80000000000
00000003FFF80000000000
00000003FFF80000000000
00000003FFF80000000000
00000003FFF80000000000
FFFFFFFFE0000000000000
FFFFFFFFE0000000000000
FFFFFFFFE0000000000000
FFFFFFFFE0000000000000
FFFFFFFFE0000000000000
0000000000000000000000
0000000000000000000000
0000000000000000000000
0000000000000000000000
0000000000000000000000
0000000000000000000000
0000000000000000000000
0000000000000000000000
0000000000000000000000
0000000000000000000000
ENDCHAR
STARTCHAR U+007C
ENCODING 124
SWIDTH 1000 0
BBX 85 50 0 -10
DWIDTH 85 0
BITMAP
0000000000000000000000
0000000000000000000000
0000000000000000000000
0000000000000000000000
0000000000000000000000
00000003FFF80000000000
00000003FFF80000000000
00000003FFF80000000000
00000003FFF80000000000
00000003FFF80000000000
00000003FFF80000000000
00000003FFF80000000000
00000003FFF80000000000
00000003FFF80000000000
00000003FFF80000000000
00000003FFF80000000000
00000003FFF80000000000
00000003FFF80000000000
00000003FFF80000000000
00000003FFF80000000000
00000003FFF80000000000
00000003FFF80000000000
00000003FFF80000000000
00000003FFF80000000000
00000003FFF80000000000
00000003FFF80000000000
00000003FFF80000000000
00000003FFF80000000000
00000003FFF80000000000
00000003FFF80000000000
00000003FFF80000000000
00000003FFF80000000000
00000003FFF80000000000
00000003FFF80000000000
00000003FFF80000000000
00000003FFF80000000000
00000003FFF80000000000
00000003FFF80000000000
00000003FFF80000000000
00000003FFF80000000000
0000000000000000000000
0000000000000000000000
0000000000000000000000
0000000000000000000000
0000000000000000000000
0000000000000000000000
0000000000000000000000
0000000000000000000000
0000000000000000000000
0000000000000000000000
ENDCHAR
STARTCHAR U+007B
ENCODING 123
SWIDTH 1000 0
BBX 85 50 0 -10
DWIDTH 85 0
BITMAP
0000000000000000000000
0000000000000000000000
0000000000000000000000
0000000000000000000000
0000000000000000000000
0000000000FFFFFFFFE000
0000000000FFFFFFFFE000
0000000000FFFFFFFFE000
0000000000FFFFFFFFE000
0000000000FFFFFFFFE000
00000003FFF80000000000
00000003FFF80000000000
00000003FFF80000000000
00000003FFF80000000000
00000003FFF80000000000
0000000000FFFE00000000
0000000000FFFE00000000
0000000000FFFE00000000
0000000000FFFE00000000
0000000000FFFE00000000
00000FFFFFF80000000000
00000FFFFFF80000000000
00000FFFFFF80000000000
00000FFFFFF80000000000
00000FFFFFF80000000000
0000000000FFFE00000000
0000000000FFFE00000000
0000000000FFFE00000000
0000000000FFFE00000000
0000000000FFFE00000000
00000003FFF80000000000
00000003FFF80000000000
00000003FFF80000000000
00000003FFF80000000000
00000003FFF80000000000
0000000000FFFFFFFFE000
0000000000FFFFFFFFE000
0000000000FFFFFFFFE000
0000000000FFFFFFFFE000
0000000000FFFFFFFFE000
0000000000000000000000
0000000000000000000000
0000000000000000000000
0000000000000000000000
0000000000000000000000
0000000000000000000000
0000000000000000000000
0000000000000000000000
0000000000000000000000
0000000000000000000000
ENDCHAR
STARTCHAR U+007A
ENCODING 122
SWIDTH 1000 0
BBX 85 50 0 -10
DWIDTH 85 0
BITMAP
0000000000000000000000
0000000000000000000000
0000000000000000000000
0000000000000000000000
0000000000000000000000
0000000000000000000000
0000000000000000000000
0000000000000000000000
0000000000000000000000
0000000000000000000000
0000000000000000000000
0000000000000000000000
0000000000000000000000
0000000000000000000000
0000000000000000000000
FFFFFFFFFFFFFFFFFFE000
FFFFFFFFFFFFFFFFFFE000
FFFFFFFFFFFFFFFFFFE000
FFFFFFFFFFFFFFFFFFE000
FFFFFFFFFFFFFFFFFFE000
0000000000003FFF800000
0000000000003FFF800000
0000000000003FFF800000
0000000000003FFF800000
0000000000003FFF800000
00000003FFFFFE00000000
00000003FFFFFE00000000
00000003FFFFFE00000000
00000003FFFFFE00000000
00000003FFFFFE00000000
00000FFFE0000000000000
00000FFFE0000000000000
00000FFFE0000000000000
00000FFFE0000000000000
00000FFFE0000000000000
FFFFFFFFFFFFFFFFFFE000
FFFFFFFFFFFFFFFFFFE000
FFFFFFFFFFFFFFFFFFE000
FFFFFFFFFFFFFFFFFFE000
FFFFFFFFFFFFFFFFFFE000
0000000000000000000000
0000000000000000000000
0000000000000000000000
0000000000000000000000
0000000000000000000000
0000000000000000000000
0000000000000000000000
0000000000000000000000
0000000000000000000000
0000000000000000000000
ENDCHAR
STARTCHAR U+0079
ENCODING 121
SWIDTH 1000 0
BBX 85 50 0 -10
DWIDTH 85 0
BITMAP
0000000000000000000000
0000000000000000000000
0000000000000000000000
0000000000000000000000
0000000000000000000000
0000000000000000000000
0000000000000000000000
0000000000000000000000
0000000000000000000000
0000000000000000000000
0000000000000000000000
0000000000000000000000
0000000000000000000000
0000000000000000000000
0000000000000000000000
FFFE000000003FFF800000
FFFE000000003FFF800000
FFFE000000003FFF800000
FFFE000000003FFF800000
FFFE000000003FFF800000
FFFE000000003FFF800000
FFFE000000003FFF800000
FFFE000000003FFF800000
FFFE000000003FFF800000
FFFE000000003FFF800000
FFFE000000FFFFFF800000
FFFE000000FFFFFF800000
FFFE000000FFFFFF800000
FFFE000000FFFFFF800000
FFFE000000FFFFFF800000
003FFFFFFFF83FFF800000
003FFFFFFFF83FFF800000
003FFFFFFFF83FFF800000
003FFFFFFFF83FFF800000
003FFFFFFFF83FFF800000
0000000000003FFF800000
0000000000003FFF800000
0000000000003FFF800000
0000000000003FFF800000
0000000000003FFF800000
FFFE000000003FFF800000
FFFE000000003FFF800000
FFFE000000003FFF800000
FFFE000000003FFF800000
FFFE000000003FFF800000
003FFFFFFFFFFE00000000
003FFFFFFFFFFE00000000
003FFFFFFFFFFE00000000
003FFFFFFFFFFE00000000
003FFFFFFFFFFE00000000
ENDCHAR
STARTCHAR U+0078
ENCODING 120
SWIDTH 1000 0
BBX 85 50 0 -10
DWIDTH 85 0
BITMAP
0000000000000000000000
0000000000000000000000
0000000000000000000000
0000000000000000000000
0000000000000000000000
0000000000000000000000
0000000000000000000000
0000000000000000000000
0000000000000000000000
0000000000000000000000
0000000000000000000000
0000000000000000000000
0000000000000000000000
0000000000000000000000
0000000000000000000000
FFFE000000003FFF800000
FFFE000000003FFF800000
FFFE000000003FFF800000
FFFE000000003FFF800000
FFFE000000003FFF800000
003FFF8000FFFE00000000
003FFF8000FFFE00000000
003FFF8000FFFE00000000
003FFF8000FFFE00000000
003FFF8000FFFE00000000
00000FFFFFF80000000000
00000FFFFFF80000000000
00000FFFFFF80000000000
00000FFFFFF80000000000
00000FFFFFF80000000000
003FFF8000FFFE00000000
003FFF8000FFFE00000000
003FFF8000FFFE00000000
003FFF8000FFFE00000000
003FFF8000FFFE00000000
FFFE000000003FFF800000
FFFE000000003FFF800000
FFFE000000003FFF800000
FFFE000000003FFF800000
FFFE000000003FFF800000
0000000000000000000000
0000000000000000000000
0000000000000000000000
0000000000000000000000
0000000000000000000000
0000000000000000000000
0000000000000000000000
0000000000000000000000
0000000000000000000000
0000000000000000000000
ENDCHAR
STARTCHAR U+0077
ENCODING 119
SWIDTH 1000 0
BBX 85 50 0 -10
DWIDTH 85 0
BITMAP
0000000000000000000000
0000000000000000000000
0000000000000000000000
0000000000000000000000
0000000000000000000000
0000000000000000000000
0000000000000000000000
0000000000000000000000
0000000000000000000000
0000000000000000000000
0000000000000000000000
0000000000000000000000
0000000000000000000000
0000000000000000000000
0000000000000000000000
FFFE00000000000FFFE000
FFFE00000000000FFFE000
FFFE00000000000FFFE000
FFFE00000000000FFFE000
FFFE00000000000FFFE000
FFFE00000000000FFFE000
FFFE00000000000FFFE000
FFFE00000000000FFFE000
FFFE00000000000FFFE000
FFFE00000000000FFFE000
FFFE0003FFF8000FFFE000
FFFE0003FFF8000FFFE000
FFFE0003FFF8000FFFE000
FFFE0003FFF8000FFFE000
FFFE0003FFF8000FFFE000
FFFE0FFFE0FFFE0FFFE000
FFFE0FFFE0FFFE0FFFE000
FFFE0FFFE0FFFE0FFFE000
FFFE0FFFE0FFFE0FFFE000
FFFE0FFFE0FFFE0FFFE000
003FFF8000003FFF800000
003FFF8000003FFF800000
003FFF8000003FFF800000
003FFF8000003FFF800000
003FFF8000003FFF800000
0000000000000000000000
0000000000000000000000
0000000000000000000000
0000000000000000000000
0000000000000000000000
0000000000000000000000
0000000000000000000000
0000000000000000000000
0000000000000000000000
0000000000000000000000
ENDCHAR
STARTCHAR U+0076
ENCODING 118
SWIDTH 1000 0
BBX 85 50 0 -10
DWIDTH 85 0
BITMAP
0000000000000000000000
0000000000000000000000
0000000000000000000000
0000000000000000000000
0000000000000000000000
0000000000000000000000
0000000000000000000000
0000000000000000000000
0000000000000000000000
0000000000000000000000
0000000000000000000000
0000000000000000000000
0000000000000000000000
0000000000000000000000
0000000000000000000000
FFFE00000000000FFFE000
FFFE00000000000FFFE000
FFFE00000000000FFFE000
FFFE00000000000FFFE000
FFFE00000000000FFFE000
FFFE00000000000FFFE000
FFFE00000000000FFFE000
FFFE00000000000FFFE000
FFFE00000000000FFFE000
FFFE00000000000FFFE000
003FFF8000003FFF800000
003FFF8000003FFF800000
003FFF8000003FFF800000
003FFF8000003FFF800000
003FFF8000003FFF800000
00000FFFE0FFFE00000000
00000FFFE0FFFE00000000
00000FFFE0FFFE00000000
00000FFFE0FFFE00000000
00000FFFE0FFFE00000000
00000003FFF80000000000
00000003FFF80000000000
00000003FFF80000000000
00000003FFF80000000000
00000003FFF80000000000
0000000000000000000000
0000000000000000000000
0000000000000000000000
0000000000000000000000
0000000000000000000000
0000000000000000000000
0000000000000000000000
0000000000000000000000
0000000000000000000000
0000000000000000000000
ENDCHAR
STARTCHAR U+0075
ENCODING 117
SWIDTH 1000 0
BBX 85 50 0 -10
DWIDTH 85 0
BITMAP
0000000000000000000000
0000000000000000000000
0000000000000000000000
0000000000000000000000
0000000000000000000000
0000000000000000000000
0000000000000000000000
0000000000000000000000
0000000000000000000000
0000000000000000000000
0000000000000000000000
0000000000000000000000
0000000000000000000000
0000000000000000000000
0000000000000000000000
FFFE000000003FFF800000
FFFE000000003FFF800000
FFFE000000003FFF800000
FFFE000000003FFF800000
FFFE000000003FFF800000
FFFE000000003FFF800000
FFFE000000003FFF800000
FFFE000000003FFF800000
FFFE000000003FFF800000
FFFE000000003FFF800000
FFFE000000003FFF800000
FFFE000000003FFF800000
FFFE000000003FFF800000
FFFE000000003FFF800000
FFFE000000003FFF800000
FFFE000000003FFF800000
FFFE000000003FFF800000
FFFE000000003FFF800000
FFFE000000003FFF800000
FFFE000000003FFF800000
003FFFFFFFFFFE0FFFE000
003FFFFFFFFFFE0FFFE000
003FFFFFFFFFFE0FFFE000
003FFFFFFFFFFE0FFFE000
003FFFFFFFFFFE0FFFE000
0000000000000000000000
0000000000000000000000
0000000000000000000000
0000000000000000000000
0000000000000000000000
0000000000000000000000
0000000000000000000000
0000000000000000000000
0000000000000000000000
0000000000000000000000
ENDCHAR
STARTCHAR U+0074
ENCODING 116
SWIDTH 1000 0
BBX 85 50 0 -10
DWIDTH 85 0
BITMAP
0000000000000000000000
0000000000000000000000
0000000000000000000000
0000000000000000000000
0000000000000000000000
00000FFFE0000000000000
00000FFFE0000000000000
00000FFFE0000000000000
00000FFFE0000000000000
00000FFFE0000000000000
00000FFFE0000000000000
00000FFFE0000000000000
00000FFFE0000000000000
00000FFFE0000000000000
00000FFFE0000000000000
FFFFFFFFFFFFFE00000000
FFFFFFFFFFFFFE00000000
FFFFFFFFFFFFFE00000000
FFFFFFFFFFFFFE00000000
FFFFFFFFFFFFFE00000000
00000FFFE0000000000000
00000FFFE0000000000000
00000FFFE0000000000000
00000FFFE0000000000000
00000FFFE0000000000000
00000FFFE0000000000000
00000FFFE0000000000000
00000FFFE0000000000000
00000FFFE0000000000000
00000FFFE0000000000000
00000FFFE0003FFF800000
00000FFFE0003FFF800000
00000FFFE0003FFF800000
00000FFFE0003FFF800000
00000FFFE0003FFF800000
00000003FFFFFE00000000
00000003FFFFFE00000000
00000003FFFFFE00000000
00000003FFFFFE00000000
00000003FFFFFE00000000
0000000000000000000000
0000000000000000000000
0000000000000000000000
0000000000000000000000
0000000000000000000000
0000000000000000000000
0000000000000000000000
0000000000000000000000
0000000000000000000000
0000000000000000000000
ENDCHAR
STARTCHAR U+0073
ENCODING 115
SWIDTH 1000 0
BBX 85 50 0 -10
DWIDTH 85 0
BITMAP
0000000000000000000000
0000000000000000000000
0000000000000000000000
0000000000000000000000
0000000000000000000000
0000000000000000000000
0000000000000000000000
0000000000000000000000
0000000000000000000000
0000000000000000000000
0000000000000000000000
0000000000000000000000
0000000000000000000000
0000000000000000000000
0000000000000000000000
003FFFFFFFFFFFFF800000
003FFFFFFFFFFFFF800000
003FFFFFFFFFFFFF800000
003FFFFFFFFFFFFF800000
003FFFFFFFFFFFFF800000
FFFE000000000000000000
FFFE000000000000000000
FFFE000000000000000000
FFFE000000000000000000
FFFE000000000000000000
003FFFFFFFFFFFFF800000
003FFFFFFFFFFFFF800000
003FFFFFFFFFFFFF800000
003FFFFFFFFFFFFF800000
003FFFFFFFFFFFFF800000
000000000000000FFFE000
000000000000000FFFE000
000000000000000FFFE000
000000000000000FFFE000
000000000000000FFFE000
FFFFFFFFFFFFFFFF800000
FFFFFFFFFFFFFFFF800000
FFFFFFFFFFFFFFFF800000
FFFFFFFFFFFFFFFF800000
FFFFFFFFFFFFFFFF800000
0000000000000000000000
0000000000000000000000
0000000000000000000000
0000000000000000000000
0000000000000000000000
0000000000000000000000
0000000000000000000000
0000000000000000000000
0000000000000000000000
0000000000000000000000
ENDCHAR
STARTCHAR U+0072
ENCODING 114
SWIDTH 1000 0
BBX 85 50 0 -10
DWIDTH 85 0
BITMAP
0000000000000000000000
0000000000000000000000
0000000000000000000000
0000000000000000000000
0000000000000000000000
0000000000000000000000
0000000000000000000000
0000000000000000000000
0000000000000000000000
0000000000000000000000
0000000000000000000000
0000000000000000000000
0000000000000000000000
0000000000000000000000
0000000000000000000000
FFFE0003FFFFFFFF800000
FFFE0003FFFFFFFF800000
FFFE0003FFFFFFFF800000
FFFE0003FFFFFFFF800000
FFFE0003FFFFFFFF800000
003FFFFFE000000FFFE000
003FFFFFE000000FFFE000
003FFFFFE000000FFFE000
003FFFFFE000000FFFE000
003FFFFFE000000FFFE000
003FFF8000000000000000
003FFF8000000000000000
003FFF8000000000000000
003FFF8000000000000000
003FFF8000000000000000
003FFF8000000000000000
003FFF8000000000000000
003FFF8000000000000000
003FFF8000000000000000
003FFF8000000000000000
003FFF8000000000000000
003FFF8000000000000000
003FFF8000000000000000
003FFF8000000000000000
003FFF8000000000000000
0000000000000000000000
0000000000000000000000
0000000000000000000000
0000000000000000000000
0000000000000000000000
0000000000000000000000
0000000000000000000000
0000000000000000000000
0000000000000000000000
0000000000000000000000
ENDCHAR
STARTCHAR U+0071
ENCODING 113
SWIDTH 1000 0
BBX 85 50 0 -10
DWIDTH 85 0
BITMAP
0000000000000000000000
0000000000000000000000
0000000000000000000000
0000000000000000000000
0000000000000000000000
0000000000000000000000
0000000000000000000000
0000000000000000000000
0000000000000000000000
0000000000000000000000
0000000000000000000000
0000000000000000000000
0000000000000000000000
0000000000000000000000
0000000000000000000000
003FFFFFFFFFFE0FFFE000
003FFFFFFFFFFE0FFFE000
003FFFFFFFFFFE0FFFE000
003FFFFFFFFFFE0FFFE000
003FFFFFFFFFFE0FFFE000
FFFE000000003FFFFFE000
FFFE000000003FFFFFE000
FFFE000000003FFFFFE000
FFFE000000003FFFFFE000
FFFE000000003FFFFFE000
FFFE000000003FFFFFE000
FFFE000000003FFFFFE000
FFFE000000003FFFFFE000
FFFE000000003FFFFFE000
FFFE000000003FFFFFE000
003FFFFFFFFFFE0FFFE000
003FFFFFFFFFFE0FFFE000
003FFFFFFFFFFE0FFFE000
003FFFFFFFFFFE0FFFE000
003FFFFFFFFFFE0FFFE000
000000000000000FFFE000
000000000000000FFFE000
000000000000000FFFE000
000000000000000FFFE000
000000000000000FFFE000
000000000000000FFFE000
000000000000000FFFE000
000000000000000FFFE000
000000000000000FFFE000
000000000000000FFFE000
000000000000000FFFE000
000000000000000FFFE000
000000000000000FFFE000
000000000000000FFFE000
000000000000000FFFE000
ENDCHAR
STARTCHAR U+0070
ENCODING 112
SWIDTH 1000 0
BBX 85 50 0 -10
DWIDTH 85 0
BITMAP
0000000000000000000000
0000000000000000000000
0000000000000000000000
0000000000000000000000
0000000000000000000000
0000000000000000000000
0000000000000000000000
0000000000000000000000
0000000000000000000000
0000000000000000000000
0000000000000000000000
0000000000000000000000
0000000000000000000000
0000000000000000000000
0000000000000000000000
FFFE0FFFFFFFFFFF800000
FFFE0FFFFFFFFFFF800000
FFFE0FFFFFFFFFFF800000
FFFE0FFFFFFFFFFF800000
FFFE0FFFFFFFFFFF800000
FFFFFF800000000FFFE000
FFFFFF800000000FFFE000
FFFFFF800000000FFFE000
FFFFFF800000000FFFE000
FFFFFF800000000FFFE000
FFFFFF800000000FFFE000
FFFFFF800000000FFFE000
FFFFFF800000000FFFE000
FFFFFF800000000FFFE000
FFFFFF800000000FFFE000
FFFE0FFFFFFFFFFF800000
FFFE0FFFFFFFFFFF800000
FFFE0FFFFFFFFFFF800000
FFFE0FFFFFFFFFFF800000
FFFE0FFFFFFFFFFF800000
FFFE000000000000000000
FFFE000000000000000000
FFFE000000000000000000
FFFE000000000000000000
FFFE000000000000000000
FFFE000000000000000000
FFFE000000000000000000
FFFE000000000000000000
FFFE000000000000000000
FFFE000000000000000000
FFFE000000000000000000
FFFE000000000000000000
FFFE000000000000000000
FFFE000000000000000000
FFFE000000000000000000
ENDCHAR
STARTCHAR U+006f
ENCODING 111
SWIDTH 1000 0
BBX 85 50 0 -10
DWIDTH 85 0
BITMAP
0000000000000000000000
0000000000000000000000
0000000000000000000000
0000000000000000000000
0000000000000000000000
0000000000000000000000
0000000000000000000000
0000000000000000000000
0000000000000000000000
0000000000000000000000
0000000000000000000000
0000000000000000000000
0000000000000000000000
0000000000000000000000
0000000000000000000000
003FFFFFFFFFFFFF800000
003FFFFFFFFFFFFF800000
003FFFFFFFFFFFFF800000
003FFFFFFFFFFFFF800000
003FFFFFFFFFFFFF800000
FFFE00000000000FFFE000
FFFE00000000000FFFE000
FFFE00000000000FFFE000
FFFE00000000000FFFE000
FFFE00000000000FFFE000
FFFE00000000000FFFE000
FFFE00000000000FFFE000
FFFE00000000000FFFE000
FFFE00000000000FFFE000
FFFE00000000000FFFE000
FFFE00000000000FFFE000
FFFE00000000000FFFE000
FFFE00000000000FFFE000
FFFE00000000000FFFE000
FFFE00000000000FFFE000
003FFFFFFFFFFFFF800000
003FFFFFFFFFFFFF800000
003FFFFFFFFFFFFF800000
003FFFFFFFFFFFFF800000
003FFFFFFFFFFFFF800000
0000000000000000000000
0000000000000000000000
0000000000000000000000
0000000000000000000000
0000000000000000000000
0000000000000000000000
0000000000000000000000
0000000000000000000000
0000000000000000000000
0000000000000000000000
ENDCHAR
STARTCHAR U+006e
ENCODING 110
SWIDTH 1000 0
BBX 85 50 0 -10
DWIDTH 85 0
BITMAP
0000000000000000000000
0000000000000000000000
0000000000000000000000
0000000000000000000000
0000000000000000000000
0000000000000000000000
0000000000000000000000
0000000000000000000000
0000000000000000000000
0000000000000000000000
0000000000000000000000
0000000000000000000000
0000000000000000000000
0000000000000000000000
0000000000000000000000
FFFE0FFFFFFFFFFF800000
FFFE0FFFFFFFFFFF800000
FFFE0FFFFFFFFFFF800000
FFFE0FFFFFFFFFFF800000
FFFE0FFFFFFFFFFF800000
FFFFFF800000000FFFE000
FFFFFF800000000FFFE000
FFFFFF800000000FFFE000
FFFFFF800000000FFFE000
FFFFFF800000000FFFE000
FFFE00000000000FFFE000
FFFE00000000000FFFE000
FFFE00000000000FFFE000
FFFE00000000000FFFE000
FFFE00000000000FFFE000
FFFE00000000000FFFE000
FFFE00000000000FFFE000
FFFE00000000000FFFE000
FFFE00000000000FFFE000
FFFE00000000000FFFE000
FFFE00000000000FFFE000
FFFE00000000000FFFE000
FFFE00000000000FFFE000
FFFE00000000000FFFE000
FFFE00000000000FFFE000
0000000000000000000000
0000000000000000000000
0000000000000000000000
0000000000000000000000
0000000000000000000000
0000000000000000000000
0000000000000000000000
0000000000000000000000
0000000000000000000000
0000000000000000000000
ENDCHAR
STARTCHAR U+006d
ENCODING 109
SWIDTH 1000 0
BBX 85 50 0 -10
DWIDTH 85 0
BITMAP
0000000000000000000000
0000000000000000000000
0000000000000000000000
0000000000000000000000
0000000000000000000000
0000000000000000000000
0000000000000000000000
0000000000000000000000
0000000000000000000000
0000000000000000000000
0000000000000000000000
0000000000000000000000
0000000000000000000000
0000000000000000000000
0000000000000000000000
FFFFFF8000003FFF800000
FFFFFF8000003FFF800000
FFFFFF8000003FFF800000
FFFFFF8000003FFF800000
FFFFFF8000003FFF800000
FFFE0FFFE0FFFE0FFFE000
FFFE0FFFE0FFFE0FFFE000
FFFE0FFFE0FFFE0FFFE000
FFFE0FFFE0FFFE0FFFE000
FFFE0FFFE0FFFE0FFFE000
FFFE0003FFF8000FFFE000
FFFE0003FFF8000FFFE000
FFFE0003FFF8000FFFE000
FFFE0003FFF8000FFFE000
FFFE0003FFF8000FFFE000
FFFE0003FFF8000FFFE000
FFFE0003FFF8000FFFE000
FFFE0003FFF8000FFFE000
FFFE0003FFF8000FFFE000
FFFE0003FFF8000FFFE000
FFFE00000000000FFFE000
FFFE00000000000FFFE000
FFFE00000000000FFFE000
FFFE00000000000FFFE000
FFFE00000000000FFFE000
0000000000000000000000
0000000000000000000000
0000000000000000000000
0000000000000000000000
0000000000000000000000
0000000000000000000000
0000000000000000000000
0000000000000000000000
0000000000000000000000
0000000000000000000000
ENDCHAR
STARTCHAR U+006c
ENCODING 108
SWIDTH 1000 0
BBX 85 50 0 -10
DWIDTH 85 0
BITMAP
0000000000000000000000
0000000000000000000000
0000000000000000000000
0000000000000000000000
0000000000000000000000
00000FFFFFF80000000000
00000FFFFFF80000000000
00000FFFFFF80000000000
00000FFFFFF80000000000
00000FFFFFF80000000000
00000003FFF80000000000
00000003FFF80000000000
00000003FFF80000000000
00000003FFF80000000000
00000003FFF80000000000
00000003FFF80000000000
00000003FFF80000000000
00000003FFF80000000000
00000003FFF80000000000
00000003FFF80000000000
00000003FFF80000000000
00000003FFF80000000000
00000003FFF80000000000
00000003FFF80000000000
00000003FFF80000000000
00000003FFF80000000000
00000003FFF80000000000
00000003FFF80000000000
00000003FFF80000000000
00000003FFF80000000000
00000003FFF80000000000
00000003FFF80000000000
00000003FFF80000000000
00000003FFF80000000000
00000003FFF80000000000
00000FFFFFFFFE00000000
00000FFFFFFFFE00000000
00000FFFFFFFFE00000000
00000FFFFFFFFE00000000
00000FFFFFFFFE00000000
0000000000000000000000
0000000000000000000000
0000000000000000000000
0000000000000000000000
0000000000000000000000
0000000000000000000000
0000000000000000000000
0000000000000000000000
0000000000000000000000
0000000000000000000000
ENDCHAR
STARTCHAR U+006b
ENCODING 107
SWIDTH 1000 0
BBX 85 50 0 -10
DWIDTH 85 0
BITMAP
0000000000000000000000
0000000000000000000000
0000000000000000000000
0000000000000000000000
0000000000000000000000
FFFE000000000000000000
FFFE000000000000000000
FFFE000000000000000000
FFFE000000000000000000
FFFE000000000000000000
FFFE000000000000000000
FFFE000000000000000000
FFFE000000000000000000
FFFE000000000000000000
FFFE000000000000000000
FFFE000000FFFE00000000
FFFE000000FFFE00000000
FFFE000000FFFE00000000
FFFE000000FFFE00000000
FFFE000000FFFE00000000
FFFE0003FFF80000000000
FFFE0003FFF80000000000
FFFE0003FFF80000000000
FFFE0003FFF80000000000
FFFE0003FFF80000000000
FFFFFFFFE0000000000000
FFFFFFFFE0000000000000
FFFFFFFFE0000000000000
FFFFFFFFE0000000000000
FFFFFFFFE0000000000000
FFFE000000FFFE00000000
FFFE000000FFFE00000000
FFFE000000FFFE00000000
FFFE000000FFFE00000000
FFFE000000FFFE00000000
FFFE00000000000FFFE000
FFFE00000000000FFFE000
FFFE00000000000FFFE000
FFFE00000000000FFFE000
FFFE00000000000FFFE000
0000000000000000000000
0000000000000000000000
0000000000000000000000
0000000000000000000000
0000000000000000000000
0000000000000000000000
0000000000000000000000
0000000000000000000000
0000000000000000000000
0000000000000000000000
ENDCHAR
STARTCHAR U+006a
ENCODING 106
SWIDTH 1000 0
BBX 85 50 0 -10
DWIDTH 85 0
BITMAP
0000000000000000000000
0000000000000000000000
0000000000000000000000
0000000000000000000000
0000000000000000000000
0000000000003FFF800000
0000000000003FFF800000
0000000000003FFF800000
0000000000003FFF800000
0000000000003FFF800000
0000000000000000000000
0000000000000000000000
0000000000000000000000
0000000000000000000000
0000000000000000000000
0000000000003FFF800000
0000000000003FFF800000
0000000000003FFF800000
0000000000003FFF800000
0000000000003FFF800000
0000000000003FFF800000
0000000000003FFF800000
0000000000003FFF800000
0000000000003FFF800000
0000000000003FFF800000
0000000000003FFF800000
0000000000003FFF800000
0000000000003FFF800000
0000000000003FFF800000
0000000000003FFF800000
0000000000003FFF800000
0000000000003FFF800000
0000000000003FFF800000
0000000000003FFF800000
0000000000003FFF800000
FFFE000000003FFF800000
FFFE000000003FFF800000
FFFE000000003FFF800000
FFFE000000003FFF800000
FFFE000000003FFF800000
FFFE000000003FFF800000
FFFE000000003FFF800000
FFFE000000003FFF800000
FFFE000000003FFF800000
FFFE000000003FFF800000
003FFFFFFFFFFE00000000
003FFFFFFFFFFE00000000
003FFFFFFFFFFE00000000
003FFFFFFFFFFE00000000
003FFFFFFFFFFE00000000
ENDCHAR
STARTCHAR U+0069
ENCODING 105
SWIDTH 1000 0
BBX 85 50 0 -10
DWIDTH 85 0
BITMAP
0000000000000000000000
0000000000000000000000
0000000000000000000000
0000000000000000000000
0000000000000000000000
00000003FFF80000000000
00000003FFF80000000000
00000003FFF80000000000
00000003FFF80000000000
00000003FFF80000000000
0000000000000000000000
0000000000000000000000
0000000000000000000000
0000000000000000000000
0000000000000000000000
00000FFFFFF80000000000
00000FFFFFF80000000000
00000FFFFFF80000000000
00000FFFFFF80000000000
00000FFFFFF80000000000
00000003FFF80000000000
00000003FFF80000000000
00000003FFF80000000000
00000003FFF80000000000
00000003FFF80000000000
00000003FFF80000000000
00000003FFF80000000000
00000003FFF80000000000
00000003FFF80000000000
00000003FFF80000000000
00000003FFF80000000000
00000003FFF80000000000
00000003FFF80000000000
00000003FFF80000000000
00000003FFF80000000000
003FFFFFFFFFFFFF800000
003FFFFFFFFFFFFF800000
003FFFFFFFFFFFFF800000
003FFFFFFFFFFFFF800000
003FFFFFFFFFFFFF800000
0000000000000000000000
0000000000000000000000
0000000000000000000000
0000000000000000000000
0000000000000000000000
0000000000000000000000
0000000000000000000000
0000000000000000000000
0000000000000000000000
0000000000000000000000
ENDCHAR
STARTCHAR U+0068
ENCODING 104
SWIDTH 1000 0
BBX 85 50 0 -10
DWIDTH 85 0
BITMAP
0000000000000000000000
0000000000000000000000
0000000000000000000000
0000000000000000000000
0000000000000000000000
FFFE000000000000000000
FFFE000000000000000000
FFFE000000000000000000
FFFE000000000000000000
FFFE000000000000000000
FFFE000000000000000000
FFFE000000000000000000
FFFE000000000000000000
FFFE000000000000000000
FFFE000000000000000000
FFFE0FFFFFFFFFFF800000
FFFE0FFFFFFFFFFF800000
FFFE0FFFFFFFFFFF800000
FFFE0FFFFFFFFFFF800000
FFFE0FFFFFFFFFFF800000
FFFFFF800000000FFFE000
FFFFFF800000000FFFE000
FFFFFF800000000FFFE000
FFFFFF800000000FFFE000
FFFFFF800000000FFFE000
FFFE00000000000FFFE000
FFFE00000000000FFFE000
FFFE00000000000FFFE000
FFFE00000000000FFFE000
FFFE00000000000FFFE000
FFFE00000000000FFFE000
FFFE00000000000FFFE000
FFFE00000000000FFFE000
FFFE00000000000FFFE000
FFFE00000000000FFFE000
FFFE00000000000FFFE000
FFFE00000000000FFFE000
FFFE00000000000FFFE000
FFFE00000000000FFFE000
FFFE00000000000FFFE000
0000000000000000000000
0000000000000000000000
0000000000000000000000
0000000000000000000000
0000000000000000000000
0000000000000000000000
0000000000000000000000
0000000000000000000000
0000000000000000000000
0000000000000000000000
ENDCHAR
STARTCHAR U+0067
ENCODING 103
SWIDTH 1000 0
BBX 85 50 0 -10
DWIDTH 85 0
BITMAP
0000000000000000000000
0000000000000000000000
0000000000000000000000
0000000000000000000000
0000000000000000000000
0000000000000000000000
0000000000000000000000
0000000000000000000000
0000000000000000000000
0000000000000000000000
0000000000000000000000
0000000000000000000000
0000000000000000000000
0000000000000000000000
0000000000000000000000
003FFFFFFFFFFE0FFFE000
003FFFFFFFFFFE0FFFE000
003FFFFFFFFFFE0FFFE000
003FFFFFFFFFFE0FFFE000
003FFFFFFFFFFE0FFFE000
FFFE000000003FFF800000
FFFE000000003FFF800000
FFFE000000003FFF800000
FFFE000000003FFF800000
FFFE000000003FFF800000
003FFFFFFFFFFE00000000
003FFFFFFFFFFE00000000
003FFFFFFFFFFE00000000
003FFFFFFFFFFE00000000
003FFFFFFFFFFE00000000
FFFE000000000000000000
FFFE000000000000000000
FFFE000000000000000000
FFFE000000000000000000
FFFE000000000000000000
003FFFFFFFFFFFFF800000
003FFFFFFFFFFFFF800000
003FFFFFFFFFFFFF800000
003FFFFFFFFFFFFF800000
003FFFFFFFFFFFFF800000
FFFE00000000000FFFE000
FFFE00000000000FFFE000
FFFE00000000000FFFE000
FFFE00000000000FFFE000
FFFE00000000000FFFE000
003FFFFFFFFFFFFF800000
003FFFFFFFFFFFFF800000
003FFFFFFFFFFFFF800000
003FFFFFFFFFFFFF800000
003FFFFFFFFFFFFF800000
ENDCHAR
STARTCHAR U+0066
ENCODING 102
SWIDTH 1000 0
BBX 85 50 0 -10
DWIDTH 85 0
BITMAP
0000000000000000000000
0000000000000000000000
0000000000000000000000
0000000000000000000000
0000000000000000000000
00000003FFFFFFFF800000
00000003FFFFFFFF800000
00000003FFFFFFFF800000
00000003FFFFFFFF800000
00000003FFFFFFFF800000
00000FFFE000000FFFE000
00000FFFE000000FFFE000
00000FFFE000000FFFE000
00000FFFE000000FFFE000
00000FFFE000000FFFE000
00000FFFE0000000000000
00000FFFE0000000000000
00000FFFE0000000000000
00000FFFE0000000000000
00000FFFE0000000000000
FFFFFFFFFFFFFE00000000
FFFFFFFFFFFFFE00000000
FFFFFFFFFFFFFE00000000
FFFFFFFFFFFFFE00000000
FFFFFFFFFFFFFE00000000
00000FFFE0000000000000
00000FFFE0000000000000
00000FFFE0000000000000
00000FFFE0000000000000
00000FFFE0000000000000
00000FFFE0000000000000
00000FFFE0000000000000
00000FFFE0000000000000
00000FFFE0000000000000
00000FFFE0000000000000
00000FFFE0000000000000
00000FFFE0000000000000
00000FFFE0000000000000
00000FFFE0000000000000
00000FFFE0000000000000
0000000000000000000000
0000000000000000000000
0000000000000000000000
0000000000000000000000
0000000000000000000000
0000000000000000000000
0000000000000000000000
0000000000000000000000
0000000000000000000000
0000000000000000000000
ENDCHAR
STARTCHAR U+0065
ENCODING 101
SWIDTH 1000 0
BBX 85 50 0 -10
DWIDTH 85 0
BITMAP
0000000000000000000000
0000000000000000000000
0000000000000000000000
0000000000000000000000
0000000000000000000000
0000000000000000000000
0000000000000000000000
0000000000000000000000
0000000000000000000000
0000000000000000000000
0000000000000000000000
0000000000000000000000
0000000000000000000000
0000000000000000000000
0000000000000000000000
003FFFFFFFFFFFFF800000
003FFFFFFFFFFFFF800000
003FFFFFFFFFFFFF800000
003FFFFFFFFFFFFF800000
003FFFFFFFFFFFFF800000
FFFE00000000000FFFE000
FFFE00000000000FFFE000
FFFE00000000000FFFE000
FFFE00000000000FFFE000
FFFE00000000000FFFE000
FFFFFFFFFFFFFFFFFFE000
FFFFFFFFFFFFFFFFFFE000
FFFFFFFFFFFFFFFFFFE000
FFFFFFFFFFFFFFFFFFE000
FFFFFFFFFFFFFFFFFFE000
FFFE000000000000000000
FFFE000000000000000000
FFFE000000000000000000
FFFE000000000000000000
FFFE000000000000000000
003FFFFFFFFFFFFF800000
003FFFFFFFFFFFFF800000
003FFFFFFFFFFFFF800000
003FFFFFFFFFFFFF800000
003FFFFFFFFFFFFF800000
0000000000000000000000
0000000000000000000000
0000000000000000000000
0000000000000000000000
0000000000000000000000
0000000000000000000000
0000000000000000000000
0000000000000000000000
0000000000000000000000
0000000000000000000000
ENDCHAR
STARTCHAR U+0064
ENCODING 100
SWIDTH 1000 0
BBX 85 50 0 -10
DWIDTH 85 0
BITMAP
0000000000000000000000
0000000000000000000000
0000000000000000000000
0000000000000000000000
0000000000000000000000
000000000000000FFFE000
000000000000000FFFE000
000000000000000FFFE000
000000000000000FFFE000
000000000000000FFFE000
000000000000000FFFE000
000000000000000FFFE000
000000000000000FFFE000
000000000000000FFFE000
000000000000000FFFE000
003FFFFFFFFFFE0FFFE000
003FFFFFFFFFFE0FFFE000
003FFFFFFFFFFE0FFFE000
003FFFFFFFFFFE0FFFE000
003FFFFFFFFFFE0FFFE000
FFFE000000003FFFFFE000
FFFE000000003FFFFFE000
FFFE000000003FFFFFE000
FFFE000000003FFFFFE000
FFFE000000003FFFFFE000
FFFE00000000000FFFE000
FFFE00000000000FFFE000
FFFE00000000000FFFE000
FFFE00000000000FFFE000
FFFE00000000000FFFE000
FFFE000000003FFFFFE000
FFFE000000003FFFFFE000
FFFE000000003FFFFFE000
FFFE000000003FFFFFE000
FFFE000000003FFFFFE000
003FFFFFFFFFFE0FFFE000
003FFFFFFFFFFE0FFFE000
003FFFFFFFFFFE0FFFE000
003FFFFFFFFFFE0FFFE000
003FFFFFFFFFFE0FFFE000
0000000000000000000000
0000000000000000000000
0000000000000000000000
0000000000000000000000
0000000000000000000000
0000000000000000000000
0000000000000000000000
0000000000000000000000
0000000000000000000000
0000000000000000000000
ENDCHAR
STARTCHAR U+0063
ENCODING 99
SWIDTH 1000 0
BBX 85 50 0 -10
DWIDTH 85 0
BITMAP
0000000000000000000000
0000000000000000000000
0000000000000000000000
0000000000000000000000
0000000000000000000000
0000000000000000000000
0000000000000000000000
0000000000000000000000
0000000000000000000000
0000000000000000000000
0000000000000000000000
0000000000000000000000
0000000000000000000000
0000000000000000000000
0000000000000000000000
003FFFFFFFFFFFFF800000
003FFFFFFFFFFFFF800000
003FFFFFFFFFFFFF800000
003FFFFFFFFFFFFF800000
003FFFFFFFFFFFFF800000
FFFE00000000000FFFE000
FFFE00000000000FFFE000
FFFE00000000000FFFE000
FFFE00000000000FFFE000
FFFE00000000000FFFE000
FFFE000000000000000000
FFFE000000000000000000
FFFE000000000000000000
FFFE000000000000000000
FFFE000000000000000000
FFFE000000000000000000
FFFE000000000000000000
FFFE000000000000000000
FFFE000000000000000000
FFFE000000000000000000
003FFFFFFFFFFFFFFFE000
003FFFFFFFFFFFFFFFE000
003FFFFFFFFFFFFFFFE000
003FFFFFFFFFFFFFFFE000
003FFFFFFFFFFFFFFFE000
0000000000000000000000
0000000000000000000000
0000000000000000000000
0000000000000000000000
0000000000000000000000
0000000000000000000000
0000000000000000000000
0000000000000000000000
0000000000000000000000
0000000000000000000000
ENDCHAR
STARTCHAR U+0062
ENCODING 98
SWIDTH 1000 0
BBX 85 50 0 -10
DWIDTH 85 0
BITMAP
0000000000000000000000
0000000000000000000000
0000000000000000000000
0000000000000000000000
0000000000000000000000
FFFE000000000000000000
FFFE000000000000000000
FFFE000000000000000000
FFFE000000000000000000
FFFE000000000000000000
FFFE000000000000000000
FFFE000000000000000000
FFFE000000000000000000
FFFE000000000000000000
FFFE000000000000000000
FFFE0FFFFFFFFFFF800000
FFFE0FFFFFFFFFFF800000
FFFE0FFFFFFFFFFF800000
FFFE0FFFFFFFFFFF800000
FFFE0FFFFFFFFFFF800000
FFFFFF800000000FFFE000
FFFFFF800000000FFFE000
FFFFFF800000000FFFE000
FFFFFF800000000FFFE000
FFFFFF800000000FFFE000
FFFE00000000000FFFE000
FFFE00000000000FFFE000
FFFE00000000000FFFE000
FFFE00000000000FFFE000
FFFE00000000000FFFE000
FFFFFF800000000FFFE000
FFFFFF800000000FFFE000
FFFFFF800000000FFFE000
FFFFFF800000000FFFE000
FFFFFF800000000FFFE000
FFFE0FFFFFFFFFFF800000
FFFE0FFFFFFFFFFF800000
FFFE0FFFFFFFFFFF800000
FFFE0FFFFFFFFFFF800000
FFFE0FFFFFFFFFFF800000
0000000000000000000000
0000000000000000000000
0000000000000000000000
0000000000000000000000
0000000000000000000000
0000000000000000000000
0000000000000000000000
0000000000000000000000
0000000000000000000000
0000000000000000000000
ENDCHAR
STARTCHAR U+0061
ENCODING 97
SWIDTH 1000 0
BBX 85 50 0 -10
DWIDTH 85 0
BITMAP
0000000000000000000000
0000000000000000000000
0000000000000000000000
0000000000000000000000
0000000000000000000000
0000000000000000000000
0000000000000000000000
0000000000000000000000
0000000000000000000000
0000000000000000000000
0000000000000000000000
0000000000000000000000
0000000000000000000000
0000000000000000000000
0000000000000000000000
003FFFFFFFFFFFFF800000
003FFFFFFFFFFFFF800000
003FFFFFFFFFFFFF800000
003FFFFFFFFFFFFF800000
003FFFFFFFFFFFFF800000
000000000000000FFFE000
000000000000000FFFE000
000000000000000FFFE000
000000000000000FFFE000
000000000000000FFFE000
003FFFFFFFFFFFFFFFE000
003FFFFFFFFFFFFFFFE000
003FFFFFFFFFFFFFFFE000
003FFFFFFFFFFFFFFFE000
003FFFFFFFFFFFFFFFE000
FFFE000000003FFFFFE000
FFFE000000003FFFFFE000
FFFE000000003FFFFFE000
FFFE000000003FFFFFE000
FFFE000000003FFFFFE000
003FFFFFFFFFFE0FFFE000
003FFFFFFFFFFE0FFFE000
003FFFFFFFFFFE0FFFE000
003FFFFFFFFFFE0FFFE000
003FFFFFFFFFFE0FFFE000
0000000000000000000000
0000000000000000000000
0000000000000000000000
0000000000000000000000
0000000000000000000000
0000000000000000000000
0000000000000000000000
0000000000000000000000
0000000000000000000000
0000000000000000000000
ENDCHAR
STARTCHAR U+0060
ENCODING 96
SWIDTH 1000 0
BBX 85 50 0 -10
DWIDTH 85 0
BITMAP
0000000000000000000000
0000000000000000000000
0000000000000000000000
0000000000000000000000
0000000000000000000000
00000FFFFFF80000000000
00000FFFFFF80000000000
00000FFFFFF80000000000
00000FFFFFF80000000000
00000FFFFFF80000000000
00000003FFF80000000000
00000003FFF80000000000
00000003FFF80000000000
00000003FFF80000000000
00000003FFF80000000000
0000000000FFFE00000000
0000000000FFFE00000000
0000000000FFFE00000000
0000000000FFFE00000000
0000000000FFFE00000000
0000000000000000000000
0000000000000000000000
0000000000000000000000
0000000000000000000000
0000000000000000000000
0000000000000000000000
0000000000000000000000
0000000000000000000000
0000000000000000000000
0000000000000000000000
0000000000000000000000
0000000000000000000000
0000000000000000000000
0000000000000000000000
0000000000000000000000
0000000000000000000000
0000000000000000000000
0000000000000000000000
0000000000000000000000
0000000000000000000000
0000000000000000000000
0000000000000000000000
0000000000000000000000
0000000000000000000000
0000000000000000000000
0000000000000000000000
0000000000000000000000
0000000000000000000000
0000000000000000000000
0000000000000000000000
ENDCHAR
STARTCHAR U+005F
ENCODING 95
SWIDTH 1000 0
BBX 85 50 0 -10
DWIDTH 85 0
BITMAP
0000000000000000000000
0000000000000000000000
0000000000000000000000
0000000000000000000000
0000000000000000000000
0000000000000000000000
0000000000000000000000
0000000000000000000000
0000000000000000000000
0000000000000000000000
0000000000000000000000
0000000000000000000000
0000000000000000000000
0000000000000000000000
0000000000000000000000
0000000000000000000000
0000000000000000000000
0000000000000000000000
0000000000000000000000
0000000000000000000000
0000000000000000000000
0000000000000000000000
0000000000000000000000
0000000000000000000000
0000000000000000000000
0000000000000000000000
0000000000000000000000
0000000000000000000000
0000000000000000000000
0000000000000000000000
0000000000000000000000
0000000000000000000000
0000000000000000000000
0000000000000000000000
0000000000000000000000
FFFFFFFFFFFFFFFFFFE000
FFFFFFFFFFFFFFFFFFE000
FFFFFFFFFFFFFFFFFFE000
FFFFFFFFFFFFFFFFFFE000
FFFFFFFFFFFFFFFFFFE000
0000000000000000000000
0000000000000000000000
0000000000000000000000
0000000000000000000000
0000000000000000000000
0000000000000000000000
0000000000000000000000
0000000000000000000000
0000000000000000000000
0000000000000000000000
ENDCHAR
STARTCHAR U+005E
ENCODING 94
SWIDTH 1000 0
BBX 85 50 0 -10
DWIDTH 85 0
BITMAP
0000000000000000000000
0000000000000000000000
0000000000000000000000
0000000000000000000000
0000000000000000000000
00000003FFF80000000000
00000003FFF80000000000
00000003FFF80000000000
00000003FFF80000000000
00000003FFF80000000000
00000FFFE0FFFE00000000
00000FFFE0FFFE00000000
00000FFFE0FFFE00000000
00000FFFE0FFFE00000000
00000FFFE0FFFE00000000
003FFF8000003FFF800000
003FFF8000003FFF800000
003FFF8000003FFF800000
003FFF8000003FFF800000
003FFF8000003FFF800000
FFFE00000000000FFFE000
FFFE00000000000FFFE000
FFFE00000000000FFFE000
FFFE00000000000FFFE000
FFFE00000000000FFFE000
0000000000000000000000
0000000000000000000000
0000000000000000000000
0000000000000000000000
0000000000000000000000
0000000000000000000000
0000000000000000000000
0000000000000000000000
0000000000000000000000
0000000000000000000000
0000000000000000000000
0000000000000000000000
0000000000000000000000
0000000000000000000000
0000000000000000000000
0000000000000000000000
0000000000000000000000
0000000000000000000000
0000000000000000000000
0000000000000000000000
0000000000000000000000
0000000000000000000000
0000000000000000000000
0000000000000000000000
0000000000000000000000
ENDCHAR
STARTCHAR U+005D
ENCODING 93
SWIDTH 1000 0
BBX 85 50 0 -10
DWIDTH 85 0
BITMAP
0000000000000000000000
0000000000000000000000
0000000000000000000000
0000000000000000000000
0000000000000000000000
003FFFFFFFFFFE00000000
003FFFFFFFFFFE00000000
003FFFFFFFFFFE00000000
003FFFFFFFFFFE00000000
003FFFFFFFFFFE00000000
0000000000FFFE00000000
0000000000FFFE00000000
0000000000FFFE00000000
0000000000FFFE00000000
0000000000FFFE00000000
0000000000FFFE00000000
0000000000FFFE00000000
0000000000FFFE00000000
0000000000FFFE00000000
0000000000FFFE00000000
0000000000FFFE00000000
0000000000FFFE00000000
0000000000FFFE00000000
0000000000FFFE00000000
0000000000FFFE00000000
0000000000FFFE00000000
0000000000FFFE00000000
0000000000FFFE00000000
0000000000FFFE00000000
0000000000FFFE00000000
0000000000FFFE00000000
0000000000FFFE00000000
0000000000FFFE00000000
0000000000FFFE00000000
0000000000FFFE00000000
003FFFFFFFFFFE00000000
003FFFFFFFFFFE00000000
003FFFFFFFFFFE00000000
003FFFFFFFFFFE00000000
003FFFFFFFFFFE00000000
0000000000000000000000
0000000000000000000000
0000000000000000000000
0000000000000000000000
0000000000000000000000
0000000000000000000000
0000000000000000000000
0000000000000000000000
0000000000000000000000
0000000000000000000000
ENDCHAR
STARTCHAR U+005C
ENCODING 92
SWIDTH 1000 0
BBX 85 50 0 -10
DWIDTH 85 0
BITMAP
0000000000000000000000
0000000000000000000000
0000000000000000000000
0000000000000000000000
0000000000000000000000
FFFE000000000000000000
FFFE000000000000000000
FFFE000000000000000000
FFFE000000000000000000
FFFE000000000000000000
003FFF8000000000000000
003FFF8000000000000000
003FFF8000000000000000
003FFF8000000000000000
003FFF8000000000000000
00000FFFE0000000000000
00000FFFE0000000000000
00000FFFE0000000000000
00000FFFE0000000000000
00000FFFE0000000000000
00000003FFF80000000000
00000003FFF80000000000
00000003FFF80000000000
00000003FFF80000000000
00000003FFF80000000000
0000000000FFFE00000000
0000000000FFFE00000000
0000000000FFFE00000000
0000000000FFFE00000000
0000000000FFFE00000000
0000000000003FFF800000
0000000000003FFF800000
0000000000003FFF800000
0000000000003FFF800000
0000000000003FFF800000
000000000000000FFFE000
000000000000000FFFE000
000000000000000FFFE000
000000000000000FFFE000
000000000000000FFFE000
0000000000000000000000
0000000000000000000000
0000000000000000000000
0000000000000000000000
0000000000000000000000
0000000000000000000000
0000000000000000000000
0000000000000000000000
0000000000000000000000
0000000000000000000000
ENDCHAR
STARTCHAR U+005B
ENCODING 91
SWIDTH 1000 0
BBX 85 50 0 -10
DWIDTH 85 0
BITMAP
0000000000000000000000
0000000000000000000000
0000000000000000000000
0000000000000000000000
0000000000000000000000
00000FFFFFFFFFFF800000
00000FFFFFFFFFFF800000
00000FFFFFFFFFFF800000
00000FFFFFFFFFFF800000
00000FFFFFFFFFFF800000
00000FFFE0000000000000
00000FFFE0000000000000
00000FFFE0000000000000
00000FFFE0000000000000
00000FFFE0000000000000
00000FFFE0000000000000
00000FFFE0000000000000
00000FFFE0000000000000
00000FFFE0000000000000
00000FFFE0000000000000
00000FFFE0000000000000
00000FFFE0000000000000
00000FFFE0000000000000
00000FFFE0000000000000
00000FFFE0000000000000
00000FFFE0000000000000
00000FFFE0000000000000
00000FFFE0000000000000
00000FFFE0000000000000
00000FFFE0000000000000
00000FFFE0000000000000
00000FFFE0000000000000
00000FFFE0000000000000
00000FFFE0000000000000
00000FFFE0000000000000
00000FFFFFFFFFFF800000
00000FFFFFFFFFFF800000
00000FFFFFFFFFFF800000
00000FFFFFFFFFFF800000
00000FFFFFFFFFFF800000
0000000000000000000000
0000000000000000000000
0000000000000000000000
0000000000000000000000
0000000000000000000000
0000000000000000000000
0000000000000000000000
0000000000000000000000
0000000000000000000000
0000000000000000000000
ENDCHAR
STARTCHAR U+005A
ENCODING 90
SWIDTH 1000 0
BBX 85 50 0 -10
DWIDTH 85 0
BITMAP
0000000000000000000000
0000000000000000000000
0000000000000000000000
0000000000000000000000
0000000000000000000000
FFFFFFFFFFFFFFFFFFE000
FFFFFFFFFFFFFFFFFFE000
FFFFFFFFFFFFFFFFFFE000
FFFFFFFFFFFFFFFFFFE000
FFFFFFFFFFFFFFFFFFE000
0000000000003FFF800000
0000000000003FFF800000
0000000000003FFF800000
0000000000003FFF800000
0000000000003FFF800000
0000000000FFFE00000000
0000000000FFFE00000000
0000000000FFFE00000000
0000000000FFFE00000000
0000000000FFFE00000000
00000003FFF80000000000
00000003FFF80000000000
00000003FFF80000000000
00000003FFF80000000000
00000003FFF80000000000
00000FFFE0000000000000
00000FFFE0000000000000
00000FFFE0000000000000
00000FFFE0000000000000
00000FFFE0000000000000
003FFF8000000000000000
003FFF8000000000000000
003FFF8000000000000000
003FFF8000000000000000
003FFF8000000000000000
FFFFFFFFFFFFFFFFFFE000
FFFFFFFFFFFFFFFFFFE000
FFFFFFFFFFFFFFFFFFE000
FFFFFFFFFFFFFFFFFFE000
FFFFFFFFFFFFFFFFFFE000
0000000000000000000000
0000000000000000000000
0000000000000000000000
0000000000000000000000
0000000000000000000000
0000000000000000000000
0000000000000000000000
0000000000000000000000
0000000000000000000000
0000000000000000000000
ENDCHAR
STARTCHAR U+0059
ENCODING 89
SWIDTH 1000 0
BBX 85 50 0 -10
DWIDTH 85 0
BITMAP
0000000000000000000000
0000000000000000000000
0000000000000000000000
0000000000000000000000
0000000000000000000000
FFFE00000000000FFFE000
FFFE00000000000FFFE000
FFFE00000000000FFFE000
FFFE00000000000FFFE000
FFFE00000000000FFFE000
003FFF8000003FFF800000
003FFF8000003FFF800000
003FFF8000003FFF800000
003FFF8000003FFF800000
003FFF8000003FFF800000
00000FFFE0FFFE00000000
00000FFFE0FFFE00000000
00000FFFE0FFFE00000000
00000FFFE0FFFE00000000
00000FFFE0FFFE00000000
00000003FFF80000000000
00000003FFF80000000000
00000003FFF80000000000
00000003FFF80000000000
00000003FFF80000000000
00000003FFF80000000000
00000003FFF80000000000
00000003FFF80000000000
00000003FFF80000000000
00000003FFF80000000000
00000003FFF80000000000
00000003FFF80000000000
00000003FFF80000000000
00000003FFF80000000000
00000003FFF80000000000
00000003FFF80000000000
00000003FFF80000000000
00000003FFF80000000000
00000003FFF80000000000
00000003FFF80000000000
0000000000000000000000
0000000000000000000000
0000000000000000000000
0000000000000000000000
0000000000000000000000
0000000000000000000000
0000000000000000000000
0000000000000000000000
0000000000000000000000
0000000000000000000000
ENDCHAR
STARTCHAR U+0058
ENCODING 88
SWIDTH 1000 0
BBX 85 50 0 -10
DWIDTH 85 0
BITMAP
0000000000000000000000
0000000000000000000000
0000000000000000000000
0000000000000000000000
0000000000000000000000
FFFE00000000000FFFE000
FFFE00000000000FFFE000
FFFE00000000000FFFE000
FFFE00000000000FFFE000
FFFE00000000000FFFE000
003FFF8000003FFF800000
003FFF8000003FFF800000
003FFF8000003FFF800000
003FFF8000003FFF800000
003FFF8000003FFF800000
00000FFFE0FFFE00000000
00000FFFE0FFFE00000000
00000FFFE0FFFE00000000
00000FFFE0FFFE00000000
00000FFFE0FFFE00000000
00000003FFF80000000000
00000003FFF80000000000
00000003FFF80000000000
00000003FFF80000000000
00000003FFF80000000000
00000FFFE0FFFE00000000
00000FFFE0FFFE00000000
00000FFFE0FFFE00000000
00000FFFE0FFFE00000000
00000FFFE0FFFE00000000
003FFF8000003FFF800000
003FFF8000003FFF800000
003FFF8000003FFF800000
003FFF8000003FFF800000
003FFF8000003FFF800000
FFFE00000000000FFFE000
FFFE00000000000FFFE000
FFFE00000000000FFFE000
FFFE00000000000FFFE000
FFFE00000000000FFFE000
0000000000000000000000
0000000000000000000000
0000000000000000000000
0000000000000000000000
0000000000000000000000
0000000000000000000000
0000000000000000000000
0000000000000000000000
0000000000000000000000
0000000000000000000000
ENDCHAR
STARTCHAR U+0057
ENCODING 87
SWIDTH 1000 0
BBX 85 50 0 -10
DWIDTH 85 0
BITMAP
0000000000000000000000
0000000000000000000000
0000000000000000000000
0000000000000000000000
0000000000000000000000
FFFE00000000000FFFE000
FFFE00000000000FFFE000
FFFE00000000000FFFE000
FFFE00000000000FFFE000
FFFE00000000000FFFE000
FFFE00000000000FFFE000
FFFE00000000000FFFE000
FFFE00000000000FFFE000
FFFE00000000000FFFE000
FFFE00000000000FFFE000
FFFE00000000000FFFE000
FFFE00000000000FFFE000
FFFE00000000000FFFE000
FFFE00000000000FFFE000
FFFE00000000000FFFE000
FFFE0003FFF8000FFFE000
FFFE0003FFF8000FFFE000
FFFE0003FFF8000FFFE000
FFFE0003FFF8000FFFE000
FFFE0003FFF8000FFFE000
FFFE0003FFF8000FFFE000
FFFE0003FFF8000FFFE000
FFFE0003FFF8000FFFE000
FFFE0003FFF8000FFFE000
FFFE0003FFF8000FFFE000
FFFE0FFFE0FFFE0FFFE000
FFFE0FFFE0FFFE0FFFE000
FFFE0FFFE0FFFE0FFFE000
FFFE0FFFE0FFFE0FFFE000
FFFE0FFFE0FFFE0FFFE000
003FFF8000003FFF800000
003FFF8000003FFF800000
003FFF8000003FFF800000
003FFF8000003FFF800000
003FFF8000003FFF800000
0000000000000000000000
0000000000000000000000
0000000000000000000000
0000000000000000000000
0000000000000000000000
0000000000000000000000
0000000000000000000000
0000000000000000000000
0000000000000000000000
0000000000000000000000
ENDCHAR
STARTCHAR U+0056
ENCODING 86
SWIDTH 1000 0
BBX 85 50 0 -10
DWIDTH 85 0
BITMAP
0000000000000000000000
0000000000000000000000
0000000000000000000000
0000000000000000000000
0000000000000000000000
FFFE00000000000FFFE000
FFFE00000000000FFFE000
FFFE00000000000FFFE000
FFFE00000000000FFFE000
FFFE00000000000FFFE000
FFFE00000000000FFFE000
FFFE00000000000FFFE000
FFFE00000000000FFFE000
FFFE00000000000FFFE000
FFFE00000000000FFFE000
003FFF8000003FFF800000
003FFF8000003FFF800000
003FFF8000003FFF800000
003FFF8000003FFF800000
003FFF8000003FFF800000
003FFF8000003FFF800000
003FFF8000003FFF800000
003FFF8000003FFF800000
003FFF8000003FFF800000
003FFF8000003FFF800000
00000FFFE0FFFE00000000
00000FFFE0FFFE00000000
00000FFFE0FFFE00000000
00000FFFE0FFFE00000000
00000FFFE0FFFE00000000
00000FFFE0FFFE00000000
00000FFFE0FFFE00000000
00000FFFE0FFFE00000000
00000FFFE0FFFE00000000
00000FFFE0FFFE00000000
00000003FFF80000000000
00000003FFF80000000000
00000003FFF80000000000
00000003FFF80000000000
00000003FFF80000000000
0000000000000000000000
0000000000000000000000
0000000000000000000000
0000000000000000000000
0000000000000000000000
0000000000000000000000
0000000000000000000000
0000000000000000000000
0000000000000000000000
0000000000000000000000
ENDCHAR
STARTCHAR U+0055
ENCODING 85
SWIDTH 1000 0
BBX 85 50 0 -10
DWIDTH 85 0
BITMAP
0000000000000000000000
0000000000000000000000
0000000000000000000000
0000000000000000000000
0000000000000000000000
FFFE00000000000FFFE000
FFFE00000000000FFFE000
FFFE00000000000FFFE000
FFFE00000000000FFFE000
FFFE00000000000FFFE000
FFFE00000000000FFFE000
FFFE00000000000FFFE000
FFFE00000000000FFFE000
FFFE00000000000FFFE000
FFFE00000000000FFFE000
FFFE00000000000FFFE000
FFFE00000000000FFFE000
FFFE00000000000FFFE000
FFFE00000000000FFFE000
FFFE00000000000FFFE000
FFFE00000000000FFFE000
FFFE00000000000FFFE000
FFFE00000000000FFFE000
FFFE00000000000FFFE000
FFFE00000000000FFFE000
FFFE00000000000FFFE000
FFFE00000000000FFFE000
FFFE00000000000FFFE000
FFFE00000000000FFFE000
FFFE00000000000FFFE000
FFFE00000000000FFFE000
FFFE00000000000FFFE000
FFFE00000000000FFFE000
FFFE00000000000FFFE000
FFFE00000000000FFFE000
003FFFFFFFFFFFFF800000
003FFFFFFFFFFFFF800000
003FFFFFFFFFFFFF800000
003FFFFFFFFFFFFF800000
003FFFFFFFFFFFFF800000
0000000000000000000000
0000000000000000000000
0000000000000000000000
0000000000000000000000
0000000000000000000000
0000000000000000000000
0000000000000000000000
0000000000000000000000
0000000000000000000000
0000000000000000000000
ENDCHAR
STARTCHAR U+0054
ENCODING 84
SWIDTH 1000 0
BBX 85 50 0 -10
DWIDTH 85 0
BITMAP
0000000000000000000000
0000000000000000000000
0000000000000000000000
0000000000000000000000
0000000000000000000000
FFFFFFFFFFFFFFFFFFE000
FFFFFFFFFFFFFFFFFFE000
FFFFFFFFFFFFFFFFFFE000
FFFFFFFFFFFFFFFFFFE000
FFFFFFFFFFFFFFFFFFE000
00000003FFF80000000000
00000003FFF80000000000
00000003FFF80000000000
00000003FFF80000000000
00000003FFF80000000000
00000003FFF80000000000
00000003FFF80000000000
00000003FFF80000000000
00000003FFF80000000000
00000003FFF80000000000
00000003FFF80000000000
00000003FFF80000000000
00000003FFF80000000000
00000003FFF80000000000
00000003FFF80000000000
00000003FFF80000000000
00000003FFF80000000000
00000003FFF80000000000
00000003FFF80000000000
00000003FFF80000000000
00000003FFF80000000000
00000003FFF80000000000
00000003FFF80000000000
00000003FFF80000000000
00000003FFF80000000000
00000003FFF80000000000
00000003FFF80000000000
00000003FFF80000000000
00000003FFF80000000000
00000003FFF80000000000
0000000000000000000000
0000000000000000000000
0000000000000000000000
0000000000000000000000
0000000000000000000000
0000000000000000000000
0000000000000000000000
0000000000000000000000
0000000000000000000000
0000000000000000000000
ENDCHAR
STARTCHAR U+0053
ENCODING 83
SWIDTH 1000 0
BBX 85 50 0 -10
DWIDTH 85 0
BITMAP
0000000000000000000000
0000000000000000000000
0000000000000000000000
0000000000000000000000
0000000000000000000000
003FFFFFFFFFFFFF800000
003FFFFFFFFFFFFF800000
003FFFFFFFFFFFFF800000
003FFFFFFFFFFFFF800000
003FFFFFFFFFFFFF800000
FFFE00000000000FFFE000
FFFE00000000000FFFE000
FFFE00000000000FFFE000
FFFE00000000000FFFE000
FFFE00000000000FFFE000
FFFE000000000000000000
FFFE000000000000000000
FFFE000000000000000000
FFFE000000000000000000
FFFE000000000000000000
003FFFFFFFFFFFFF800000
003FFFFFFFFFFFFF800000
003FFFFFFFFFFFFF800000
003FFFFFFFFFFFFF800000
003FFFFFFFFFFFFF800000
000000000000000FFFE000
000000000000000FFFE000
000000000000000FFFE000
000000000000000FFFE000
000000000000000FFFE000
FFFE00000000000FFFE000
FFFE00000000000FFFE000
FFFE00000000000FFFE000
FFFE00000000000FFFE000
FFFE00000000000FFFE000
003FFFFFFFFFFFFF800000
003FFFFFFFFFFFFF800000
003FFFFFFFFFFFFF800000
003FFFFFFFFFFFFF800000
003FFFFFFFFFFFFF800000
0000000000000000000000
0000000000000000000000
0000000000000000000000
0000000000000000000000
0000000000000000000000
0000000000000000000000
0000000000000000000000
0000000000000000000000
0000000000000000000000
0000000000000000000000
ENDCHAR
STARTCHAR U+0052
ENCODING 82
SWIDTH 1000 0
BBX 85 50 0 -10
DWIDTH 85 0
BITMAP
0000000000000000000000
0000000000000000000000
0000000000000000000000
0000000000000000000000
0000000000000000000000
FFFFFFFFFFFFFFFF800000
FFFFFFFFFFFFFFFF800000
FFFFFFFFFFFFFFFF800000
FFFFFFFFFFFFFFFF800000
FFFFFFFFFFFFFFFF800000
FFFE00000000000FFFE000
FFFE00000000000FFFE000
FFFE00000000000FFFE000
FFFE00000000000FFFE000
FFFE00000000000FFFE000
FFFE00000000000FFFE000
FFFE00000000000FFFE000
FFFE00000000000FFFE000
FFFE00000000000FFFE000
FFFE00000000000FFFE000
FFFFFFFFFFFFFFFF800000
FFFFFFFFFFFFFFFF800000
FFFFFFFFFFFFFFFF800000
FFFFFFFFFFFFFFFF800000
FFFFFFFFFFFFFFFF800000
FFFE000000FFFE00000000
FFFE000000FFFE00000000
FFFE000000FFFE00000000
FFFE000000FFFE00000000
FFFE000000FFFE00000000
FFFE000000003FFF800000
FFFE000000003FFF800000
FFFE000000003FFF800000
FFFE000000003FFF800000
FFFE000000003FFF800000
FFFE00000000000FFFE000
FFFE00000000000FFFE000
FFFE00000000000FFFE000
FFFE00000000000FFFE000
FFFE00000000000FFFE000
0000000000000000000000
0000000000000000000000
0000000000000000000000
0000000000000000000000
0000000000000000000000
0000000000000000000000
0000000000000000000000
0000000000000000000000
0000000000000000000000
0000000000000000000000
ENDCHAR
STARTCHAR U+0051
ENCODING 81
SWIDTH 1000 0
BBX 85 50 0 -10
DWIDTH 85 0
BITMAP
0000000000000000000000
0000000000000000000000
0000000000000000000000
0000000000000000000000
0000000000000000000000
003FFFFFFFFFFFFF800000
003FFFFFFFFFFFFF800000
003FFFFFFFFFFFFF800000
003FFFFFFFFFFFFF800000
003FFFFFFFFFFFFF800000
FFFE00000000000FFFE000
FFFE00000000000FFFE000
FFFE00000000000FFFE000
FFFE00000000000FFFE000
FFFE00000000000FFFE000
FFFE00000000000FFFE000
FFFE00000000000FFFE000
FFFE00000000000FFFE000
FFFE00000000000FFFE000
FFFE00000000000FFFE000
FFFE00000000000FFFE000
FFFE00000000000FFFE000
FFFE00000000000FFFE000
FFFE00000000000FFFE000
FFFE00000000000FFFE000
FFFE000000FFFE0FFFE000
FFFE000000FFFE0FFFE000
FFFE000000FFFE0FFFE000
FFFE000000FFFE0FFFE000
FFFE000000FFFE0FFFE000
FFFE000000003FFF800000
FFFE000000003FFF800000
FFFE000000003FFF800000
FFFE000000003FFF800000
FFFE000000003FFF800000
003FFFFFFFFFFE0FFFE000
003FFFFFFFFFFE0FFFE000
003FFFFFFFFFFE0FFFE000
003FFFFFFFFFFE0FFFE000
003FFFFFFFFFFE0FFFE000
0000000000000000000000
0000000000000000000000
0000000000000000000000
0000000000000000000000
0000000000000000000000
0000000000000000000000
0000000000000000000000
0000000000000000000000
0000000000000000000000
0000000000000000000000
ENDCHAR
STARTCHAR U+0050
ENCODING 80
SWIDTH 1000 0
BBX 85 50 0 -10
DWIDTH 85 0
BITMAP
0000000000000000000000
0000000000000000000000
0000000000000000000000
0000000000000000000000
0000000000000000000000
FFFFFFFFFFFFFFFF800000
FFFFFFFFFFFFFFFF800000
FFFFFFFFFFFFFFFF800000
FFFFFFFFFFFFFFFF800000
FFFFFFFFFFFFFFFF800000
FFFE00000000000FFFE000
FFFE00000000000FFFE000
FFFE00000000000FFFE000
FFFE00000000000FFFE000
FFFE00000000000FFFE000
FFFE00000000000FFFE000
FFFE00000000000FFFE000
FFFE00000000000FFFE000
FFFE00000000000FFFE000
FFFE00000000000FFFE000
FFFFFFFFFFFFFFFF800000
FFFFFFFFFFFFFFFF800000
FFFFFFFFFFFFFFFF800000
FFFFFFFFFFFFFFFF800000
FFFFFFFFFFFFFFFF800000
FFFE000000000000000000
FFFE000000000000000000
FFFE000000000000000000
FFFE000000000000000000
FFFE000000000000000000
FFFE000000000000000000
FFFE000000000000000000
FFFE000000000000000000
FFFE000000000000000000
FFFE000000000000000000
FFFE000000000000000000
FFFE000000000000000000
FFFE000000000000000000
FFFE000000000000000000
FFFE000000000000000000
0000000000000000000000
0000000000000000000000
0000000000000000000000
0000000000000000000000
0000000000000000000000
0000000000000000000000
0000000000000000000000
0000000000000000000000
0000000000000000000000
0000000000000000000000
ENDCHAR
STARTCHAR U+004F
ENCODING 79
SWIDTH 1000 0
BBX 85 50 0 -10
DWIDTH 85 0
BITMAP
0000000000000000000000
0000000000000000000000
0000000000000000000000
0000000000000000000000
0000000000000000000000
003FFFFFFFFFFFFF800000
003FFFFFFFFFFFFF800000
003FFFFFFFFFFFFF800000
003FFFFFFFFFFFFF800000
003FFFFFFFFFFFFF800000
FFFE00000000000FFFE000
FFFE00000000000FFFE000
FFFE00000000000FFFE000
FFFE00000000000FFFE000
FFFE00000000000FFFE000
FFFE00000000000FFFE000
FFFE00000000000FFFE000
FFFE00000000000FFFE000
FFFE00000000000FFFE000
FFFE00000000000FFFE000
FFFE00000000000FFFE000
FFFE00000000000FFFE000
FFFE00000000000FFFE000
FFFE00000000000FFFE000
FFFE00000000000FFFE000
FFFE00000000000FFFE000
FFFE00000000000FFFE000
FFFE00000000000FFFE000
FFFE00000000000FFFE000
FFFE00000000000FFFE000
FFFE00000000000FFFE000
FFFE00000000000FFFE000
FFFE00000000000FFFE000
FFFE00000000000FFFE000
FFFE00000000000FFFE000
003FFFFFFFFFFFFF800000
003FFFFFFFFFFFFF800000
003FFFFFFFFFFFFF800000
003FFFFFFFFFFFFF800000
003FFFFFFFFFFFFF800000
0000000000000000000000
0000000000000000000000
0000000000000000000000
0000000000000000000000
0000000000000000000000
0000000000000000000000
0000000000000000000000
0000000000000000000000
0000000000000000000000
0000000000000000000000
ENDCHAR
STARTCHAR U+004E
ENCODING 78
SWIDTH 1000 0
BBX 85 50 0 -10
DWIDTH 85 0
BITMAP
0000000000000000000000
0000000000000000000000
0000000000000000000000
0000000000000000000000
0000000000000000000000
FFFE00000000000FFFE000
FFFE00000000000FFFE000
FFFE00000000000FFFE000
FFFE00000000000FFFE000
FFFE00000000000FFFE000
FFFFFF800000000FFFE000
FFFFFF800000000FFFE000
FFFFFF800000000FFFE000
FFFFFF800000000FFFE000
FFFFFF800000000FFFE000
FFFE0FFFE000000FFFE000
FFFE0FFFE000000FFFE000
FFFE0FFFE000000FFFE000
FFFE0FFFE000000FFFE000
FFFE0FFFE000000FFFE000
FFFE0003FFF8000FFFE000
FFFE0003FFF8000FFFE000
FFFE0003FFF8000FFFE000
FFFE0003FFF8000FFFE000
FFFE0003FFF8000FFFE000
FFFE000000FFFE0FFFE000
FFFE000000FFFE0FFFE000
FFFE000000FFFE0FFFE000
FFFE000000FFFE0FFFE000
FFFE000000FFFE0FFFE000
FFFE000000003FFFFFE000
FFFE000000003FFFFFE000
FFFE000000003FFFFFE000
FFFE000000003FFFFFE000
FFFE000000003FFFFFE000
FFFE00000000000FFFE000
FFFE00000000000FFFE000
FFFE00000000000FFFE000
FFFE00000000000FFFE000
FFFE00000000000FFFE000
0000000000000000000000
0000000000000000000000
0000000000000000000000
0000000000000000000000
0000000000000000000000
0000000000000000000000
0000000000000000000000
0000000000000000000000
0000000000000000000000
0000000000000000000000
ENDCHAR
STARTCHAR U+004D
ENCODING 77
SWIDTH 1000 0
BBX 85 50 0 -10
DWIDTH 85 0
BITMAP
0000000000000000000000
0000000000000000000000
0000000000000000000000
0000000000000000000000
0000000000000000000000
FFFE00000000000FFFE000
FFFE00000000000FFFE000
FFFE00000000000FFFE000
FFFE00000000000FFFE000
FFFE00000000000FFFE000
FFFFFF8000003FFFFFE000
FFFFFF8000003FFFFFE000
FFFFFF8000003FFFFFE000
FFFFFF8000003FFFFFE000
FFFFFF8000003FFFFFE000
FFFE0FFFE0FFFE0FFFE000
FFFE0FFFE0FFFE0FFFE000
FFFE0FFFE0FFFE0FFFE000
FFFE0FFFE0FFFE0FFFE000
FFFE0FFFE0FFFE0FFFE000
FFFE0003FFF8000FFFE000
FFFE0003FFF8000FFFE000
FFFE0003FFF8000FFFE000
FFFE0003FFF8000FFFE000
FFFE0003FFF8000FFFE000
FFFE00000000000FFFE000
FFFE00000000000FFFE000
FFFE00000000000FFFE000
FFFE00000000000FFFE000
FFFE00000000000FFFE000
FFFE00000000000FFFE000
FFFE00000000000FFFE000
FFFE00000000000FFFE000
FFFE00000000000FFFE000
FFFE00000000000FFFE000
FFFE00000000000FFFE000
FFFE00000000000FFFE000
FFFE00000000000FFFE000
FFFE00000000000FFFE000
FFFE00000000000FFFE000
0000000000000000000000
0000000000000000000000
0000000000000000000000
0000000000000000000000
0000000000000000000000
0000000000000000000000
0000000000000000000000
0000000000000000000000
0000000000000000000000
0000000000000000000000
ENDCHAR
STARTCHAR U+004C
ENCODING 76
SWIDTH 1000 0
BBX 85 50 0 -10
DWIDTH 85 0
BITMAP
0000000000000000000000
0000000000000000000000
0000000000000000000000
0000000000000000000000
0000000000000000000000
FFFE000000000000000000
FFFE000000000000000000
FFFE000000000000000000
FFFE000000000000000000
FFFE000000000000000000
FFFE000000000000000000
FFFE000000000000000000
FFFE000000000000000000
FFFE000000000000000000
FFFE000000000000000000
FFFE000000000000000000
FFFE000000000000000000
FFFE000000000000000000
FFFE000000000000000000
FFFE000000000000000000
FFFE000000000000000000
FFFE000000000000000000
FFFE000000000000000000
FFFE000000000000000000
FFFE000000000000000000
FFFE000000000000000000
FFFE000000000000000000
FFFE000000000000000000
FFFE000000000000000000
FFFE000000000000000000
FFFE000000000000000000
FFFE000000000000000000
FFFE000000000000000000
FFFE000000000000000000
FFFE000000000000000000
FFFFFFFFFFFFFFFFFFE000
FFFFFFFFFFFFFFFFFFE000
FFFFFFFFFFFFFFFFFFE000
FFFFFFFFFFFFFFFFFFE000
FFFFFFFFFFFFFFFFFFE000
0000000000000000000000
0000000000000000000000
0000000000000000000000
0000000000000000000000
0000000000000000000000
0000000000000000000000
0000000000000000000000
0000000000000000000000
0000000000000000000000
0000000000000000000000
ENDCHAR
STARTCHAR U+004B
ENCODING 75
SWIDTH 1000 0
BBX 85 50 0 -10
DWIDTH 85 0
BITMAP
0000000000000000000000
0000000000000000000000
0000000000000000000000
0000000000000000000000
0000000000000000000000
FFFE00000000000FFFE000
FFFE00000000000FFFE000
FFFE00000000000FFFE000
FFFE00000000000FFFE000
FFFE00000000000FFFE000
FFFE000000FFFFFF800000
FFFE000000FFFFFF800000
FFFE000000FFFFFF800000
FFFE000000FFFFFF800000
FFFE000000FFFFFF800000
FFFE0FFFFFF80000000000
FFFE0FFFFFF80000000000
FFFE0FFFFFF80000000000
FFFE0FFFFFF80000000000
FFFE0FFFFFF80000000000
FFFFFF8000000000000000
FFFFFF8000000000000000
FFFFFF8000000000000000
FFFFFF8000000000000000
FFFFFF8000000000000000
FFFE0FFFFFF80000000000
FFFE0FFFFFF80000000000
FFFE0FFFFFF80000000000
FFFE0FFFFFF80000000000
FFFE0FFFFFF80000000000
FFFE000000FFFFFF800000
FFFE000000FFFFFF800000
FFFE000000FFFFFF800000
FFFE000000FFFFFF800000
FFFE000000FFFFFF800000
FFFE00000000000FFFE000
FFFE00000000000FFFE000
FFFE00000000000FFFE000
FFFE00000000000FFFE000
FFFE00000000000FFFE000
0000000000000000000000
0000000000000000000000
0000000000000000000000
0000000000000000000000
0000000000000000000000
0000000000000000000000
0000000000000000000000
0000000000000000000000
0000000000000000000000
0000000000000000000000
ENDCHAR
STARTCHAR U+004A
ENCODING 74
SWIDTH 1000 0
BBX 85 50 0 -10
DWIDTH 85 0
BITMAP
0000000000000000000000
0000000000000000000000
0000000000000000000000
0000000000000000000000
0000000000000000000000
0000000000FFFFFFFFE000
0000000000FFFFFFFFE000
0000000000FFFFFFFFE000
0000000000FFFFFFFFE000
0000000000FFFFFFFFE000
0000000000003FFF800000
0000000000003FFF800000
0000000000003FFF800000
0000000000003FFF800000
0000000000003FFF800000
0000000000003FFF800000
0000000000003FFF800000
0000000000003FFF800000
0000000000003FFF800000
0000000000003FFF800000
0000000000003FFF800000
0000000000003FFF800000
0000000000003FFF800000
0000000000003FFF800000
0000000000003FFF800000
0000000000003FFF800000
0000000000003FFF800000
0000000000003FFF800000
0000000000003FFF800000
0000000000003FFF800000
FFFE000000003FFF800000
FFFE000000003FFF800000
FFFE000000003FFF800000
FFFE000000003FFF800000
FFFE000000003FFF800000
003FFFFFFFFFFE00000000
003FFFFFFFFFFE00000000
003FFFFFFFFFFE00000000
003FFFFFFFFFFE00000000
003FFFFFFFFFFE00000000
0000000000000000000000
0000000000000000000000
0000000000000000000000
0000000000000000000000
0000000000000000000000
0000000000000000000000
0000000000000000000000
0000000000000000000000
0000000000000000000000
0000000000000000000000
ENDCHAR
STARTCHAR U+0049
ENCODING 73
SWIDTH 1000 0
BBX 85 50 0 -10
DWIDTH 85 0
BITMAP
0000000000000000000000
0000000000000000000000
0000000000000000000000
0000000000000000000000
0000000000000000000000
003FFFFFFFFFFFFF800000
003FFFFFFFFFFFFF800000
003FFFFFFFFFFFFF800000
003FFFFFFFFFFFFF800000
003FFFFFFFFFFFFF800000
00000003FFF80000000000
00000003FFF80000000000
00000003FFF80000000000
00000003FFF80000000000
00000003FFF80000000000
00000003FFF80000000000
00000003FFF80000000000
00000003FFF80000000000
00000003FFF80000000000
00000003FFF80000000000
00000003FFF80000000000
00000003FFF80000000000
00000003FFF80000000000
00000003FFF80000000000
00000003FFF80000000000
00000003FFF80000000000
00000003FFF80000000000
00000003FFF80000000000
00000003FFF80000000000
00000003FFF80000000000
00000003FFF80000000000
00000003FFF80000000000
00000003FFF80000000000
00000003FFF80000000000
00000003FFF80000000000
003FFFFFFFFFFFFF800000
003FFFFFFFFFFFFF800000
003FFFFFFFFFFFFF800000
003FFFFFFFFFFFFF800000
003FFFFFFFFFFFFF800000
0000000000000000000000
0000000000000000000000
0000000000000000000000
0000000000000000000000
0000000000000000000000
0000000000000000000000
0000000000000000000000
0000000000000000000000
0000000000000000000000
0000000000000000000000
ENDCHAR
STARTCHAR U+0048
ENCODING 72
SWIDTH 1000 0
BBX 85 50 0 -10
DWIDTH 85 0
BITMAP
0000000000000000000000
0000000000000000000000
0000000000000000000000
0000000000000000000000
0000000000000000000000
FFFE00000000000FFFE000
FFFE00000000000FFFE000
FFFE00000000000FFFE000
FFFE00000000000FFFE000
FFFE00000000000FFFE000
FFFE00000000000FFFE000
FFFE00000000000FFFE000
FFFE00000000000FFFE000
FFFE00000000000FFFE000
FFFE00000000000FFFE000
FFFE00000000000FFFE000
FFFE00000000000FFFE000
FFFE00000000000FFFE000
FFFE00000000000FFFE000
FFFE00000000000FFFE000
FFFFFFFFFFFFFFFFFFE000
FFFFFFFFFFFFFFFFFFE000
FFFFFFFFFFFFFFFFFFE000
FFFFFFFFFFFFFFFFFFE000
FFFFFFFFFFFFFFFFFFE000
FFFE00000000000FFFE000
FFFE00000000000FFFE000
FFFE00000000000FFFE000
FFFE00000000000FFFE000
FFFE00000000000FFFE000
FFFE00000000000FFFE000
FFFE00000000000FFFE000
FFFE00000000000FFFE000
FFFE00000000000FFFE000
FFFE00000000000FFFE000
FFFE00000000000FFFE000
FFFE00000000000FFFE000
FFFE00000000000FFFE000
FFFE00000000000FFFE000
FFFE00000000000FFFE000
0000000000000000000000
0000000000000000000000
0000000000000000000000
0000000000000000000000
0000000000000000000000
0000000000000000000000
0000000000000000000000
0000000000000000000000
0000000000000000000000
0000000000000000000000
ENDCHAR
STARTCHAR U+0047
ENCODING 71
SWIDTH 1000 0
BBX 85 50 0 -10
DWIDTH 85 0
BITMAP
0000000000000000000000
0000000000000000000000
0000000000000000000000
0000000000000000000000
0000000000000000000000
00000FFFFFFFFFFF800000
00000FFFFFFFFFFF800000
00000FFFFFFFFFFF800000
00000FFFFFFFFFFF800000
00000FFFFFFFFFFF800000
003FFF800000000FFFE000
003FFF800000000FFFE000
003FFF800000000FFFE000
003FFF800000000FFFE000
003FFF800000000FFFE000
FFFE000000000000000000
FFFE000000000000000000
FFFE000000000000000000
FFFE000000000000000000
FFFE000000000000000000
FFFE000000000000000000
FFFE000000000000000000
FFFE000000000000000000
FFFE000000000000000000
FFFE000000000000000000
FFFE000000FFFFFFFFE000
FFFE000000FFFFFFFFE000
FFFE000000FFFFFFFFE000
FFFE000000FFFFFFFFE000
FFFE000000FFFFFFFFE000
003FFF800000000FFFE000
003FFF800000000FFFE000
003FFF800000000FFFE000
003FFF800000000FFFE000
003FFF800000000FFFE000
00000FFFFFFFFFFF800000
00000FFFFFFFFFFF800000
00000FFFFFFFFFFF800000
00000FFFFFFFFFFF800000
00000FFFFFFFFFFF800000
0000000000000000000000
0000000000000000000000
0000000000000000000000
0000000000000000000000
0000000000000000000000
0000000000000000000000
0000000000000000000000
0000000000000000000000
0000000000000000000000
0000000000000000000000
ENDCHAR
STARTCHAR U+0046
ENCODING 70
SWIDTH 1000 0
BBX 85 50 0 -10
DWIDTH 85 0
BITMAP
0000000000000000000000
0000000000000000000000
0000000000000000000000
0000000000000000000000
0000000000000000000000
FFFFFFFFFFFFFFFFFFE000
FFFFFFFFFFFFFFFFFFE000
FFFFFFFFFFFFFFFFFFE000
FFFFFFFFFFFFFFFFFFE000
FFFFFFFFFFFFFFFFFFE000
FFFE000000000000000000
FFFE000000000000000000
FFFE000000000000000000
FFFE000000000000000000
FFFE000000000000000000
FFFE000000000000000000
FFFE000000000000000000
FFFE000000000000000000
FFFE000000000000000000
FFFE000000000000000000
FFFFFFFFFFFFFE00000000
FFFFFFFFFFFFFE00000000
FFFFFFFFFFFFFE00000000
FFFFFFFFFFFFFE00000000
FFFFFFFFFFFFFE00000000
FFFE000000000000000000
FFFE000000000000000000
FFFE000000000000000000
FFFE000000000000000000
FFFE000000000000000000
FFFE000000000000000000
FFFE000000000000000000
FFFE000000000000000000
FFFE000000000000000000
FFFE000000000000000000
FFFE000000000000000000
FFFE000000000000000000
FFFE000000000000000000
FFFE000000000000000000
FFFE000000000000000000
0000000000000000000000
0000000000000000000000
0000000000000000000000
0000000000000000000000
0000000000000000000000
0000000000000000000000
0000000000000000000000
0000000000000000000000
0000000000000000000000
0000000000000000000000
ENDCHAR
STARTCHAR U+0045
ENCODING 69
SWIDTH 1000 0
BBX 85 50 0 -10
DWIDTH 85 0
BITMAP
0000000000000000000000
0000000000000000000000
0000000000000000000000
0000000000000000000000
0000000000000000000000
FFFFFFFFFFFFFFFFFFE000
FFFFFFFFFFFFFFFFFFE000
FFFFFFFFFFFFFFFFFFE000
FFFFFFFFFFFFFFFFFFE000
FFFFFFFFFFFFFFFFFFE000
FFFE000000000000000000
FFFE000000000000000000
FFFE000000000000000000
FFFE000000000000000000
FFFE000000000000000000
FFFE000000000000000000
FFFE000000000000000000
FFFE000000000000000000
FFFE000000000000000000
FFFE000000000000000000
FFFFFFFFFFFFFE00000000
FFFFFFFFFFFFFE00000000
FFFFFFFFFFFFFE00000000
FFFFFFFFFFFFFE00000000
FFFFFFFFFFFFFE00000000
FFFE000000000000000000
FFFE000000000000000000
FFFE000000000000000000
FFFE000000000000000000
FFFE000000000000000000
FFFE000000000000000000
FFFE000000000000000000
FFFE000000000000000000
FFFE000000000000000000
FFFE000000000000000000
FFFFFFFFFFFFFFFFFFE000
FFFFFFFFFFFFFFFFFFE000
FFFFFFFFFFFFFFFFFFE000
FFFFFFFFFFFFFFFFFFE000
FFFFFFFFFFFFFFFFFFE000
0000000000000000000000
0000000000000000000000
0000000000000000000000
0000000000000000000000
0000000000000000000000
0000000000000000000000
0000000000000000000000
0000000000000000000000
0000000000000000000000
0000000000000000000000
ENDCHAR
STARTCHAR U+0044
ENCODING 68
SWIDTH 1000 0
BBX 85 50 0 -10
DWIDTH 85 0
BITMAP
0000000000000000000000
0000000000000000000000
0000000000000000000000
0000000000000000000000
0000000000000000000000
FFFFFFFFFFFFFE00000000
FFFFFFFFFFFFFE00000000
FFFFFFFFFFFFFE00000000
FFFFFFFFFFFFFE00000000
FFFFFFFFFFFFFE00000000
003FFF8000003FFF800000
003FFF8000003FFF800000
003FFF8000003FFF800000
003FFF8000003FFF800000
003FFF8000003FFF800000
003FFF800000000FFFE000
003FFF800000000FFFE000
003FFF800000000FFFE000
003FFF800000000FFFE000
003FFF800000000FFFE000
003FFF800000000FFFE000
003FFF800000000FFFE000
003FFF800000000FFFE000
003FFF800000000FFFE000
003FFF800000000FFFE000
003FFF800000000FFFE000
003FFF800000000FFFE000
003FFF800000000FFFE000
003FFF800000000FFFE000
003FFF800000000FFFE000
003FFF8000003FFF800000
003FFF8000003FFF800000
003FFF8000003FFF800000
003FFF8000003FFF800000
003FFF8000003FFF800000
FFFFFFFFFFFFFE00000000
FFFFFFFFFFFFFE00000000
FFFFFFFFFFFFFE00000000
FFFFFFFFFFFFFE00000000
FFFFFFFFFFFFFE00000000
0000000000000000000000
0000000000000000000000
0000000000000000000000
0000000000000000000000
0000000000000000000000
0000000000000000000000
0000000000000000000000
0000000000000000000000
0000000000000000000000
0000000000000000000000
ENDCHAR
STARTCHAR U+0043
ENCODING 67
SWIDTH 1000 0
BBX 85 50 0 -10
DWIDTH 85 0
BITMAP
0000000000000000000000
0000000000000000000000
0000000000000000000000
0000000000000000000000
0000000000000000000000
00000FFFFFFFFFFF800000
00000FFFFFFFFFFF800000
00000FFFFFFFFFFF800000
00000FFFFFFFFFFF800000
00000FFFFFFFFFFF800000
003FFF800000000FFFE000
003FFF800000000FFFE000
003FFF800000000FFFE000
003FFF800000000FFFE000
003FFF800000000FFFE000
FFFE000000000000000000
FFFE000000000000000000
FFFE000000000000000000
FFFE000000000000000000
FFFE000000000000000000
FFFE000000000000000000
FFFE000000000000000000
FFFE000000000000000000
FFFE000000000000000000
FFFE000000000000000000
FFFE000000000000000000
FFFE000000000000000000
FFFE000000000000000000
FFFE000000000000000000
FFFE000000000000000000
003FFF800000000FFFE000
003FFF800000000FFFE000
003FFF800000000FFFE000
003FFF800000000FFFE000
003FFF800000000FFFE000
00000FFFFFFFFFFF800000
00000FFFFFFFFFFF800000
00000FFFFFFFFFFF800000
00000FFFFFFFFFFF800000
00000FFFFFFFFFFF800000
0000000000000000000000
0000000000000000000000
0000000000000000000000
0000000000000000000000
0000000000000000000000
0000000000000000000000
0000000000000000000000
0000000000000000000000
0000000000000000000000
0000000000000000000000
ENDCHAR
STARTCHAR U+0042
ENCODING 66
SWIDTH 1000 0
BBX 85 50 0 -10
DWIDTH 85 0
BITMAP
0000000000000000000000
0000000000000000000000
0000000000000000000000
0000000000000000000000
0000000000000000000000
FFFFFFFFFFFFFFFF800000
FFFFFFFFFFFFFFFF800000
FFFFFFFFFFFFFFFF800000
FFFFFFFFFFFFFFFF800000
FFFFFFFFFFFFFFFF800000
003FFF800000000FFFE000
003FFF800000000FFFE000
003FFF800000000FFFE000
003FFF800000000FFFE000
003FFF800000000FFFE000
003FFF800000000FFFE000
003FFF800000000FFFE000
003FFF800000000FFFE000
003FFF800000000FFFE000
003FFF800000000FFFE000
003FFFFFFFFFFFFF800000
003FFFFFFFFFFFFF800000
003FFFFFFFFFFFFF800000
003FFFFFFFFFFFFF800000
003FFFFFFFFFFFFF800000
003FFF800000000FFFE000
003FFF800000000FFFE000
003FFF800000000FFFE000
003FFF800000000FFFE000
003FFF800000000FFFE000
003FFF800000000FFFE000
003FFF800000000FFFE000
003FFF800000000FFFE000
003FFF800000000FFFE000
003FFF800000000FFFE000
FFFFFFFFFFFFFFFF800000
FFFFFFFFFFFFFFFF800000
FFFFFFFFFFFFFFFF800000
FFFFFFFFFFFFFFFF800000
FFFFFFFFFFFFFFFF800000
0000000000000000000000
0000000000000000000000
0000000000000000000000
0000000000000000000000
0000000000000000000000
0000000000000000000000
0000000000000000000000
0000000000000000000000
0000000000000000000000
0000000000000000000000
ENDCHAR
STARTCHAR U+0041
ENCODING 65
SWIDTH 1000 0
BBX 85 50 0 -10
DWIDTH 85 0
BITMAP
0000000000000000000000
0000000000000000000000
0000000000000000000000
0000000000000000000000
0000000000000000000000
00000003FFF80000000000
00000003FFF80000000000
00000003FFF80000000000
00000003FFF80000000000
00000003FFF80000000000
00000FFFE0FFFE00000000
00000FFFE0FFFE00000000
00000FFFE0FFFE00000000
00000FFFE0FFFE00000000
00000FFFE0FFFE00000000
003FFF8000003FFF800000
003FFF8000003FFF800000
003FFF8000003FFF800000
003FFF8000003FFF800000
003FFF8000003FFF800000
FFFE00000000000FFFE000
FFFE00000000000FFFE000
FFFE00000000000FFFE000
FFFE00000000000FFFE000
FFFE00000000000FFFE000
FFFFFFFFFFFFFFFFFFE000
FFFFFFFFFFFFFFFFFFE000
FFFFFFFFFFFFFFFFFFE000
FFFFFFFFFFFFFFFFFFE000
FFFFFFFFFFFFFFFFFFE000
FFFE00000000000FFFE000
FFFE00000000000FFFE000
FFFE00000000000FFFE000
FFFE00000000000FFFE000
FFFE00000000000FFFE000
FFFE00000000000FFFE000
FFFE00000000000FFFE000
FFFE00000000000FFFE000
FFFE00000000000FFFE000
FFFE00000000000FFFE000
0000000000000000000000
0000000000000000000000
0000000000000000000000
0000000000000000000000
0000000000000000000000
0000000000000000000000
0000000000000000000000
0000000000000000000000
0000000000000000000000
0000000000000000000000
ENDCHAR
STARTCHAR U+0040
ENCODING 64
SWIDTH 1000 0
BBX 85 50 0 -10
DWIDTH 85 0
BITMAP
0000000000000000000000
0000000000000000000000
0000000000000000000000
0000000000000000000000
0000000000000000000000
003FFFFFFFFFFFFF800000
003FFFFFFFFFFFFF800000
003FFFFFFFFFFFFF800000
003FFFFFFFFFFFFF800000
003FFFFFFFFFFFFF800000
FFFE00000000000FFFE000
FFFE00000000000FFFE000
FFFE00000000000FFFE000
FFFE00000000000FFFE000
FFFE00000000000FFFE000
FFFE0003FFFFFFFFFFE000
FFFE0003FFFFFFFFFFE000
FFFE0003FFFFFFFFFFE000
FFFE0003FFFFFFFFFFE000
FFFE0003FFFFFFFFFFE000
FFFE0FFFE0003FFFFFE000
FFFE0FFFE0003FFFFFE000
FFFE0FFFE0003FFFFFE000
FFFE0FFFE0003FFFFFE000
FFFE0FFFE0003FFFFFE000
FFFE0003FFFFFE0FFFE000
FFFE0003FFFFFE0FFFE000
FFFE0003FFFFFE0FFFE000
FFFE0003FFFFFE0FFFE000
FFFE0003FFFFFE0FFFE000
FFFE000000000000000000
FFFE000000000000000000
FFFE000000000000000000
FFFE000000000000000000
FFFE000000000000000000
003FFFFFFFFFFFFF800000
003FFFFFFFFFFFFF800000
003FFFFFFFFFFFFF800000
003FFFFFFFFFFFFF800000
003FFFFFFFFFFFFF800000
0000000000000000000000
0000000000000000000000
0000000000000000000000
0000000000000000000000
0000000000000000000000
0000000000000000000000
0000000000000000000000
0000000000000000000000
0000000000000000000000
0000000000000000000000
ENDCHAR
STARTCHAR U+003F
ENCODING 63
SWIDTH 1000 0
BBX 85 50 0 -10
DWIDTH 85 0
BITMAP
0000000000000000000000
0000000000000000000000
0000000000000000000000
0000000000000000000000
0000000000000000000000
003FFFFFFFFFFFFF800000
003FFFFFFFFFFFFF800000
003FFFFFFFFFFFFF800000
003FFFFFFFFFFFFF800000
003FFFFFFFFFFFFF800000
FFFE00000000000FFFE000
FFFE00000000000FFFE000
FFFE00000000000FFFE000
FFFE00000000000FFFE000
FFFE00000000000FFFE000
0000000000FFFFFF800000
0000000000FFFFFF800000
0000000000FFFFFF800000
0000000000FFFFFF800000
0000000000FFFFFF800000
00000003FFF80000000000
00000003FFF80000000000
00000003FFF80000000000
00000003FFF80000000000
00000003FFF80000000000
00000003FFF80000000000
00000003FFF80000000000
00000003FFF80000000000
00000003FFF80000000000
00000003FFF80000000000
0000000000000000000000
0000000000000000000000
0000000000000000000000
0000000000000000000000
0000000000000000000000
00000003FFF80000000000
00000003FFF80000000000
00000003FFF80000000000
00000003FFF80000000000
00000003FFF80000000000
0000000000000000000000
0000000000000000000000
0000000000000000000000
0000000000000000000000
0000000000000000000000
0000000000000000000000
0000000000000000000000
0000000000000000000000
0000000000000000000000
0000000000000000000000
ENDCHAR
STARTCHAR U+003E
ENCODING 62
SWIDTH 1000 0
BBX 85 50 0 -10
DWIDTH 85 0
BITMAP
0000000000000000000000
0000000000000000000000
0000000000000000000000
0000000000000000000000
0000000000000000000000
FFFE000000000000000000
FFFE000000000000000000
FFFE000000000000000000
FFFE000000000000000000
FFFE000000000000000000
00000FFFE0000000000000
00000FFFE0000000000000
00000FFFE0000000000000
00000FFFE0000000000000
00000FFFE0000000000000
0000000000FFFE00000000
0000000000FFFE00000000
0000000000FFFE00000000
0000000000FFFE00000000
0000000000FFFE00000000
000000000000000FFFE000
000000000000000FFFE000
000000000000000FFFE000
000000000000000FFFE000
000000000000000FFFE000
0000000000FFFE00000000
0000000000FFFE00000000
0000000000FFFE00000000
0000000000FFFE00000000
0000000000FFFE00000000
00000FFFE0000000000000
00000FFFE0000000000000
00000FFFE0000000000000
00000FFFE0000000000000
00000FFFE0000000000000
FFFE000000000000000000
FFFE000000000000000000
FFFE000000000000000000
FFFE000000000000000000
FFFE000000000000000000
0000000000000000000000
0000000000000000000000
0000000000000000000000
0000000000000000000000
0000000000000000000000
0000000000000000000000
0000000000000000000000
0000000000000000000000
0000000000000000000000
0000000000000000000000
ENDCHAR
ENDFONT
